Browne.ufo
<glyph name="parenleft" format="2">
	<advance width="380"/>
	<unicode hex="0028"/>
	<note>
		parenleft
  </note>
	<outline>
		<contour>
			<point x="147" y="340" type="qcurve" smooth="yes"/>
			<point x="147" y="402"/>
			<point x="164" y="542"/>
			<point x="212" y="679"/>
			<point x="299" y="803"/>
			<point x="369" y="848" type="qcurve"/>
			<point x="352" y="875" type="line"/>
			<point x="279" y="835"/>
			<point x="164" y="716"/>
			<point x="83" y="574"/>
			<point x="41" y="415"/>
			<point x="41" y="333" type="qcurve" smooth="yes"/>
			<point x="41" y="236"/>
			<point x="83" y="68"/>
			<point x="163" y="-71"/>
			<point x="277" y="-180"/>
			<point x="348" y="-218" type="qcurve"/>
			<point x="366" y="-191" type="line"/>
			<point x="295" y="-146"/>
			<point x="209" y="-15"/>
			<point x="163" y="131"/>
			<point x="147" y="279"/>
		</contour>
	</outline>
</glyph>
<glyph name="parenright" format="2">
	<advance width="380"/>
	<unicode hex="0029"/>
	<note>
		parenright
  </note>
	<outline>
		<contour>
			<point x="233" y="317" type="qcurve" smooth="yes"/>
			<point x="233" y="256"/>
			<point x="216" y="115"/>
			<point x="168" y="-22"/>
			<point x="81" y="-146"/>
			<point x="11" y="-191" type="qcurve"/>
			<point x="28" y="-218" type="line"/>
			<point x="100" y="-178"/>
			<point x="216" y="-59"/>
			<point x="296" y="83"/>
			<point x="339" y="243"/>
			<point x="339" y="324" type="qcurve" smooth="yes"/>
			<point x="339" y="420"/>
			<point x="297" y="589"/>
			<point x="217" y="729"/>
			<point x="103" y="837"/>
			<point x="32" y="875" type="qcurve"/>
			<point x="14" y="848" type="line"/>
			<point x="84" y="803"/>
			<point x="170" y="672"/>
			<point x="217" y="526"/>
			<point x="233" y="379"/>
		</contour>
	</outline>
</glyph>
<glyph name="PlusArabic" format="2">
	<advance width="567"/>
	<unicode hex="002B"/>
	<note>
		PlusArabic
  </note>
	<outline>
		<contour>
			<point x="518" y="291" type="line"/>
			<point x="518" y="334" type="line"/>
			<point x="304" y="334" type="line"/>
			<point x="304" y="539" type="line"/>
			<point x="261" y="539" type="line"/>
			<point x="261" y="334" type="line"/>
			<point x="50" y="334" type="line"/>
			<point x="50" y="291" type="line"/>
			<point x="261" y="291" type="line"/>
			<point x="261" y="85" type="line"/>
			<point x="304" y="85" type="line"/>
			<point x="304" y="291" type="line"/>
		</contour>
	</outline>
</glyph>
<glyph name="hyphen" format="2">
	<advance width="473"/>
	<unicode hex="002D"/>
	<note>
		hyphen
  </note>
	<outline>
		<contour>
			<point x="400" y="275" type="line"/>
			<point x="407" y="338" type="line"/>
			<point x="73" y="338" type="line"/>
			<point x="66" y="275" type="line"/>
		</contour>
	</outline>
</glyph>
<glyph name="slash" format="2">
	<advance width="564"/>
	<unicode hex="002F"/>
	<note>
		slash
  </note>
	<outline>
		<contour>
			<point x="524" y="762" type="qcurve"/>
			<point x="479" y="776" type="line"/>
			<point x="426" y="675"/>
			<point x="318" y="458"/>
			<point x="212" y="235"/>
			<point x="109" y="13"/>
			<point x="62" y="-93" type="qcurve"/>
			<point x="104" y="-111" type="line"/>
			<point x="150" y="-10"/>
			<point x="252" y="208"/>
			<point x="358" y="432"/>
			<point x="469" y="655"/>
		</contour>
	</outline>
</glyph>
<glyph name="EqualArabic" format="2">
	<advance width="567"/>
	<unicode hex="003D"/>
	<note>
		EqualArabic
  </note>
	<outline>
		<contour>
			<point x="518" y="373" type="line"/>
			<point x="518" y="416" type="line"/>
			<point x="50" y="416" type="line"/>
			<point x="50" y="373" type="line"/>
		</contour>
		<contour>
			<point x="518" y="203" type="line"/>
			<point x="518" y="246" type="line"/>
			<point x="50" y="246" type="line"/>
			<point x="50" y="203" type="line"/>
		</contour>
	</outline>
</glyph>
<glyph name="bracketleft" format="2">
	<advance width="397"/>
	<unicode hex="005B"/>
	<note>
		bracketleft
  </note>
	<outline>
		<contour>
			<point x="143" y="846" type="line"/>
			<point x="143" y="-189" type="line"/>
			<point x="366" y="-189" type="line"/>
			<point x="366" y="-152" type="line"/>
			<point x="237" y="-152" type="line"/>
			<point x="237" y="810" type="line"/>
			<point x="366" y="810" type="line"/>
			<point x="366" y="846" type="line"/>
		</contour>
	</outline>
</glyph>
<glyph name="backslash" format="2">
	<advance width="543"/>
	<unicode hex="005C"/>
	<note>
		backslash
  </note>
	<outline>
		<contour>
			<point x="446" y="-118" type="qcurve"/>
			<point x="490" y="-105" type="line"/>
			<point x="440" y="3"/>
			<point x="338" y="231"/>
			<point x="241" y="458"/>
			<point x="147" y="680"/>
			<point x="104" y="783" type="qcurve"/>
			<point x="62" y="767" type="line"/>
			<point x="104" y="659"/>
			<point x="199" y="433"/>
			<point x="296" y="207"/>
			<point x="396" y="-15"/>
		</contour>
	</outline>
</glyph>
<glyph name="bracketright" format="2">
	<advance width="397"/>
	<unicode hex="005D"/>
	<note>
		bracketright
  </note>
	<outline>
		<contour>
			<point x="255" y="-189" type="line"/>
			<point x="255" y="846" type="line"/>
			<point x="32" y="846" type="line"/>
			<point x="32" y="810" type="line"/>
			<point x="160" y="810" type="line"/>
			<point x="160" y="-152" type="line"/>
			<point x="32" y="-152" type="line"/>
			<point x="32" y="-189" type="line"/>
		</contour>
	</outline>
</glyph>
<glyph name="braceleft" format="2">
	<advance width="380"/>
	<unicode hex="007B"/>
	<note>
		braceleft
  </note>
	<outline>
		<contour>
			<point x="207" y="680" type="qcurve" smooth="yes"/>
			<point x="207" y="753"/>
			<point x="264" y="812"/>
			<point x="307" y="812" type="qcurve" smooth="yes"/>
			<point x="316" y="812"/>
			<point x="333" y="811"/>
			<point x="342" y="809" type="qcurve"/>
			<point x="348" y="843" type="line"/>
			<point x="338" y="845"/>
			<point x="313" y="846"/>
			<point x="303" y="846" type="qcurve" smooth="yes"/>
			<point x="265" y="846"/>
			<point x="195" y="821"/>
			<point x="143" y="768"/>
			<point x="113" y="687"/>
			<point x="113" y="629" type="qcurve" smooth="yes"/>
			<point x="113" y="606"/>
			<point x="116" y="571"/>
			<point x="119" y="534"/>
			<point x="121" y="490"/>
			<point x="121" y="459" type="qcurve" smooth="yes"/>
			<point x="121" y="427"/>
			<point x="112" y="387"/>
			<point x="92" y="363"/>
			<point x="65" y="353"/>
			<point x="46" y="352" type="qcurve" smooth="yes"/>
			<point x="35" y="351" type="line"/>
			<point x="35" y="318" type="line"/>
			<point x="46" y="317" type="line" smooth="yes"/>
			<point x="65" y="315"/>
			<point x="92" y="306"/>
			<point x="112" y="282"/>
			<point x="121" y="241"/>
			<point x="121" y="208" type="qcurve" smooth="yes"/>
			<point x="121" y="178"/>
			<point x="119" y="130"/>
			<point x="116" y="90"/>
			<point x="113" y="50"/>
			<point x="113" y="28" type="qcurve" smooth="yes"/>
			<point x="113" y="-29"/>
			<point x="143" y="-111"/>
			<point x="195" y="-164"/>
			<point x="265" y="-189"/>
			<point x="303" y="-189" type="qcurve" smooth="yes"/>
			<point x="313" y="-189"/>
			<point x="336" y="-187"/>
			<point x="345" y="-186" type="qcurve"/>
			<point x="342" y="-151" type="line"/>
			<point x="327" y="-155"/>
			<point x="307" y="-155" type="qcurve" smooth="yes"/>
			<point x="286" y="-155"/>
			<point x="249" y="-141"/>
			<point x="222" y="-110"/>
			<point x="207" y="-60"/>
			<point x="207" y="-24" type="qcurve" smooth="yes"/>
			<point x="207" y="2"/>
			<point x="209" y="46"/>
			<point x="212" y="92"/>
			<point x="214" y="143"/>
			<point x="214" y="176" type="qcurve" smooth="yes"/>
			<point x="214" y="197"/>
			<point x="206" y="246"/>
			<point x="182" y="292"/>
			<point x="139" y="327"/>
			<point x="104" y="333" type="qcurve"/>
			<point x="104" y="337" type="line"/>
			<point x="139" y="344"/>
			<point x="182" y="379"/>
			<point x="206" y="423"/>
			<point x="214" y="472"/>
			<point x="214" y="493" type="qcurve" smooth="yes"/>
			<point x="214" y="525"/>
			<point x="212" y="576"/>
			<point x="209" y="619"/>
			<point x="207" y="658"/>
		</contour>
	</outline>
</glyph>
<glyph name="braceright" format="2">
	<advance width="380"/>
	<unicode hex="007D"/>
	<note>
		braceright
  </note>
	<outline>
		<contour>
			<point x="173" y="680" type="qcurve" smooth="yes"/>
			<point x="173" y="658"/>
			<point x="170" y="619"/>
			<point x="168" y="576"/>
			<point x="165" y="525"/>
			<point x="165" y="493" type="qcurve" smooth="yes"/>
			<point x="165" y="472"/>
			<point x="174" y="423"/>
			<point x="198" y="379"/>
			<point x="241" y="344"/>
			<point x="276" y="337" type="qcurve"/>
			<point x="276" y="333" type="line"/>
			<point x="241" y="327"/>
			<point x="198" y="292"/>
			<point x="174" y="246"/>
			<point x="165" y="197"/>
			<point x="165" y="176" type="qcurve" smooth="yes"/>
			<point x="165" y="143"/>
			<point x="168" y="92"/>
			<point x="170" y="46"/>
			<point x="173" y="2"/>
			<point x="173" y="-24" type="qcurve" smooth="yes"/>
			<point x="173" y="-60"/>
			<point x="158" y="-110"/>
			<point x="131" y="-141"/>
			<point x="94" y="-155"/>
			<point x="73" y="-155" type="qcurve" smooth="yes"/>
			<point x="54" y="-155"/>
			<point x="39" y="-151" type="qcurve"/>
			<point x="34" y="-186" type="line"/>
			<point x="44" y="-187"/>
			<point x="67" y="-189"/>
			<point x="77" y="-189" type="qcurve" smooth="yes"/>
			<point x="115" y="-189"/>
			<point x="185" y="-164"/>
			<point x="236" y="-111"/>
			<point x="266" y="-29"/>
			<point x="266" y="28" type="qcurve" smooth="yes"/>
			<point x="266" y="50"/>
			<point x="264" y="90"/>
			<point x="260" y="130"/>
			<point x="257" y="178"/>
			<point x="257" y="208" type="qcurve" smooth="yes"/>
			<point x="257" y="241"/>
			<point x="267" y="282"/>
			<point x="287" y="306"/>
			<point x="314" y="315"/>
			<point x="333" y="317" type="qcurve" smooth="yes"/>
			<point x="345" y="318" type="line"/>
			<point x="345" y="351" type="line"/>
			<point x="333" y="352" type="line" smooth="yes"/>
			<point x="314" y="353"/>
			<point x="287" y="363"/>
			<point x="267" y="387"/>
			<point x="257" y="427"/>
			<point x="257" y="459" type="qcurve" smooth="yes"/>
			<point x="257" y="490"/>
			<point x="260" y="534"/>
			<point x="264" y="571"/>
			<point x="266" y="606"/>
			<point x="266" y="629" type="qcurve" smooth="yes"/>
			<point x="266" y="687"/>
			<point x="236" y="768"/>
			<point x="185" y="821"/>
			<point x="115" y="846"/>
			<point x="77" y="846" type="qcurve" smooth="yes"/>
			<point x="67" y="846"/>
			<point x="42" y="845"/>
			<point x="32" y="843" type="qcurve"/>
			<point x="39" y="809" type="line"/>
			<point x="46" y="811"/>
			<point x="63" y="812"/>
			<point x="73" y="812" type="qcurve" smooth="yes"/>
			<point x="116" y="812"/>
			<point x="173" y="753"/>
		</contour>
	</outline>
</glyph>
<glyph name="DblGuillemetLeftArabic" format="2">
	<advance width="481"/>
	<unicode hex="00AB"/>
	<note>
		DblGuillemetLeftArabic
  </note>
	<outline>
		<contour>
			<point x="358" y="93" type="qcurve"/>
			<point x="367" y="95" type="line"/>
			<point x="371" y="100"/>
			<point x="394" y="161"/>
			<point x="396" y="176" type="qcurve"/>
			<point x="358" y="208"/>
			<point x="323" y="285"/>
			<point x="323" y="343" type="qcurve" smooth="yes"/>
			<point x="323" y="386"/>
			<point x="358" y="490"/>
			<point x="392" y="536" type="qcurve"/>
			<point x="375" y="549" type="line"/>
			<point x="320" y="488"/>
			<point x="260" y="347"/>
			<point x="260" y="279" type="qcurve" smooth="yes"/>
			<point x="260" y="157"/>
		</contour>
		<contour>
			<point x="180" y="60" type="qcurve"/>
			<point x="189" y="62" type="line"/>
			<point x="191" y="64"/>
			<point x="219" y="133"/>
			<point x="221" y="143" type="qcurve"/>
			<point x="147" y="213"/>
			<point x="147" y="331" type="qcurve" smooth="yes"/>
			<point x="147" y="377"/>
			<point x="184" y="488"/>
			<point x="216" y="533" type="qcurve"/>
			<point x="200" y="547" type="line"/>
			<point x="145" y="487"/>
			<point x="84" y="335"/>
			<point x="84" y="266" type="qcurve" smooth="yes"/>
			<point x="84" y="200"/>
			<point x="134" y="90"/>
		</contour>
	</outline>
</glyph>
<glyph name="DblGuillemetRightArabic" format="2">
	<advance width="481"/>
	<unicode hex="00BB"/>
	<note>
		DblGuillemetRightArabic
  </note>
	<outline>
		<contour>
			<point x="122" y="516" type="qcurve"/>
			<point x="113" y="514" type="line"/>
			<point x="107" y="505"/>
			<point x="87" y="446"/>
			<point x="84" y="433" type="qcurve"/>
			<point x="123" y="402"/>
			<point x="158" y="324"/>
			<point x="158" y="266" type="qcurve" smooth="yes"/>
			<point x="158" y="223"/>
			<point x="122" y="120"/>
			<point x="89" y="73" type="qcurve"/>
			<point x="105" y="60" type="line"/>
			<point x="161" y="121"/>
			<point x="221" y="262"/>
			<point x="221" y="331" type="qcurve" smooth="yes"/>
			<point x="221" y="452"/>
		</contour>
		<contour>
			<point x="301" y="549" type="qcurve"/>
			<point x="292" y="547" type="line"/>
			<point x="289" y="545"/>
			<point x="262" y="476"/>
			<point x="260" y="467" type="qcurve"/>
			<point x="334" y="396"/>
			<point x="334" y="279" type="qcurve" smooth="yes"/>
			<point x="334" y="232"/>
			<point x="297" y="121"/>
			<point x="265" y="77" type="qcurve"/>
			<point x="281" y="63" type="line"/>
			<point x="336" y="121"/>
			<point x="396" y="274"/>
			<point x="396" y="343" type="qcurve" smooth="yes"/>
			<point x="396" y="408"/>
			<point x="349" y="516"/>
		</contour>
	</outline>
</glyph>
<glyph name="MultiplyArabic" format="2">
	<advance width="567"/>
	<unicode hex="00D7"/>
	<note>
		MultiplyArabic
  </note>
	<outline>
		<contour>
			<point x="486" y="140" type="line"/>
			<point x="313" y="312" type="line"/>
			<point x="485" y="484" type="line"/>
			<point x="455" y="514" type="line"/>
			<point x="283" y="342" type="line"/>
			<point x="110" y="514" type="line"/>
			<point x="81" y="484" type="line"/>
			<point x="253" y="312" type="line"/>
			<point x="82" y="140" type="line"/>
			<point x="111" y="110" type="line"/>
			<point x="283" y="282" type="line"/>
			<point x="455" y="110" type="line"/>
		</contour>
	</outline>
</glyph>
<glyph name="DivideArabic" format="2">
	<advance width="567"/>
	<unicode hex="00F7"/>
	<note>
		DivideArabic
  </note>
	<outline>
		<contour>
			<point x="518" y="291" type="line"/>
			<point x="518" y="334" type="line"/>
			<point x="50" y="334" type="line"/>
			<point x="50" y="291" type="line"/>
		</contour>
		<contour>
			<point x="221" y="481" type="line"/>
			<point x="241" y="467"/>
			<point x="278" y="430" type="qcurve"/>
			<point x="285" y="430" type="line"/>
			<point x="342" y="471"/>
			<point x="342" y="495" type="qcurve" smooth="yes"/>
			<point x="342" y="511"/>
			<point x="314" y="538"/>
			<point x="288" y="555" type="qcurve"/>
			<point x="281" y="555" type="line"/>
			<point x="275" y="551"/>
			<point x="232" y="503"/>
			<point x="221" y="488" type="qcurve"/>
		</contour>
		<contour>
			<point x="221" y="122" type="line"/>
			<point x="239" y="109"/>
			<point x="278" y="70" type="qcurve"/>
			<point x="285" y="70" type="line"/>
			<point x="342" y="112"/>
			<point x="342" y="136" type="qcurve" smooth="yes"/>
			<point x="342" y="151"/>
			<point x="314" y="178"/>
			<point x="288" y="195" type="qcurve"/>
			<point x="281" y="195" type="line"/>
			<point x="274" y="191"/>
			<point x="231" y="145"/>
			<point x="221" y="129" type="qcurve"/>
		</contour>
	</outline>
</glyph>
<glyph name="NumberSign" format="2">
	<advance width="1527"/>
	<unicode hex="0600"/>
	<note>
		NumberSign
  </note>
	<outline>
		<contour>
			<point x="1413" y="570" type="line"/>
			<point x="1365" y="527"/>
			<point x="1263" y="359"/>
			<point x="1245" y="291" type="qcurve"/>
			<point x="1203" y="252" type="line"/>
			<point x="1140" y="188"/>
			<point x="744" y="116"/>
			<point x="496" y="116" type="qcurve" smooth="yes"/>
			<point x="399" y="116"/>
			<point x="157" y="136"/>
			<point x="116" y="147" type="qcurve"/>
			<point x="110" y="140" type="line"/>
			<point x="104" y="109"/>
			<point x="104" y="81" type="qcurve" smooth="yes"/>
			<point x="104" y="47"/>
			<point x="174" y="16"/>
			<point x="354" y="0"/>
			<point x="444" y="0" type="qcurve" smooth="yes"/>
			<point x="636" y="0"/>
			<point x="1010" y="84"/>
			<point x="1141" y="156" type="qcurve" smooth="yes"/>
			<point x="1163" y="169"/>
			<point x="1192" y="178"/>
			<point x="1212" y="178" type="qcurve" smooth="yes"/>
			<point x="1232" y="178"/>
			<point x="1272" y="156" type="qcurve" smooth="yes"/>
			<point x="1295" y="144"/>
			<point x="1308" y="144" type="qcurve" smooth="yes"/>
			<point x="1337" y="144"/>
			<point x="1393" y="229"/>
			<point x="1393" y="259" type="qcurve" smooth="yes"/>
			<point x="1393" y="283"/>
			<point x="1361" y="300" type="qcurve" smooth="yes"/>
			<point x="1334" y="314" type="line" smooth="yes"/>
			<point x="1312" y="327"/>
			<point x="1312" y="345" type="qcurve" smooth="yes"/>
			<point x="1312" y="385"/>
			<point x="1370" y="438" type="qcurve" smooth="yes"/>
			<point x="1379" y="446"/>
			<point x="1420" y="556"/>
			<point x="1422" y="567" type="qcurve"/>
		</contour>
		<contour>
			<point x="865" y="279" type="line"/>
			<point x="865" y="279" type="line"/>
		</contour>
	</outline>
</glyph>
<glyph name="Sanah" format="2">
	<advance width="1333"/>
	<unicode hex="0601"/>
	<note>
		Sanah
  </note>
	<outline>
		<contour>
			<point x="659" y="103" type="qcurve" smooth="yes"/>
			<point x="593" y="103"/>
			<point x="543" y="120" type="qcurve"/>
			<point x="536" y="123"/>
			<point x="525" y="123" type="qcurve" smooth="yes"/>
			<point x="504" y="123"/>
			<point x="487" y="100" type="qcurve"/>
			<point x="452" y="60" type="line" smooth="yes"/>
			<point x="434" y="40"/>
			<point x="398" y="18"/>
			<point x="369" y="18" type="qcurve" smooth="yes"/>
			<point x="347" y="18"/>
			<point x="310" y="26"/>
			<point x="290" y="26" type="qcurve" smooth="yes"/>
			<point x="178" y="26"/>
			<point x="105" y="-165" type="qcurve"/>
			<point x="123" y="-174" type="line"/>
			<point x="150" y="-135"/>
			<point x="193" y="-107"/>
			<point x="219" y="-107" type="qcurve" smooth="yes"/>
			<point x="231" y="-107"/>
			<point x="259" y="-114" type="qcurve" smooth="yes"/>
			<point x="288" y="-121"/>
			<point x="307" y="-121" type="qcurve" smooth="yes"/>
			<point x="337" y="-121"/>
			<point x="390" y="-88"/>
			<point x="433" y="-33" type="qcurve" smooth="yes"/>
			<point x="458" y="-1"/>
			<point x="476" y="13"/>
			<point x="484" y="13" type="qcurve" smooth="yes"/>
			<point x="495" y="13"/>
			<point x="516" y="3" type="qcurve" smooth="yes"/>
			<point x="572" y="-21"/>
			<point x="642" y="-21" type="qcurve" smooth="yes"/>
			<point x="846" y="-21"/>
			<point x="1105" y="186" type="qcurve" smooth="yes"/>
			<point x="1151" y="222"/>
			<point x="1184" y="230" type="qcurve"/>
			<point x="1205" y="263"/>
			<point x="1227" y="327" type="qcurve"/>
			<point x="1224" y="336" type="line"/>
			<point x="1215" y="334"/>
			<point x="1184" y="314"/>
			<point x="1115" y="260" type="qcurve" smooth="yes"/>
			<point x="1024" y="188"/>
			<point x="775" y="103"/>
		</contour>
		<contour>
			<point x="610" y="323" type="line"/>
			<point x="610" y="323" type="line"/>
		</contour>
	</outline>
</glyph>
<glyph name="Footnote" format="2">
	<advance width="1493"/>
	<unicode hex="0602"/>
	<note>
		Footnote
  </note>
	<outline>
		<contour>
			<point x="411" y="104" type="qcurve"/>
			<point x="428" y="151"/>
			<point x="428" y="200" type="qcurve" smooth="yes"/>
			<point x="428" y="257"/>
			<point x="374" y="323"/>
			<point x="323" y="323" type="qcurve" smooth="yes"/>
			<point x="280" y="323"/>
			<point x="187" y="250"/>
			<point x="132" y="143"/>
			<point x="132" y="101" type="qcurve" smooth="yes"/>
			<point x="132" y="0"/>
			<point x="301" y="0" type="qcurve" smooth="yes"/>
			<point x="604" y="0"/>
			<point x="1159" y="97"/>
			<point x="1348" y="185" type="qcurve"/>
			<point x="1375" y="236"/>
			<point x="1379" y="278" type="qcurve"/>
			<point x="1369" y="280" type="line"/>
			<point x="997" y="126"/>
		</contour>
		<contour>
			<point x="387" y="104" type="line"/>
			<point x="367" y="104" type="line" smooth="yes"/>
			<point x="279" y="104"/>
			<point x="183" y="128"/>
			<point x="183" y="163" type="qcurve" smooth="yes"/>
			<point x="183" y="193"/>
			<point x="238" y="239"/>
			<point x="275" y="239" type="qcurve" smooth="yes"/>
			<point x="387" y="239"/>
			<point x="387" y="110" type="qcurve" smooth="yes"/>
		</contour>
		<contour>
			<point x="789" y="319" type="line"/>
			<point x="789" y="319" type="line"/>
		</contour>
	</outline>
</glyph>
<glyph name="Safhah" format="2">
	<advance width="1331"/>
	<unicode hex="0603"/>
	<note>
		Safhah
  </note>
	<outline>
		<contour>
			<point x="1094" y="259" type="qcurve" smooth="yes"/>
			<point x="1094" y="220"/>
			<point x="931" y="141"/>
			<point x="839" y="141" type="qcurve"/>
			<point x="806" y="143" type="line"/>
			<point x="870" y="228"/>
			<point x="971" y="302"/>
			<point x="1026" y="302" type="qcurve" smooth="yes"/>
			<point x="1055" y="302"/>
			<point x="1094" y="278"/>
		</contour>
		<contour>
			<point x="187" y="-42" type="qcurve" smooth="yes"/>
			<point x="490" y="-42"/>
			<point x="656" y="72" type="qcurve" smooth="yes"/>
			<point x="662" y="77"/>
			<point x="669" y="77" type="qcurve" smooth="yes"/>
			<point x="671" y="77"/>
			<point x="677" y="74"/>
			<point x="679" y="72" type="qcurve" smooth="yes"/>
			<point x="733" y="42"/>
			<point x="790" y="28"/>
			<point x="822" y="28" type="qcurve" smooth="yes"/>
			<point x="885" y="28"/>
			<point x="996" y="72"/>
			<point x="1088" y="151"/>
			<point x="1184" y="306"/>
			<point x="1184" y="366" type="qcurve" smooth="yes"/>
			<point x="1184" y="394"/>
			<point x="1145" y="430"/>
			<point x="1108" y="430" type="qcurve" smooth="yes"/>
			<point x="1035" y="430"/>
			<point x="875" y="304"/>
			<point x="763" y="156" type="qcurve"/>
			<point x="748" y="161"/>
			<point x="714" y="178"/>
			<point x="701" y="178" type="qcurve" smooth="yes"/>
			<point x="688" y="178"/>
			<point x="640" y="137"/>
			<point x="603" y="111" type="qcurve" smooth="yes"/>
			<point x="523" y="54"/>
			<point x="250" y="-15"/>
			<point x="110" y="-15" type="qcurve"/>
			<point x="104" y="-38" type="line"/>
			<point x="149" y="-42"/>
		</contour>
		<contour>
			<point x="385" y="305" type="line"/>
			<point x="385" y="305" type="line"/>
		</contour>
	</outline>
</glyph>
<glyph name="PermilleArabic" format="2">
	<advance width="767"/>
	<unicode hex="0609"/>
	<note>
		PermilleArabic
  </note>
	<outline>
		<contour>
			<point x="87" y="553" type="line"/>
			<point x="130" y="521"/>
			<point x="158" y="488" type="qcurve"/>
			<point x="166" y="488" type="line"/>
			<point x="237" y="541"/>
			<point x="237" y="570" type="qcurve" smooth="yes"/>
			<point x="237" y="589"/>
			<point x="203" y="622"/>
			<point x="169" y="644" type="qcurve"/>
			<point x="162" y="644" type="line"/>
			<point x="153" y="638"/>
			<point x="102" y="583"/>
			<point x="87" y="561" type="qcurve"/>
		</contour>
		<contour>
			<point x="323" y="65" type="line"/>
			<point x="332" y="59"/>
			<point x="381" y="14"/>
			<point x="394" y="0" type="qcurve"/>
			<point x="402" y="0" type="line"/>
			<point x="473" y="51"/>
			<point x="473" y="83" type="qcurve" smooth="yes"/>
			<point x="473" y="100"/>
			<point x="439" y="134"/>
			<point x="406" y="155" type="qcurve"/>
			<point x="398" y="155" type="line"/>
			<point x="390" y="150"/>
			<point x="339" y="98"/>
			<point x="323" y="73" type="qcurve"/>
		</contour>
		<contour>
			<point x="529" y="65" type="line"/>
			<point x="539" y="59"/>
			<point x="588" y="14"/>
			<point x="600" y="0" type="qcurve"/>
			<point x="608" y="0" type="line"/>
			<point x="679" y="53"/>
			<point x="679" y="83" type="qcurve" smooth="yes"/>
			<point x="679" y="100"/>
			<point x="646" y="134"/>
			<point x="613" y="155" type="qcurve"/>
			<point x="604" y="155" type="line"/>
			<point x="593" y="147"/>
			<point x="543" y="94"/>
			<point x="529" y="73" type="qcurve"/>
		</contour>
		<contour>
			<point x="472" y="657" type="qcurve"/>
			<point x="427" y="670" type="line"/>
			<point x="337" y="498"/>
			<point x="226" y="270"/>
			<point x="106" y="3" type="qcurve"/>
			<point x="149" y="-14" type="line"/>
			<point x="328" y="380"/>
		</contour>
	</outline>
</glyph>
<glyph name="Per10milleArabic" format="2">
	<advance width="973"/>
	<unicode hex="060A"/>
	<note>
		Per10milleArabic
  </note>
	<outline>
		<contour>
			<point x="87" y="553" type="line"/>
			<point x="130" y="520"/>
			<point x="158" y="488" type="qcurve"/>
			<point x="166" y="488" type="line"/>
			<point x="237" y="541"/>
			<point x="237" y="570" type="qcurve" smooth="yes"/>
			<point x="237" y="589"/>
			<point x="204" y="622"/>
			<point x="169" y="644" type="qcurve"/>
			<point x="162" y="644" type="line"/>
			<point x="153" y="637"/>
			<point x="102" y="583"/>
			<point x="87" y="561" type="qcurve"/>
		</contour>
		<contour>
			<point x="323" y="65" type="line"/>
			<point x="332" y="59"/>
			<point x="381" y="14"/>
			<point x="394" y="0" type="qcurve"/>
			<point x="402" y="0" type="line"/>
			<point x="473" y="51"/>
			<point x="473" y="83" type="qcurve" smooth="yes"/>
			<point x="473" y="100"/>
			<point x="439" y="134"/>
			<point x="406" y="155" type="qcurve"/>
			<point x="398" y="155" type="line"/>
			<point x="390" y="150"/>
			<point x="341" y="98"/>
			<point x="323" y="73" type="qcurve"/>
		</contour>
		<contour>
			<point x="529" y="65" type="line"/>
			<point x="539" y="58"/>
			<point x="588" y="14"/>
			<point x="600" y="0" type="qcurve"/>
			<point x="608" y="0" type="line"/>
			<point x="679" y="53"/>
			<point x="679" y="83" type="qcurve" smooth="yes"/>
			<point x="679" y="100"/>
			<point x="646" y="134"/>
			<point x="613" y="155" type="qcurve"/>
			<point x="604" y="155" type="line"/>
			<point x="593" y="147"/>
			<point x="543" y="93"/>
			<point x="529" y="73" type="qcurve"/>
		</contour>
		<contour>
			<point x="736" y="65" type="line"/>
			<point x="779" y="32"/>
			<point x="807" y="0" type="qcurve"/>
			<point x="815" y="0" type="line"/>
			<point x="886" y="53"/>
			<point x="886" y="83" type="qcurve" smooth="yes"/>
			<point x="886" y="100"/>
			<point x="852" y="134"/>
			<point x="818" y="155" type="qcurve"/>
			<point x="811" y="155" type="line"/>
			<point x="802" y="150"/>
			<point x="750" y="94"/>
			<point x="736" y="73" type="qcurve"/>
		</contour>
		<contour>
			<point x="472" y="657" type="qcurve"/>
			<point x="427" y="670" type="line"/>
			<point x="337" y="498"/>
			<point x="226" y="270"/>
			<point x="106" y="3" type="qcurve"/>
			<point x="149" y="-14" type="line"/>
			<point x="328" y="380"/>
		</contour>
	</outline>
</glyph>
<glyph name="CommaArabic" format="2">
	<advance width="357"/>
	<unicode hex="060C"/>
	<note>
		CommaArabic
  </note>
	<outline>
		<contour>
			<point x="267" y="114" type="qcurve" smooth="yes"/>
			<point x="267" y="133"/>
			<point x="247" y="151" type="qcurve" smooth="yes"/>
			<point x="201" y="190"/>
			<point x="179" y="216"/>
			<point x="179" y="232" type="qcurve" smooth="yes"/>
			<point x="179" y="251"/>
			<point x="211" y="311"/>
			<point x="231" y="342" type="qcurve"/>
			<point x="213" y="355" type="line"/>
			<point x="165" y="303"/>
			<point x="103" y="177"/>
			<point x="103" y="127" type="qcurve" smooth="yes"/>
			<point x="103" y="110"/>
			<point x="113" y="79"/>
			<point x="134" y="52"/>
			<point x="176" y="20" type="qcurve"/>
			<point x="186" y="20" type="line"/>
			<point x="267" y="78"/>
		</contour>
	</outline>
</glyph>
<glyph name="DateSeparatorArabic" format="2">
	<advance width="529"/>
	<unicode hex="060D"/>
	<note>
		DateSeparatorArabic
  </note>
	<outline>
		<contour>
			<point x="406" y="407" type="qcurve"/>
			<point x="390" y="417" type="line"/>
			<point x="310" y="370"/>
			<point x="144" y="126"/>
			<point x="114" y="1" type="qcurve"/>
			<point x="133" y="-5" type="line"/>
			<point x="172" y="76"/>
			<point x="254" y="176"/>
			<point x="346" y="242" type="qcurve" smooth="yes"/>
			<point x="357" y="249"/>
			<point x="374" y="266"/>
			<point x="378" y="281" type="qcurve" smooth="yes"/>
			<point x="381" y="296"/>
			<point x="387" y="314" type="qcurve" smooth="yes"/>
			<point x="393" y="339"/>
			<point x="406" y="394"/>
		</contour>
	</outline>
</glyph>
<glyph name="VerseSign" format="2">
	<advance width="1583"/>
	<unicode hex="060E"/>
	<note>
		VerseSign
  </note>
	<outline>
		<contour>
			<point x="509" y="104" type="qcurve"/>
			<point x="536" y="168"/>
			<point x="536" y="222" type="qcurve" smooth="yes"/>
			<point x="536" y="288"/>
			<point x="455" y="373"/>
			<point x="381" y="373" type="qcurve" smooth="yes"/>
			<point x="301" y="373"/>
			<point x="114" y="208"/>
			<point x="114" y="119" type="qcurve" smooth="yes"/>
			<point x="114" y="55"/>
			<point x="266" y="0"/>
			<point x="411" y="0" type="qcurve" smooth="yes"/>
			<point x="730" y="0"/>
			<point x="1246" y="91"/>
			<point x="1447" y="185" type="qcurve"/>
			<point x="1461" y="213"/>
			<point x="1476" y="260"/>
			<point x="1478" y="278" type="qcurve"/>
			<point x="1468" y="280" type="line"/>
			<point x="1286" y="205"/>
			<point x="802" y="115"/>
		</contour>
		<contour>
			<point x="485" y="104" type="line"/>
			<point x="467" y="104" type="line" smooth="yes"/>
			<point x="370" y="104"/>
			<point x="256" y="117"/>
			<point x="182" y="146"/>
			<point x="182" y="185" type="qcurve" smooth="yes"/>
			<point x="182" y="226"/>
			<point x="262" y="279"/>
			<point x="311" y="279" type="qcurve" smooth="yes"/>
			<point x="394" y="279"/>
			<point x="485" y="191"/>
			<point x="485" y="110" type="qcurve" smooth="yes"/>
		</contour>
	</outline>
</glyph>
<glyph name="Misra" format="2">
	<advance width="872"/>
	<unicode hex="060F"/>
	<note>
		Misra
  </note>
	<outline>
		<contour>
			<point x="158" y="-286" type="qcurve"/>
			<point x="200" y="-313"/>
			<point x="301" y="-341"/>
			<point x="356" y="-341" type="qcurve" smooth="yes"/>
			<point x="551" y="-341"/>
			<point x="805" y="-89"/>
			<point x="805" y="115" type="qcurve" smooth="yes"/>
			<point x="805" y="212"/>
			<point x="698" y="323"/>
			<point x="620" y="323" type="qcurve" smooth="yes"/>
			<point x="508" y="323"/>
			<point x="300" y="128"/>
			<point x="195" y="-95" type="qcurve"/>
			<point x="164" y="-64"/>
			<point x="129" y="18"/>
			<point x="129" y="68" type="qcurve" smooth="yes"/>
			<point x="129" y="181"/>
			<point x="270" y="359"/>
			<point x="484" y="481" type="qcurve" smooth="yes"/>
			<point x="505" y="494" type="line"/>
			<point x="520" y="501"/>
			<point x="560" y="563"/>
			<point x="565" y="578" type="qcurve"/>
			<point x="552" y="589" type="line"/>
			<point x="524" y="569"/>
			<point x="456" y="525"/>
			<point x="428" y="511" type="qcurve" smooth="yes"/>
			<point x="408" y="500" type="line"/>
			<point x="397" y="496"/>
			<point x="376" y="493"/>
			<point x="364" y="493" type="qcurve" smooth="yes"/>
			<point x="316" y="493"/>
			<point x="250" y="535"/>
			<point x="250" y="567" type="qcurve" smooth="yes"/>
			<point x="250" y="601"/>
			<point x="316" y="653"/>
			<point x="362" y="653" type="qcurve" smooth="yes"/>
			<point x="380" y="653"/>
			<point x="413" y="643"/>
			<point x="426" y="630" type="qcurve"/>
			<point x="435" y="629" type="line"/>
			<point x="451" y="638"/>
			<point x="463" y="671"/>
			<point x="463" y="685" type="qcurve" smooth="yes"/>
			<point x="463" y="711"/>
			<point x="424" y="743"/>
			<point x="395" y="743" type="qcurve" smooth="yes"/>
			<point x="323" y="743"/>
			<point x="144" y="543"/>
			<point x="144" y="477" type="qcurve" smooth="yes"/>
			<point x="144" y="438"/>
			<point x="191" y="379"/>
			<point x="231" y="367" type="qcurve"/>
			<point x="133" y="284"/>
			<point x="28" y="82"/>
			<point x="28" y="-31" type="qcurve" smooth="yes"/>
			<point x="28" y="-105"/>
			<point x="80" y="-221"/>
			<point x="125" y="-260" type="qcurve"/>
			<point x="107" y="-310"/>
			<point x="85" y="-377"/>
			<point x="80" y="-397" type="qcurve"/>
			<point x="104" y="-403" type="line"/>
			<point x="118" y="-374"/>
			<point x="145" y="-313"/>
		</contour>
		<contour>
			<point x="763" y="64" type="qcurve" smooth="yes"/>
			<point x="763" y="-31"/>
			<point x="562" y="-172"/>
			<point x="413" y="-172" type="qcurve" smooth="yes"/>
			<point x="306" y="-172"/>
			<point x="233" y="-125" type="qcurve"/>
			<point x="292" y="7"/>
			<point x="490" y="189"/>
			<point x="595" y="189" type="qcurve" smooth="yes"/>
			<point x="669" y="189"/>
			<point x="763" y="123"/>
		</contour>
	</outline>
</glyph>
<glyph name="SallallahNS" format="2">
	<advance width="0"/>
	<unicode hex="0610"/>
	<note>
		SallallahNS
  </note>
	<outline>
		<contour>
			<point x="-104" y="835" type="qcurve"/>
			<point x="-95" y="833" type="line"/>
			<point x="-83" y="863"/>
			<point x="-75" y="910"/>
			<point x="-75" y="963" type="qcurve"/>
			<point x="-63" y="955"/>
			<point x="-36" y="951"/>
			<point x="-24" y="951" type="qcurve" smooth="yes"/>
			<point x="42" y="951"/>
			<point x="145" y="1063"/>
			<point x="145" y="1110" type="qcurve" smooth="yes"/>
			<point x="145" y="1123"/>
			<point x="126" y="1141"/>
			<point x="110" y="1141" type="qcurve" smooth="yes"/>
			<point x="87" y="1141"/>
			<point x="32" y="1111"/>
			<point x="-7" y="1068" type="qcurve" smooth="yes"/>
			<point x="-43" y="1024" type="line" smooth="yes"/>
			<point x="-49" y="1016"/>
			<point x="-53" y="1011" type="qcurve"/>
			<point x="-79" y="1020"/>
			<point x="-82" y="1101"/>
			<point x="-90" y="1120" type="qcurve"/>
			<point x="-94" y="1120" type="line"/>
			<point x="-105" y="1092" type="line" smooth="yes"/>
			<point x="-113" y="1074"/>
			<point x="-117" y="1063" type="qcurve"/>
			<point x="-117" y="1051"/>
			<point x="-102" y="957"/>
			<point x="-102" y="887" type="qcurve" smooth="yes"/>
			<point x="-103" y="867"/>
			<point x="-103" y="839"/>
		</contour>
		<contour>
			<point x="103" y="1061" type="qcurve" smooth="yes"/>
			<point x="103" y="1042"/>
			<point x="29" y="1004"/>
			<point x="-17" y="1004" type="qcurve" smooth="yes"/>
			<point x="-24" y="1004"/>
			<point x="-33" y="1006" type="qcurve"/>
			<point x="-19" y="1023" type="line" smooth="yes"/>
			<point x="2" y="1048"/>
			<point x="45" y="1080"/>
			<point x="71" y="1080" type="qcurve" smooth="yes"/>
			<point x="79" y="1080"/>
			<point x="103" y="1072"/>
		</contour>
		<contour>
			<point x="0" y="921" type="line"/>
			<point x="0" y="921" type="line"/>
		</contour>
		<contour>
			<point x="0" y="1185" type="line"/>
			<point x="0" y="1185" type="line"/>
		</contour>
		<contour>
			<point x="0" y="848" type="line"/>
			<point x="0" y="848" type="line"/>
		</contour>
	</outline>
</glyph>
<glyph name="AlayhissalamNS" format="2">
	<advance width="0"/>
	<unicode hex="0611"/>
	<note>
		AlayhissalamNS
  </note>
	<outline>
		<contour>
			<point x="-99" y="826" type="qcurve"/>
			<point x="-89" y="824" type="line"/>
			<point x="-77" y="854"/>
			<point x="-68" y="901"/>
			<point x="-68" y="955" type="qcurve"/>
			<point x="-60" y="947"/>
			<point x="-37" y="942"/>
			<point x="-24" y="942" type="qcurve" smooth="yes"/>
			<point x="21" y="942"/>
			<point x="125" y="1004"/>
			<point x="149" y="1059" type="qcurve"/>
			<point x="142" y="1064" type="line"/>
			<point x="129" y="1052"/>
			<point x="81" y="1018"/>
			<point x="62" y="1018" type="qcurve" smooth="yes"/>
			<point x="40" y="1018"/>
			<point x="3" y="1038"/>
			<point x="3" y="1056" type="qcurve" smooth="yes"/>
			<point x="3" y="1073"/>
			<point x="34" y="1093"/>
			<point x="52" y="1093" type="qcurve" smooth="yes"/>
			<point x="71" y="1093"/>
			<point x="84" y="1080" type="qcurve"/>
			<point x="88" y="1080" type="line"/>
			<point x="94" y="1083"/>
			<point x="103" y="1096"/>
			<point x="103" y="1105" type="qcurve" smooth="yes"/>
			<point x="103" y="1119"/>
			<point x="82" y="1132"/>
			<point x="68" y="1132" type="qcurve" smooth="yes"/>
			<point x="35" y="1132"/>
			<point x="-46" y="1050"/>
			<point x="-46" y="1016" type="qcurve" smooth="yes"/>
			<point x="-46" y="1004"/>
			<point x="-43" y="997" type="qcurve"/>
			<point x="-72" y="1005"/>
			<point x="-77" y="1092"/>
			<point x="-83" y="1111" type="qcurve"/>
			<point x="-88" y="1111" type="line"/>
			<point x="-99" y="1083" type="line" smooth="yes"/>
			<point x="-107" y="1065"/>
			<point x="-111" y="1054" type="qcurve"/>
			<point x="-111" y="1042"/>
			<point x="-96" y="948"/>
			<point x="-96" y="878" type="qcurve" smooth="yes"/>
			<point x="-97" y="858"/>
			<point x="-97" y="831"/>
		</contour>
		<contour>
			<point x="0" y="918" type="line"/>
			<point x="0" y="918" type="line"/>
		</contour>
		<contour>
			<point x="0" y="1202" type="line"/>
			<point x="0" y="1202" type="line"/>
		</contour>
		<contour>
			<point x="0" y="826" type="line"/>
			<point x="0" y="826" type="line"/>
		</contour>
	</outline>
</glyph>
<glyph name="RahmatullahNS" format="2">
	<advance width="0"/>
	<unicode hex="0612"/>
	<note>
		RahmatullahNS
  </note>
	<outline>
		<contour>
			<point x="173" y="1100" type="qcurve"/>
			<point x="158" y="1102" type="line"/>
			<point x="141" y="1051"/>
			<point x="97" y="976"/>
			<point x="-9" y="890"/>
			<point x="-31" y="879" type="qcurve"/>
			<point x="-29" y="868" type="line"/>
			<point x="66" y="888"/>
			<point x="104" y="918"/>
			<point x="155" y="1025"/>
		</contour>
		<contour>
			<point x="-154" y="879" type="qcurve"/>
			<point x="-139" y="859" type="line"/>
			<point x="-130" y="859" type="line"/>
			<point x="-115" y="921"/>
			<point x="-2" y="1035"/>
			<point x="77" y="1080"/>
			<point x="95" y="1116" type="qcurve"/>
			<point x="95" y="1120" type="line"/>
			<point x="83" y="1125"/>
			<point x="10" y="1137"/>
			<point x="-21" y="1137" type="qcurve" smooth="yes"/>
			<point x="-66" y="1137"/>
			<point x="-106" y="1102"/>
			<point x="-121" y="1062" type="qcurve"/>
			<point x="-107" y="1057" type="line"/>
			<point x="-98" y="1077"/>
			<point x="-72" y="1083"/>
			<point x="-53" y="1083" type="qcurve" smooth="yes"/>
			<point x="-36" y="1083"/>
			<point x="-21" y="1083" type="qcurve"/>
			<point x="3" y="1081" type="line" smooth="yes"/>
			<point x="26" y="1079"/>
			<point x="26" y="1077" type="qcurve"/>
			<point x="-35" y="1038"/>
			<point x="-128" y="945"/>
		</contour>
		<contour>
			<point x="0" y="962" type="line"/>
			<point x="0" y="962" type="line"/>
		</contour>
		<contour>
			<point x="0" y="1208" type="line"/>
			<point x="0" y="1208" type="line"/>
		</contour>
		<contour>
			<point x="0" y="866" type="line"/>
			<point x="0" y="866" type="line"/>
		</contour>
	</outline>
</glyph>
<glyph name="RadiallahNS" format="2">
	<advance width="0"/>
	<unicode hex="0613"/>
	<note>
		RadiallahNS
  </note>
	<outline>
		<contour>
			<point x="197" y="1084" type="qcurve"/>
			<point x="182" y="1087" type="line"/>
			<point x="165" y="1036"/>
			<point x="121" y="960"/>
			<point x="15" y="875"/>
			<point x="-7" y="864" type="qcurve"/>
			<point x="-5" y="853" type="line"/>
			<point x="90" y="873"/>
			<point x="128" y="903"/>
			<point x="178" y="1010"/>
		</contour>
		<contour>
			<point x="-158" y="829" type="qcurve"/>
			<point x="-148" y="827" type="line"/>
			<point x="-136" y="857"/>
			<point x="-128" y="903"/>
			<point x="-128" y="957" type="qcurve"/>
			<point x="-117" y="948"/>
			<point x="-90" y="945"/>
			<point x="-78" y="945" type="qcurve" smooth="yes"/>
			<point x="-11" y="945"/>
			<point x="91" y="1057"/>
			<point x="91" y="1104" type="qcurve" smooth="yes"/>
			<point x="91" y="1117"/>
			<point x="73" y="1135"/>
			<point x="56" y="1135" type="qcurve" smooth="yes"/>
			<point x="33" y="1135"/>
			<point x="-22" y="1105"/>
			<point x="-61" y="1062" type="qcurve" smooth="yes"/>
			<point x="-97" y="1018" type="line" smooth="yes"/>
			<point x="-103" y="1010"/>
			<point x="-106" y="1004" type="qcurve"/>
			<point x="-133" y="1013"/>
			<point x="-135" y="1094"/>
			<point x="-143" y="1114" type="qcurve"/>
			<point x="-147" y="1114" type="line"/>
			<point x="-159" y="1085" type="line" smooth="yes"/>
			<point x="-167" y="1068"/>
			<point x="-170" y="1057" type="qcurve"/>
			<point x="-170" y="1045"/>
			<point x="-156" y="951"/>
			<point x="-156" y="881" type="qcurve" smooth="yes"/>
			<point x="-156" y="860"/>
			<point x="-156" y="833"/>
		</contour>
		<contour>
			<point x="49" y="1055" type="qcurve" smooth="yes"/>
			<point x="49" y="1036"/>
			<point x="-24" y="999"/>
			<point x="-70" y="999" type="qcurve" smooth="yes"/>
			<point x="-77" y="999"/>
			<point x="-86" y="1000" type="qcurve"/>
			<point x="-72" y="1017" type="line" smooth="yes"/>
			<point x="-52" y="1042"/>
			<point x="-9" y="1074"/>
			<point x="18" y="1074" type="qcurve" smooth="yes"/>
			<point x="25" y="1074"/>
			<point x="49" y="1066"/>
		</contour>
		<contour>
			<point x="-82" y="1175" type="qcurve"/>
			<point x="-82" y="1171" type="line"/>
			<point x="-63" y="1157" type="line" smooth="yes"/>
			<point x="-53" y="1148"/>
			<point x="-48" y="1143" type="qcurve"/>
			<point x="-44" y="1143" type="line"/>
			<point x="-32" y="1151"/>
			<point x="-11" y="1171"/>
			<point x="-11" y="1181" type="qcurve" smooth="yes"/>
			<point x="-11" y="1189"/>
			<point x="-26" y="1205"/>
			<point x="-42" y="1215" type="qcurve"/>
			<point x="-46" y="1215" type="line"/>
			<point x="-49" y="1212"/>
			<point x="-74" y="1187"/>
		</contour>
		<contour>
			<point x="0" y="918" type="line"/>
			<point x="0" y="918" type="line"/>
		</contour>
		<contour>
			<point x="0" y="1272" type="line"/>
			<point x="0" y="1272" type="line"/>
		</contour>
		<contour>
			<point x="0" y="831" type="line"/>
			<point x="0" y="831" type="line"/>
		</contour>
	</outline>
</glyph>
<glyph name="TakhallusNS" format="2">
	<advance width="0"/>
	<unicode hex="0614"/>
	<note>
		TakhallusNS
  </note>
	<outline>
		<contour>
			<point x="-114" y="892" type="line"/>
			<point x="-71" y="892"/>
			<point x="19" y="938"/>
			<point x="53" y="973"/>
			<point x="59" y="973" type="qcurve" smooth="yes"/>
			<point x="63" y="973"/>
			<point x="95" y="948"/>
			<point x="110" y="948" type="qcurve" smooth="yes"/>
			<point x="135" y="948"/>
			<point x="170" y="992"/>
			<point x="186" y="1047" type="qcurve"/>
			<point x="168" y="1053" type="line"/>
			<point x="158" y="1030"/>
			<point x="139" y="1013"/>
			<point x="126" y="1013" type="qcurve" smooth="yes"/>
			<point x="115" y="1013"/>
			<point x="95" y="1035"/>
			<point x="84" y="1035" type="qcurve" smooth="yes"/>
			<point x="74" y="1035"/>
			<point x="42" y="993"/>
			<point x="-65" y="949"/>
			<point x="-213" y="938" type="qcurve"/>
			<point x="-217" y="932" type="line"/>
			<point x="-211" y="925"/>
			<point x="-165" y="907"/>
			<point x="-140" y="900" type="qcurve" smooth="yes"/>
		</contour>
		<contour>
			<point x="0" y="995" type="line"/>
			<point x="0" y="995" type="line"/>
		</contour>
		<contour>
			<point x="0" y="1127" type="line"/>
			<point x="0" y="1127" type="line"/>
		</contour>
		<contour>
			<point x="0" y="908" type="line"/>
			<point x="0" y="908" type="line"/>
		</contour>
	</outline>
</glyph>
<glyph name="SemicolonArabic" format="2">
	<advance width="317"/>
	<unicode hex="061B"/>
	<note>
		SemicolonArabic
  </note>
	<outline>
		<contour>
			<point x="223" y="486" type="qcurve" smooth="yes"/>
			<point x="182" y="522" type="line" smooth="yes"/>
			<point x="168" y="535"/>
			<point x="156" y="553"/>
			<point x="156" y="567" type="qcurve" smooth="yes"/>
			<point x="156" y="589"/>
			<point x="190" y="650"/>
			<point x="208" y="677" type="qcurve"/>
			<point x="189" y="690" type="line"/>
			<point x="140" y="637"/>
			<point x="79" y="512"/>
			<point x="79" y="462" type="qcurve" smooth="yes"/>
			<point x="79" y="439"/>
			<point x="98" y="398"/>
			<point x="152" y="354" type="qcurve"/>
			<point x="162" y="354" type="line"/>
			<point x="204" y="384"/>
			<point x="244" y="433"/>
			<point x="244" y="449" type="qcurve" smooth="yes"/>
			<point x="244" y="461"/>
			<point x="232" y="478"/>
		</contour>
		<contour>
			<point x="73" y="103" type="qcurve"/>
			<point x="73" y="94" type="line"/>
			<point x="117" y="57" type="line"/>
			<point x="139" y="36" type="line"/>
			<point x="156" y="20" type="line"/>
			<point x="165" y="20" type="line"/>
			<point x="208" y="50"/>
			<point x="247" y="98"/>
			<point x="247" y="114" type="qcurve" smooth="yes"/>
			<point x="247" y="135"/>
			<point x="208" y="174"/>
			<point x="169" y="199" type="qcurve"/>
			<point x="160" y="199" type="line"/>
			<point x="150" y="192"/>
			<point x="86" y="123"/>
		</contour>
	</outline>
</glyph>
<glyph name="QuestionmarkArabic" format="2">
	<advance width="476"/>
	<unicode hex="061F"/>
	<note>
		QuestionmarkArabic
  </note>
	<outline>
		<contour>
			<point x="284" y="267" type="line"/>
			<point x="291" y="298"/>
			<point x="291" y="330" type="qcurve" smooth="yes"/>
			<point x="291" y="460"/>
			<point x="190" y="567" type="qcurve" smooth="yes"/>
			<point x="133" y="627"/>
			<point x="133" y="662" type="qcurve" smooth="yes"/>
			<point x="133" y="701"/>
			<point x="212" y="747"/>
			<point x="271" y="747" type="qcurve" smooth="yes"/>
			<point x="315" y="747"/>
			<point x="339" y="738" type="qcurve"/>
			<point x="348" y="738" type="line"/>
			<point x="370" y="767"/>
			<point x="370" y="799" type="qcurve" smooth="yes"/>
			<point x="370" y="825"/>
			<point x="323" y="856"/>
			<point x="279" y="856" type="qcurve" smooth="yes"/>
			<point x="201" y="856"/>
			<point x="88" y="728"/>
			<point x="88" y="650" type="qcurve" smooth="yes"/>
			<point x="88" y="608"/>
			<point x="119" y="531"/>
			<point x="163" y="474" type="qcurve" smooth="yes"/>
			<point x="222" y="398"/>
			<point x="257" y="316"/>
			<point x="265" y="268" type="qcurve"/>
		</contour>
		<contour>
			<point x="186" y="91" type="line"/>
			<point x="237" y="51"/>
			<point x="265" y="20" type="qcurve"/>
			<point x="273" y="20" type="line"/>
			<point x="324" y="59"/>
			<point x="353" y="97"/>
			<point x="353" y="111" type="qcurve" smooth="yes"/>
			<point x="353" y="131"/>
			<point x="314" y="168"/>
			<point x="278" y="191" type="qcurve"/>
			<point x="269" y="191" type="line"/>
			<point x="261" y="187"/>
			<point x="206" y="128"/>
			<point x="186" y="100" type="qcurve"/>
		</contour>
	</outline>
</glyph>
<glyph name="YehKashmiri" format="2">
	<advance width="806"/>
	<unicode hex="0620"/>
	<note>
		YehKashmiri
  </note>
	<outline>
		<contour>
			<point x="53" y="-230" type="qcurve"/>
			<point x="41" y="-257" type="line"/>
			<point x="47" y="-285"/>
			<point x="160" y="-341"/>
			<point x="220" y="-341" type="qcurve" smooth="yes"/>
			<point x="328" y="-341"/>
			<point x="505" y="-196"/>
			<point x="627" y="76"/>
			<point x="627" y="169" type="qcurve" smooth="yes"/>
			<point x="627" y="199"/>
			<point x="603" y="233"/>
			<point x="534" y="259"/>
			<point x="500" y="293"/>
			<point x="500" y="315" type="qcurve" smooth="yes"/>
			<point x="500" y="360"/>
			<point x="622" y="480"/>
			<point x="670" y="480" type="qcurve" smooth="yes"/>
			<point x="692" y="480"/>
			<point x="701" y="472" type="qcurve"/>
			<point x="710" y="474" type="line"/>
			<point x="758" y="584" type="line" smooth="yes"/>
			<point x="764" y="596"/>
			<point x="764" y="604" type="qcurve" smooth="yes"/>
			<point x="764" y="622"/>
			<point x="733" y="632"/>
			<point x="719" y="632" type="qcurve" smooth="yes"/>
			<point x="660" y="632"/>
			<point x="525" y="481"/>
			<point x="416" y="245"/>
			<point x="416" y="193" type="qcurve" smooth="yes"/>
			<point x="416" y="129"/>
			<point x="557" y="80"/>
			<point x="557" y="42" type="qcurve" smooth="yes"/>
			<point x="557" y="-22"/>
			<point x="333" y="-184"/>
		</contour>
		<contour>
			<point x="275" y="468" type="line"/>
			<point x="275" y="468" type="line"/>
		</contour>
		<contour>
			<point x="342" y="-577" type="line"/>
			<point x="342" y="-577" type="line"/>
		</contour>
	</outline>
</glyph>
<glyph name="Tatweel" format="2">
	<advance width="65"/>
	<unicode hex="0640"/>
	<note>
		Tatweel
  </note>
	<outline>
		<contour>
			<point x="182" y="126" type="qcurve" smooth="yes"/>
			<point x="182" y="158"/>
			<point x="147" y="158" type="qcurve" smooth="yes"/>
			<point x="84" y="158" type="line" smooth="yes"/>
			<point x="39" y="158"/>
			<point x="-33" y="82"/>
			<point x="-33" y="32" type="qcurve" smooth="yes"/>
			<point x="-33" y="0"/>
			<point x="2" y="0" type="qcurve" smooth="yes"/>
			<point x="66" y="0" type="line" smooth="yes"/>
			<point x="112" y="0"/>
			<point x="182" y="77"/>
		</contour>
	</outline>
</glyph>
<glyph name="FathatanNS" format="2">
	<advance width="0"/>
	<unicode hex="064B"/>
	<note>
		FathatanNS
  </note>
	<outline>
		<contour>
			<point x="-59" y="940" type="line" smooth="yes"/>
			<point x="-80" y="926"/>
			<point x="-109" y="898"/>
			<point x="-116" y="870" type="qcurve"/>
			<point x="-109" y="865" type="line"/>
			<point x="-101" y="874"/>
			<point x="-74" y="891"/>
			<point x="-56" y="901" type="qcurve" smooth="yes"/>
			<point x="83" y="977" type="line" smooth="yes"/>
			<point x="100" y="986"/>
			<point x="127" y="1016"/>
			<point x="138" y="1043" type="qcurve"/>
			<point x="129" y="1048" type="line"/>
			<point x="122" y="1043"/>
			<point x="107" y="1035" type="qcurve" smooth="yes"/>
			<point x="79" y="1019" type="line"/>
			<point x="5" y="978" type="line"/>
			<point x="-32" y="957" type="line"/>
		</contour>
		<contour>
			<point x="-46" y="1041" type="line" smooth="yes"/>
			<point x="-67" y="1026"/>
			<point x="-96" y="999"/>
			<point x="-103" y="970" type="qcurve"/>
			<point x="-96" y="965" type="line"/>
			<point x="-88" y="974"/>
			<point x="-61" y="991"/>
			<point x="-43" y="1001" type="qcurve" smooth="yes"/>
			<point x="96" y="1077" type="line" smooth="yes"/>
			<point x="113" y="1086"/>
			<point x="141" y="1116"/>
			<point x="151" y="1144" type="qcurve"/>
			<point x="143" y="1149" type="line"/>
			<point x="135" y="1144"/>
			<point x="121" y="1135" type="qcurve" smooth="yes"/>
			<point x="92" y="1119" type="line"/>
			<point x="19" y="1079" type="line"/>
			<point x="-19" y="1057" type="line"/>
		</contour>
		<contour>
			<point x="0" y="959" type="line"/>
			<point x="0" y="959" type="line"/>
		</contour>
		<contour>
			<point x="0" y="1193" type="line"/>
			<point x="0" y="1193" type="line"/>
		</contour>
		<contour>
			<point x="0" y="926" type="line"/>
			<point x="0" y="926" type="line"/>
		</contour>
	</outline>
</glyph>
<glyph name="DammatanNS" format="2">
	<advance width="0"/>
	<unicode hex="064C"/>
	<note>
		DammatanNS
  </note>
	<outline>
		<contour>
			<point x="-88" y="994" type="qcurve" smooth="yes"/>
			<point x="-83" y="994" type="line"/>
			<point x="-86" y="982"/>
			<point x="-92" y="953"/>
			<point x="-92" y="941" type="qcurve" smooth="yes"/>
			<point x="-92" y="907"/>
			<point x="-63" y="869"/>
			<point x="-29" y="869" type="qcurve" smooth="yes"/>
			<point x="23" y="869"/>
			<point x="136" y="979"/>
			<point x="136" y="1030" type="qcurve" smooth="yes"/>
			<point x="136" y="1047"/>
			<point x="120" y="1071"/>
			<point x="99" y="1071" type="qcurve" smooth="yes"/>
			<point x="76" y="1071"/>
			<point x="31" y="1021"/>
			<point x="31" y="997" type="qcurve" smooth="yes"/>
			<point x="31" y="984"/>
			<point x="40" y="960"/>
			<point x="52" y="947" type="qcurve"/>
			<point x="11" y="915"/>
			<point x="-21" y="915" type="qcurve" smooth="yes"/>
			<point x="-44" y="915"/>
			<point x="-64" y="941"/>
			<point x="-64" y="964" type="qcurve" smooth="yes"/>
			<point x="-63" y="978" type="line" smooth="yes"/>
			<point x="-63" y="990"/>
			<point x="-58" y="1009"/>
			<point x="-58" y="1016" type="qcurve" smooth="yes"/>
			<point x="-58" y="1025"/>
			<point x="-68" y="1031"/>
			<point x="-74" y="1031" type="qcurve" smooth="yes"/>
			<point x="-90" y="1031"/>
			<point x="-138" y="1000"/>
			<point x="-154" y="980" type="qcurve"/>
			<point x="-147" y="972" type="line"/>
			<point x="-134" y="982"/>
			<point x="-102" y="994"/>
		</contour>
		<contour>
			<point x="83" y="1035" type="qcurve" smooth="yes"/>
			<point x="92" y="1035"/>
			<point x="104" y="1026"/>
			<point x="104" y="1016" type="qcurve" smooth="yes"/>
			<point x="104" y="1004"/>
			<point x="94" y="989"/>
			<point x="84" y="979" type="qcurve"/>
			<point x="71" y="990"/>
			<point x="60" y="1005"/>
			<point x="60" y="1013" type="qcurve" smooth="yes"/>
			<point x="60" y="1024"/>
			<point x="74" y="1035"/>
		</contour>
		<contour>
			<point x="0" y="968" type="line"/>
			<point x="0" y="968" type="line"/>
		</contour>
		<contour>
			<point x="0" y="1141" type="line"/>
			<point x="0" y="1141" type="line"/>
		</contour>
		<contour>
			<point x="0" y="865" type="line"/>
			<point x="0" y="865" type="line"/>
		</contour>
	</outline>
</glyph>
<glyph name="KasratanNS" format="2">
	<advance width="0"/>
	<unicode hex="064D"/>
	<note>
		KasratanNS
  </note>
	<outline>
		<contour>
			<point x="-77" y="-209" type="line" smooth="yes"/>
			<point x="-98" y="-223"/>
			<point x="-126" y="-251"/>
			<point x="-134" y="-279" type="qcurve"/>
			<point x="-126" y="-285" type="line"/>
			<point x="-119" y="-276"/>
			<point x="-91" y="-258"/>
			<point x="-74" y="-249" type="qcurve" smooth="yes"/>
			<point x="65" y="-173" type="line" smooth="yes"/>
			<point x="83" y="-164"/>
			<point x="110" y="-134"/>
			<point x="121" y="-106" type="qcurve"/>
			<point x="112" y="-101" type="line"/>
			<point x="104" y="-106"/>
			<point x="90" y="-115" type="qcurve" smooth="yes"/>
			<point x="62" y="-131" type="line"/>
			<point x="-12" y="-171" type="line"/>
			<point x="-49" y="-192" type="line"/>
		</contour>
		<contour>
			<point x="-63" y="-109" type="line" smooth="yes"/>
			<point x="-84" y="-123"/>
			<point x="-113" y="-151"/>
			<point x="-121" y="-179" type="qcurve"/>
			<point x="-113" y="-185" type="line"/>
			<point x="-105" y="-176"/>
			<point x="-78" y="-158"/>
			<point x="-61" y="-148" type="qcurve" smooth="yes"/>
			<point x="78" y="-73" type="line" smooth="yes"/>
			<point x="96" y="-63"/>
			<point x="123" y="-33"/>
			<point x="134" y="-6" type="qcurve"/>
			<point x="125" y="-1" type="line"/>
			<point x="118" y="-6"/>
			<point x="103" y="-15" type="qcurve" smooth="yes"/>
			<point x="75" y="-31" type="line"/>
			<point x="1" y="-71" type="line"/>
			<point x="-36" y="-92" type="line"/>
		</contour>
		<contour>
			<point x="0" y="-328" type="line"/>
			<point x="0" y="-328" type="line"/>
		</contour>
		<contour>
			<point x="0" y="-81" type="line"/>
			<point x="0" y="-81" type="line"/>
		</contour>
		<contour>
			<point x="0" y="-44" type="line"/>
			<point x="0" y="-44" type="line"/>
		</contour>
	</outline>
</glyph>
<glyph name="FathaNS" format="2">
	<advance width="0"/>
	<unicode hex="064E"/>
	<note>
		FathaNS
  </note>
	<outline>
		<contour>
			<point x="-59" y="940" type="line" smooth="yes"/>
			<point x="-80" y="926"/>
			<point x="-109" y="898"/>
			<point x="-116" y="870" type="qcurve"/>
			<point x="-109" y="865" type="line"/>
			<point x="-101" y="874"/>
			<point x="-74" y="891"/>
			<point x="-56" y="901" type="qcurve" smooth="yes"/>
			<point x="83" y="977" type="line" smooth="yes"/>
			<point x="100" y="986"/>
			<point x="127" y="1016"/>
			<point x="138" y="1043" type="qcurve"/>
			<point x="129" y="1048" type="line"/>
			<point x="122" y="1043"/>
			<point x="107" y="1035" type="qcurve" smooth="yes"/>
			<point x="79" y="1019" type="line"/>
			<point x="5" y="978" type="line"/>
			<point x="-32" y="957" type="line"/>
		</contour>
		<contour>
			<point x="0" y="959" type="line"/>
			<point x="0" y="959" type="line"/>
		</contour>
		<contour>
			<point x="0" y="1093" type="line"/>
			<point x="0" y="1093" type="line"/>
		</contour>
		<contour>
			<point x="0" y="926" type="line"/>
			<point x="0" y="926" type="line"/>
		</contour>
	</outline>
</glyph>
<glyph name="DammaNS" format="2">
	<advance width="0"/>
	<unicode hex="064F"/>
	<note>
		DammaNS
  </note>
	<outline>
		<contour>
			<point x="-116" y="868" type="qcurve"/>
			<point x="-111" y="861" type="line"/>
			<point x="-99" y="867"/>
			<point x="-67" y="883"/>
			<point x="-50" y="893" type="qcurve" smooth="yes"/>
			<point x="7" y="925" type="line"/>
			<point x="63" y="963"/>
			<point x="109" y="1025"/>
			<point x="109" y="1058" type="qcurve" smooth="yes"/>
			<point x="109" y="1076"/>
			<point x="91" y="1102"/>
			<point x="71" y="1102" type="qcurve" smooth="yes"/>
			<point x="46" y="1102"/>
			<point x="-2" y="1049"/>
			<point x="-2" y="1023" type="qcurve" smooth="yes"/>
			<point x="-2" y="1013"/>
			<point x="7" y="989"/>
			<point x="17" y="978" type="qcurve"/>
			<point x="4" y="969"/>
			<point x="-97" y="887"/>
		</contour>
		<contour>
			<point x="54" y="1064" type="qcurve" smooth="yes"/>
			<point x="63" y="1064"/>
			<point x="75" y="1054"/>
			<point x="75" y="1044" type="qcurve" smooth="yes"/>
			<point x="75" y="1033"/>
			<point x="62" y="1014"/>
			<point x="53" y="1006" type="qcurve"/>
			<point x="42" y="1017"/>
			<point x="28" y="1033"/>
			<point x="28" y="1041" type="qcurve" smooth="yes"/>
			<point x="28" y="1052"/>
			<point x="44" y="1064"/>
		</contour>
		<contour>
			<point x="-2" y="958" type="line"/>
			<point x="-2" y="958" type="line"/>
		</contour>
		<contour>
			<point x="0" y="1172" type="line"/>
			<point x="0" y="1172" type="line"/>
		</contour>
		<contour>
			<point x="0" y="926" type="line"/>
			<point x="0" y="926" type="line"/>
		</contour>
	</outline>
</glyph>
<glyph name="KasraNS" format="2">
	<advance width="0"/>
	<unicode hex="0650"/>
	<note>
		KasraNS
  </note>
	<outline>
		<contour>
			<point x="-63" y="-109" type="line" smooth="yes"/>
			<point x="-83" y="-123"/>
			<point x="-112" y="-151"/>
			<point x="-120" y="-179" type="qcurve"/>
			<point x="-112" y="-185" type="line"/>
			<point x="-104" y="-176"/>
			<point x="-77" y="-158"/>
			<point x="-60" y="-148" type="qcurve" smooth="yes"/>
			<point x="79" y="-73" type="line" smooth="yes"/>
			<point x="97" y="-63"/>
			<point x="124" y="-33"/>
			<point x="134" y="-6" type="qcurve"/>
			<point x="125" y="-1" type="line"/>
			<point x="119" y="-6"/>
			<point x="104" y="-15" type="qcurve" smooth="yes"/>
			<point x="76" y="-31" type="line"/>
			<point x="2" y="-71" type="line"/>
			<point x="-35" y="-92" type="line"/>
		</contour>
		<contour>
			<point x="0" y="-81" type="line"/>
			<point x="0" y="-81" type="line"/>
		</contour>
		<contour>
			<point x="0" y="-229" type="line"/>
			<point x="0" y="-229" type="line"/>
		</contour>
		<contour>
			<point x="0" y="-44" type="line"/>
			<point x="0" y="-44" type="line"/>
		</contour>
	</outline>
</glyph>
<glyph name="ShaddaNS" format="2">
	<advance width="0"/>
	<unicode hex="0651"/>
	<note>
		ShaddaNS
  </note>
	<outline>
		<contour>
			<point x="0" y="969" type="line"/>
			<point x="0" y="969" type="line"/>
		</contour>
		<contour>
			<point x="0" y="1090" type="line"/>
			<point x="0" y="1090" type="line"/>
		</contour>
		<contour>
			<point x="0" y="892" type="line"/>
			<point x="0" y="892" type="line"/>
		</contour>
		<contour>
			<point x="-102" y="964" type="line"/>
			<point x="-111" y="947"/>
			<point x="-111" y="923" type="qcurve" smooth="yes"/>
			<point x="-111" y="907"/>
			<point x="-94" y="881"/>
			<point x="-74" y="881" type="qcurve" smooth="yes"/>
			<point x="-51" y="881"/>
			<point x="-19" y="913"/>
			<point x="-6" y="942" type="qcurve"/>
			<point x="-2" y="938"/>
			<point x="12" y="934"/>
			<point x="19" y="934" type="qcurve" smooth="yes"/>
			<point x="58" y="934"/>
			<point x="97" y="998"/>
			<point x="97" y="1043" type="qcurve" smooth="yes"/>
			<point x="97" y="1054" type="line"/>
			<point x="79" y="1051" type="line"/>
			<point x="74" y="1013"/>
			<point x="56" y="985"/>
			<point x="40" y="985" type="qcurve" smooth="yes"/>
			<point x="32" y="985"/>
			<point x="13" y="993"/>
			<point x="8" y="1003" type="qcurve"/>
			<point x="-8" y="1000" type="line"/>
			<point x="-18" y="961"/>
			<point x="-42" y="932"/>
			<point x="-62" y="932" type="qcurve" smooth="yes"/>
			<point x="-73" y="932"/>
			<point x="-86" y="945"/>
			<point x="-89" y="961" type="qcurve"/>
			<point x="-89" y="966" type="line"/>
		</contour>
	</outline>
</glyph>
<glyph name="SukunJazmNS" format="2">
	<advance width="0"/>
	<unicode hex="0652"/>
	<note>
		SukunJazmNS
  </note>
	<outline>
		<contour>
			<point x="125" y="900" type="qcurve"/>
			<point x="134" y="904" type="line"/>
			<point x="131" y="929"/>
			<point x="112" y="970"/>
			<point x="63" y="1009" type="qcurve" smooth="yes"/>
			<point x="31" y="1033" type="line" smooth="yes"/>
			<point x="22" y="1039"/>
			<point x="5" y="1050"/>
			<point x="-1" y="1054" type="qcurve"/>
			<point x="-13" y="1052" type="line"/>
			<point x="-73" y="1000"/>
			<point x="-137" y="919"/>
			<point x="-139" y="881" type="qcurve"/>
			<point x="-129" y="879" type="line"/>
			<point x="-112" y="897"/>
			<point x="-67" y="939"/>
			<point x="-38" y="962" type="qcurve" smooth="yes"/>
			<point x="-5" y="989" type="line"/>
			<point x="55" y="950" type="line"/>
			<point x="92" y="924" type="line" smooth="yes"/>
			<point x="111" y="911"/>
		</contour>
		<contour>
			<point x="0" y="976" type="line"/>
			<point x="0" y="976" type="line"/>
		</contour>
		<contour>
			<point x="0" y="1123" type="line"/>
			<point x="0" y="1123" type="line"/>
		</contour>
		<contour>
			<point x="0" y="868" type="line"/>
			<point x="0" y="868" type="line"/>
		</contour>
	</outline>
</glyph>
<glyph name="MaddaNS" format="2">
	<advance width="0"/>
	<unicode hex="0653"/>
	<note>
		MaddaNS
  </note>
	<outline>
		<contour>
			<point x="-262" y="893" type="qcurve"/>
			<point x="-242" y="884" type="line"/>
			<point x="-224" y="908"/>
			<point x="-200" y="925"/>
			<point x="-183" y="925" type="qcurve" smooth="yes"/>
			<point x="-175" y="925"/>
			<point x="-168" y="925" type="qcurve"/>
			<point x="-154" y="923" type="line"/>
			<point x="-111" y="915" type="line" smooth="yes"/>
			<point x="-79" y="910"/>
			<point x="-29" y="907"/>
			<point x="-11" y="907" type="qcurve" smooth="yes"/>
			<point x="73" y="907"/>
			<point x="223" y="983"/>
			<point x="279" y="1057" type="qcurve"/>
			<point x="266" y="1068" type="line"/>
			<point x="224" y="1033"/>
			<point x="121" y="1009"/>
			<point x="59" y="1009" type="qcurve" smooth="yes"/>
			<point x="43" y="1009"/>
			<point x="-24" y="1013"/>
			<point x="-61" y="1020" type="qcurve" smooth="yes"/>
			<point x="-102" y="1026" type="line" smooth="yes"/>
			<point x="-119" y="1029"/>
			<point x="-128" y="1029" type="qcurve" smooth="yes"/>
			<point x="-159" y="1029"/>
			<point x="-227" y="967"/>
		</contour>
		<contour>
			<point x="0" y="1148" type="line"/>
			<point x="0" y="1148" type="line"/>
		</contour>
		<contour>
			<point x="0" y="980" type="line"/>
			<point x="0" y="980" type="line"/>
		</contour>
	</outline>
</glyph>
<glyph name="HamzaAboveNS" format="2">
	<advance width="0"/>
	<unicode hex="0654"/>
	<note>
		HamzaAboveNS
  </note>
	<outline>
		<contour>
			<point x="-18" y="956" type="line" smooth="yes"/>
			<point x="-32" y="934"/>
			<point x="-49" y="923"/>
			<point x="-58" y="923" type="qcurve" smooth="yes"/>
			<point x="-66" y="923"/>
			<point x="-77" y="936"/>
			<point x="-77" y="948" type="qcurve"/>
			<point x="-94" y="952" type="line"/>
			<point x="-105" y="939"/>
			<point x="-125" y="902"/>
			<point x="-125" y="881" type="qcurve" smooth="yes"/>
			<point x="-125" y="864"/>
			<point x="-105" y="848"/>
			<point x="-90" y="848" type="qcurve" smooth="yes"/>
			<point x="-71" y="848"/>
			<point x="-38" y="876"/>
			<point x="-19" y="905" type="qcurve" smooth="yes"/>
			<point x="15" y="957" type="line" smooth="yes"/>
			<point x="29" y="978"/>
			<point x="46" y="990"/>
			<point x="55" y="990" type="qcurve" smooth="yes"/>
			<point x="63" y="990"/>
			<point x="75" y="977"/>
			<point x="75" y="964" type="qcurve"/>
			<point x="91" y="960" type="line"/>
			<point x="103" y="973"/>
			<point x="122" y="1011"/>
			<point x="122" y="1031" type="qcurve" smooth="yes"/>
			<point x="122" y="1048"/>
			<point x="103" y="1064"/>
			<point x="88" y="1064" type="qcurve" smooth="yes"/>
			<point x="68" y="1064"/>
			<point x="35" y="1036"/>
			<point x="17" y="1008" type="qcurve" smooth="yes"/>
		</contour>
		<contour>
			<point x="0" y="940" type="line"/>
			<point x="0" y="940" type="line"/>
		</contour>
		<contour>
			<point x="0" y="1091" type="line"/>
			<point x="0" y="1091" type="line"/>
		</contour>
		<contour>
			<point x="0" y="838" type="line"/>
			<point x="0" y="838" type="line"/>
		</contour>
		<contour>
			<point x="0" y="986" type="line"/>
			<point x="0" y="986" type="line"/>
		</contour>
		<contour>
			<point x="0" y="964" type="line"/>
			<point x="0" y="964" type="line"/>
		</contour>
		<contour>
			<point x="0" y="856" type="line"/>
			<point x="0" y="856" type="line"/>
		</contour>
		<contour>
			<point x="0" y="1058" type="line"/>
			<point x="0" y="1058" type="line"/>
		</contour>
	</outline>
</glyph>
<glyph name="AlefInferiorNS" format="2">
	<advance width="0"/>
	<unicode hex="0656"/>
	<note>
		AlefInferiorNS
  </note>
	<outline>
		<contour>
			<point x="-17" y="-265" type="qcurve"/>
			<point x="-5" y="-267" type="line"/>
			<point x="10" y="-234"/>
			<point x="28" y="-161"/>
			<point x="30" y="-129" type="qcurve" smooth="yes"/>
			<point x="31" y="-112" type="line" smooth="yes"/>
			<point x="33" y="-68"/>
			<point x="37" y="-21"/>
			<point x="40" y="-11" type="qcurve"/>
			<point x="29" y="-8" type="line"/>
			<point x="10" y="-46"/>
			<point x="-4" y="-89"/>
			<point x="-6" y="-125" type="qcurve" smooth="yes"/>
			<point x="-8" y="-169" type="line" smooth="yes"/>
			<point x="-10" y="-203"/>
			<point x="-15" y="-256"/>
		</contour>
		<contour>
			<point x="-2" y="-194" type="line"/>
			<point x="-2" y="-194" type="line"/>
		</contour>
		<contour>
			<point x="0" y="2" type="line"/>
			<point x="0" y="2" type="line"/>
		</contour>
		<contour>
			<point x="2" y="-108" type="line"/>
			<point x="2" y="-108" type="line"/>
		</contour>
		<contour>
			<point x="1" y="-338" type="line"/>
			<point x="1" y="-338" type="line"/>
		</contour>
	</outline>
</glyph>
<glyph name="UltapeshNS" format="2">
	<advance width="0"/>
	<unicode hex="0657"/>
	<note>
		UltapeshNS
  </note>
	<outline>
		<contour>
			<point x="112" y="1097" type="qcurve"/>
			<point x="107" y="1103" type="line"/>
			<point x="96" y="1098"/>
			<point x="63" y="1081"/>
			<point x="46" y="1072" type="qcurve" smooth="yes"/>
			<point x="-11" y="1040" type="line"/>
			<point x="-45" y="1014" type="line" smooth="yes"/>
			<point x="-76" y="991"/>
			<point x="-112" y="936"/>
			<point x="-112" y="906" type="qcurve" smooth="yes"/>
			<point x="-112" y="889"/>
			<point x="-95" y="862"/>
			<point x="-75" y="862" type="qcurve" smooth="yes"/>
			<point x="-49" y="862"/>
			<point x="-1" y="915"/>
			<point x="-1" y="941" type="qcurve" smooth="yes"/>
			<point x="-1" y="951"/>
			<point x="-11" y="976"/>
			<point x="-20" y="987" type="qcurve"/>
			<point x="-8" y="996"/>
			<point x="93" y="1078"/>
		</contour>
		<contour>
			<point x="-57" y="900" type="qcurve" smooth="yes"/>
			<point x="-67" y="900"/>
			<point x="-78" y="911"/>
			<point x="-78" y="920" type="qcurve" smooth="yes"/>
			<point x="-78" y="932"/>
			<point x="-65" y="950"/>
			<point x="-56" y="958" type="qcurve"/>
			<point x="-45" y="947"/>
			<point x="-32" y="932"/>
			<point x="-32" y="924" type="qcurve" smooth="yes"/>
			<point x="-32" y="912"/>
			<point x="-47" y="900"/>
		</contour>
		<contour>
			<point x="-18" y="958" type="line"/>
			<point x="-18" y="958" type="line"/>
		</contour>
		<contour>
			<point x="0" y="1120" type="line"/>
			<point x="0" y="1120" type="line"/>
		</contour>
		<contour>
			<point x="0" y="865" type="line"/>
			<point x="0" y="865" type="line"/>
		</contour>
	</outline>
</glyph>
<glyph name="NoonGhunnaMarkNS" format="2">
	<advance width="0"/>
	<unicode hex="0658"/>
	<note>
		NoonGhunnaMarkNS
  </note>
	<outline>
		<contour>
			<point x="132" y="1046" type="qcurve"/>
			<point x="109" y="1046" type="line"/>
			<point x="97" y="993"/>
			<point x="33" y="947"/>
			<point x="-12" y="947" type="qcurve" smooth="yes"/>
			<point x="-46" y="947"/>
			<point x="-87" y="976"/>
			<point x="-87" y="1013" type="qcurve" smooth="yes"/>
			<point x="-87" y="1026" type="line" smooth="yes"/>
			<point x="-87" y="1032"/>
			<point x="-85" y="1039" type="qcurve"/>
			<point x="-107" y="1041" type="line"/>
			<point x="-112" y="1023"/>
			<point x="-116" y="996"/>
			<point x="-116" y="982" type="qcurve" smooth="yes"/>
			<point x="-116" y="932"/>
			<point x="-61" y="882"/>
			<point x="-16" y="882" type="qcurve" smooth="yes"/>
			<point x="45" y="882"/>
			<point x="130" y="982"/>
		</contour>
		<contour>
			<point x="0" y="977" type="line"/>
			<point x="0" y="977" type="line"/>
		</contour>
		<contour>
			<point x="0" y="1107" type="line"/>
			<point x="0" y="1107" type="line"/>
		</contour>
	</outline>
</glyph>
<glyph name="ZwarakayNS" format="2">
	<advance width="0"/>
	<unicode hex="0659"/>
	<note>
		ZwarakayNS
  </note>
	<outline>
		<contour>
			<point x="153" y="954" type="line"/>
			<point x="148" y="963" type="line"/>
			<point x="37" y="959" type="line" smooth="yes"/>
			<point x="-77" y="953"/>
			<point x="-127" y="937"/>
			<point x="-152" y="900" type="qcurve"/>
			<point x="-147" y="893" type="line"/>
			<point x="-132" y="896"/>
			<point x="-112" y="897" type="qcurve" smooth="yes"/>
			<point x="-62" y="902" type="line"/>
			<point x="104" y="912" type="line"/>
		</contour>
		<contour>
			<point x="0" y="989" type="line"/>
			<point x="0" y="989" type="line"/>
		</contour>
		<contour>
			<point x="0" y="1032" type="line"/>
			<point x="0" y="1032" type="line"/>
		</contour>
		<contour>
			<point x="0" y="892" type="line"/>
			<point x="0" y="892" type="line"/>
		</contour>
	</outline>
</glyph>
<glyph name="DammaRevNS" format="2">
	<advance width="0"/>
	<unicode hex="065D"/>
	<note>
		DammaRevNS
  </note>
	<outline>
		<contour>
			<point x="125" y="868" type="line"/>
			<point x="105" y="887"/>
			<point x="4" y="969"/>
			<point x="-8" y="978" type="qcurve"/>
			<point x="2" y="989"/>
			<point x="11" y="1013"/>
			<point x="11" y="1023" type="qcurve" smooth="yes"/>
			<point x="11" y="1049"/>
			<point x="-37" y="1102"/>
			<point x="-63" y="1102" type="qcurve" smooth="yes"/>
			<point x="-83" y="1102"/>
			<point x="-100" y="1076"/>
			<point x="-100" y="1058" type="qcurve" smooth="yes"/>
			<point x="-100" y="1025"/>
			<point x="-55" y="963"/>
			<point x="2" y="925" type="qcurve"/>
			<point x="59" y="893" type="line" smooth="yes"/>
			<point x="76" y="883"/>
			<point x="108" y="867"/>
			<point x="120" y="861" type="qcurve"/>
		</contour>
		<contour>
			<point x="-20" y="1041" type="qcurve" smooth="yes"/>
			<point x="-20" y="1033"/>
			<point x="-33" y="1017"/>
			<point x="-44" y="1006" type="qcurve"/>
			<point x="-53" y="1014"/>
			<point x="-66" y="1033"/>
			<point x="-66" y="1044" type="qcurve" smooth="yes"/>
			<point x="-66" y="1054"/>
			<point x="-55" y="1064"/>
			<point x="-45" y="1064" type="qcurve" smooth="yes"/>
			<point x="-35" y="1064"/>
			<point x="-20" y="1052"/>
		</contour>
		<contour>
			<point x="11" y="958" type="line"/>
			<point x="11" y="958" type="line"/>
		</contour>
		<contour>
			<point x="9" y="1172" type="line"/>
			<point x="9" y="1172" type="line"/>
		</contour>
		<contour>
			<point x="9" y="926" type="line"/>
			<point x="9" y="926" type="line"/>
		</contour>
	</outline>
</glyph>
<glyph name="Fatha2dotsNS" format="2">
	<advance width="0"/>
	<unicode hex="065E"/>
	<note>
		Fatha2dotsNS
  </note>
	<outline>
		<contour>
			<point x="-59" y="958" type="line" smooth="yes"/>
			<point x="-80" y="944"/>
			<point x="-109" y="916"/>
			<point x="-116" y="888" type="qcurve"/>
			<point x="-109" y="882" type="line"/>
			<point x="-101" y="891"/>
			<point x="-74" y="909"/>
			<point x="-56" y="918" type="qcurve" smooth="yes"/>
			<point x="83" y="994" type="line" smooth="yes"/>
			<point x="100" y="1004"/>
			<point x="127" y="1034"/>
			<point x="138" y="1061" type="qcurve"/>
			<point x="129" y="1066" type="line"/>
			<point x="122" y="1061"/>
			<point x="107" y="1052" type="qcurve" smooth="yes"/>
			<point x="79" y="1036" type="line"/>
			<point x="5" y="996" type="line"/>
			<point x="-32" y="975" type="line"/>
		</contour>
		<contour>
			<point x="-85" y="1055" type="qcurve"/>
			<point x="-85" y="1051" type="line"/>
			<point x="-77" y="1045"/>
			<point x="-54" y="1024"/>
			<point x="-48" y="1018" type="qcurve"/>
			<point x="-44" y="1018" type="line"/>
			<point x="-30" y="1027"/>
			<point x="-7" y="1050"/>
			<point x="-7" y="1061" type="qcurve" smooth="yes"/>
			<point x="-7" y="1070"/>
			<point x="-24" y="1087"/>
			<point x="-42" y="1099" type="qcurve"/>
			<point x="-46" y="1099" type="line"/>
			<point x="-50" y="1095"/>
			<point x="-77" y="1067"/>
		</contour>
		<contour>
			<point x="11" y="881" type="qcurve"/>
			<point x="11" y="877" type="line"/>
			<point x="20" y="871"/>
			<point x="43" y="850"/>
			<point x="48" y="844" type="qcurve"/>
			<point x="53" y="844" type="line"/>
			<point x="67" y="854"/>
			<point x="90" y="876"/>
			<point x="90" y="887" type="qcurve" smooth="yes"/>
			<point x="90" y="896"/>
			<point x="72" y="913"/>
			<point x="55" y="925" type="qcurve"/>
			<point x="51" y="925" type="line"/>
			<point x="46" y="921"/>
			<point x="20" y="893"/>
		</contour>
		<contour>
			<point x="0" y="940" type="line"/>
			<point x="0" y="940" type="line"/>
		</contour>
		<contour>
			<point x="0" y="1172" type="line"/>
			<point x="0" y="1172" type="line"/>
		</contour>
		<contour>
			<point x="0" y="844" type="line"/>
			<point x="0" y="844" type="line"/>
		</contour>
	</outline>
</glyph>
<glyph name="WavyHamzaBelowNS" format="2">
	<advance width="0"/>
	<unicode hex="065F"/>
	<note>
		WavyHamzaBelowNS
  </note>
	<outline>
		<contour>
			<point x="-50" y="-233" type="qcurve"/>
			<point x="-51" y="-236" type="line"/>
			<point x="-64" y="-236" type="line" smooth="yes"/>
			<point x="-111" y="-236"/>
			<point x="-159" y="-274"/>
			<point x="-159" y="-317" type="qcurve"/>
			<point x="-158" y="-325"/>
			<point x="-158" y="-331" type="qcurve"/>
			<point x="-147" y="-331" type="line"/>
			<point x="-134" y="-283"/>
			<point x="2" y="-279"/>
			<point x="117" y="-222"/>
			<point x="138" y="-163" type="qcurve"/>
			<point x="129" y="-157" type="line"/>
			<point x="112" y="-174"/>
			<point x="68" y="-200"/>
			<point x="52" y="-200" type="qcurve" smooth="yes"/>
			<point x="23" y="-200"/>
			<point x="-11" y="-176"/>
			<point x="-11" y="-158" type="qcurve" smooth="yes"/>
			<point x="-11" y="-141"/>
			<point x="23" y="-118"/>
			<point x="42" y="-118" type="qcurve" smooth="yes"/>
			<point x="62" y="-118"/>
			<point x="76" y="-132" type="qcurve"/>
			<point x="80" y="-132" type="line"/>
			<point x="86" y="-129"/>
			<point x="96" y="-114"/>
			<point x="96" y="-104" type="qcurve" smooth="yes"/>
			<point x="96" y="-90"/>
			<point x="74" y="-77"/>
			<point x="59" y="-77" type="qcurve" smooth="yes"/>
			<point x="23" y="-77"/>
			<point x="-65" y="-165"/>
			<point x="-65" y="-201" type="qcurve" smooth="yes"/>
			<point x="-65" y="-214"/>
			<point x="-57" y="-228"/>
		</contour>
		<contour>
			<point x="0" y="-12" type="line"/>
			<point x="0" y="-12" type="line"/>
		</contour>
		<contour>
			<point x="0" y="-230" type="line"/>
			<point x="0" y="-230" type="line"/>
		</contour>
		<contour>
			<point x="0" y="-401" type="line"/>
			<point x="0" y="-401" type="line"/>
		</contour>
		<contour>
			<point x="0" y="-178" type="line"/>
			<point x="0" y="-178" type="line"/>
		</contour>
		<contour>
			<point x="0" y="-83" type="line"/>
			<point x="0" y="-83" type="line"/>
		</contour>
		<contour>
			<point x="0" y="-304" type="line"/>
			<point x="0" y="-304" type="line"/>
		</contour>
	</outline>
</glyph>
<glyph name="ZeroArabic" format="2">
	<advance width="409"/>
	<unicode hex="0660"/>
	<note>
		ZeroArabic
  </note>
	<outline>
		<contour>
			<point x="104" y="277" type="line"/>
			<point x="165" y="229"/>
			<point x="193" y="196" type="qcurve"/>
			<point x="203" y="196" type="line"/>
			<point x="292" y="262"/>
			<point x="292" y="298" type="qcurve" smooth="yes"/>
			<point x="292" y="321"/>
			<point x="250" y="363"/>
			<point x="208" y="389" type="qcurve"/>
			<point x="199" y="389" type="line"/>
			<point x="191" y="385"/>
			<point x="123" y="314"/>
			<point x="104" y="287" type="qcurve"/>
		</contour>
	</outline>
</glyph>
<glyph name="OneArabic" format="2">
	<advance width="567"/>
	<unicode hex="0661"/>
	<note>
		OneArabic
  </note>
	<outline>
		<contour>
			<point x="260" y="2" type="qcurve"/>
			<point x="280" y="-2" type="line"/>
			<point x="309" y="61"/>
			<point x="328" y="180"/>
			<point x="328" y="324" type="qcurve" smooth="yes"/>
			<point x="328" y="408"/>
			<point x="304" y="638"/>
			<point x="293" y="670" type="qcurve"/>
			<point x="282" y="670" type="line"/>
			<point x="269" y="640" type="line" smooth="yes"/>
			<point x="237" y="569"/>
			<point x="229" y="536" type="qcurve"/>
			<point x="240" y="453" type="line"/>
			<point x="259" y="339"/>
			<point x="266" y="147" type="qcurve" smooth="yes"/>
			<point x="266" y="122" type="line" smooth="yes"/>
			<point x="266" y="36"/>
		</contour>
	</outline>
</glyph>
<glyph name="TwoArabic" format="2">
	<advance width="567"/>
	<unicode hex="0662"/>
	<note>
		TwoArabic
  </note>
	<outline>
		<contour>
			<point x="154" y="2" type="qcurve"/>
			<point x="175" y="-2" type="line"/>
			<point x="204" y="66"/>
			<point x="222" y="177"/>
			<point x="222" y="324" type="qcurve" smooth="yes"/>
			<point x="222" y="358"/>
			<point x="215" y="424" type="qcurve"/>
			<point x="240" y="417"/>
			<point x="274" y="417" type="qcurve" smooth="yes"/>
			<point x="373" y="417"/>
			<point x="473" y="524"/>
			<point x="494" y="666" type="qcurve"/>
			<point x="472" y="670" type="line"/>
			<point x="451" y="604"/>
			<point x="375" y="542"/>
			<point x="304" y="542" type="qcurve" smooth="yes"/>
			<point x="264" y="542"/>
			<point x="202" y="576"/>
			<point x="191" y="604" type="qcurve"/>
			<point x="189" y="622"/>
			<point x="182" y="653"/>
			<point x="178" y="670" type="qcurve"/>
			<point x="166" y="670" type="line"/>
			<point x="156" y="647"/>
			<point x="123" y="562"/>
			<point x="116" y="536" type="qcurve"/>
			<point x="130" y="459" type="line"/>
			<point x="137" y="427"/>
			<point x="154" y="300"/>
			<point x="160" y="147" type="qcurve"/>
			<point x="160" y="122" type="line" smooth="yes"/>
			<point x="160" y="42"/>
		</contour>
	</outline>
</glyph>
<glyph name="ThreeArabic" format="2">
	<advance width="567"/>
	<unicode hex="0663"/>
	<note>
		ThreeArabic
  </note>
	<outline>
		<contour>
			<point x="100" y="2" type="qcurve"/>
			<point x="121" y="-2" type="line"/>
			<point x="150" y="65"/>
			<point x="168" y="178"/>
			<point x="168" y="324" type="qcurve" smooth="yes"/>
			<point x="167" y="348"/>
			<point x="165" y="395"/>
			<point x="163" y="418" type="qcurve"/>
			<point x="175" y="417"/>
			<point x="187" y="417" type="qcurve" smooth="yes"/>
			<point x="248" y="417"/>
			<point x="286" y="451" type="qcurve"/>
			<point x="318" y="425"/>
			<point x="363" y="425" type="qcurve" smooth="yes"/>
			<point x="436" y="425"/>
			<point x="534" y="544"/>
			<point x="546" y="668" type="qcurve"/>
			<point x="524" y="670" type="line"/>
			<point x="507" y="606"/>
			<point x="456" y="542"/>
			<point x="409" y="542" type="qcurve" smooth="yes"/>
			<point x="361" y="542"/>
			<point x="344" y="570" type="qcurve"/>
			<point x="353" y="606"/>
			<point x="358" y="667" type="qcurve"/>
			<point x="336" y="670" type="line"/>
			<point x="318" y="600"/>
			<point x="267" y="542"/>
			<point x="214" y="542" type="qcurve" smooth="yes"/>
			<point x="158" y="542"/>
			<point x="141" y="585" type="qcurve"/>
			<point x="132" y="644"/>
			<point x="123" y="670" type="qcurve"/>
			<point x="112" y="670" type="line"/>
			<point x="102" y="647"/>
			<point x="69" y="562"/>
			<point x="63" y="536" type="qcurve"/>
			<point x="77" y="459" type="line"/>
			<point x="97" y="381"/>
			<point x="106" y="147" type="qcurve"/>
			<point x="106" y="122" type="line" smooth="yes"/>
			<point x="106" y="42"/>
		</contour>
	</outline>
</glyph>
<glyph name="FourArabic" format="2">
	<advance width="565"/>
	<unicode hex="0664"/>
	<note>
		FourArabic
  </note>
	<outline>
		<contour>
			<point x="476" y="91" type="qcurve"/>
			<point x="472" y="99" type="line"/>
			<point x="403" y="99"/>
			<point x="253" y="115"/>
			<point x="205" y="142"/>
			<point x="205" y="171" type="qcurve" smooth="yes"/>
			<point x="205" y="214"/>
			<point x="310" y="309" type="qcurve" smooth="yes"/>
			<point x="352" y="346"/>
			<point x="352" y="375" type="qcurve" smooth="yes"/>
			<point x="352" y="396"/>
			<point x="306" y="413" type="qcurve" smooth="yes"/>
			<point x="213" y="446"/>
			<point x="178" y="471"/>
			<point x="178" y="483" type="qcurve" smooth="yes"/>
			<point x="178" y="525"/>
			<point x="314" y="581" type="qcurve"/>
			<point x="337" y="607"/>
			<point x="377" y="670"/>
			<point x="383" y="687" type="qcurve"/>
			<point x="375" y="691" type="line"/>
			<point x="280" y="657"/>
			<point x="93" y="487"/>
			<point x="93" y="421" type="qcurve" smooth="yes"/>
			<point x="93" y="384"/>
			<point x="148" y="330"/>
			<point x="240" y="300" type="qcurve"/>
			<point x="175" y="247"/>
			<point x="104" y="144"/>
			<point x="104" y="92" type="qcurve" smooth="yes"/>
			<point x="104" y="0"/>
			<point x="271" y="0" type="qcurve" smooth="yes"/>
			<point x="369" y="0"/>
		</contour>
	</outline>
</glyph>
<glyph name="FiveArabic" format="2">
	<advance width="567"/>
	<unicode hex="0665"/>
	<note>
		FiveArabic
  </note>
	<outline>
		<contour>
			<point x="307" y="594" type="qcurve" smooth="yes"/>
			<point x="225" y="594"/>
			<point x="79" y="291"/>
			<point x="79" y="178" type="qcurve" smooth="yes"/>
			<point x="79" y="106"/>
			<point x="166" y="24"/>
			<point x="244" y="24" type="qcurve" smooth="yes"/>
			<point x="486" y="24"/>
			<point x="486" y="326" type="qcurve" smooth="yes"/>
			<point x="486" y="398"/>
			<point x="436" y="521"/>
			<point x="351" y="594"/>
		</contour>
		<contour>
			<point x="432" y="255" type="qcurve" smooth="yes"/>
			<point x="432" y="208"/>
			<point x="349" y="156"/>
			<point x="271" y="156" type="qcurve" smooth="yes"/>
			<point x="211" y="156"/>
			<point x="143" y="203"/>
			<point x="143" y="251" type="qcurve" smooth="yes"/>
			<point x="143" y="287"/>
			<point x="189" y="402"/>
			<point x="246" y="461"/>
			<point x="276" y="461" type="qcurve" smooth="yes"/>
			<point x="309" y="461"/>
			<point x="381" y="395"/>
			<point x="432" y="294"/>
		</contour>
	</outline>
</glyph>
<glyph name="SixArabic" format="2">
	<advance width="567"/>
	<unicode hex="0666"/>
	<note>
		SixArabic
  </note>
	<outline>
		<contour>
			<point x="417" y="652" type="qcurve"/>
			<point x="396" y="657" type="line"/>
			<point x="374" y="631"/>
			<point x="292" y="603"/>
			<point x="247" y="603" type="qcurve" smooth="yes"/>
			<point x="127" y="603"/>
			<point x="72" y="663" type="qcurve"/>
			<point x="63" y="661" type="line"/>
			<point x="46" y="613"/>
			<point x="46" y="568" type="qcurve" smooth="yes"/>
			<point x="46" y="544"/>
			<point x="71" y="517"/>
			<point x="122" y="494"/>
			<point x="192" y="482"/>
			<point x="227" y="482" type="qcurve" smooth="yes"/>
			<point x="257" y="482"/>
			<point x="335" y="500"/>
			<point x="364" y="520" type="qcurve"/>
			<point x="353" y="433"/>
			<point x="353" y="282" type="qcurve" smooth="yes"/>
			<point x="353" y="219"/>
			<point x="372" y="42"/>
			<point x="385" y="0" type="qcurve"/>
			<point x="396" y="-1" type="line"/>
			<point x="426" y="72"/>
			<point x="445" y="129" type="qcurve"/>
			<point x="443" y="149"/>
			<point x="437" y="191"/>
			<point x="433" y="213" type="qcurve" smooth="yes"/>
			<point x="421" y="292"/>
			<point x="413" y="424"/>
			<point x="413" y="538" type="qcurve" smooth="yes"/>
			<point x="413" y="629"/>
		</contour>
	</outline>
</glyph>
<glyph name="SevenArabic" format="2">
	<advance width="567"/>
	<unicode hex="0667"/>
	<note>
		SevenArabic
  </note>
	<outline>
		<contour>
			<point x="28" y="543" type="qcurve"/>
			<point x="100" y="386"/>
			<point x="209" y="93" type="qcurve" smooth="yes"/>
			<point x="218" y="69"/>
			<point x="235" y="23"/>
			<point x="246" y="0" type="qcurve"/>
			<point x="266" y="0" type="line"/>
			<point x="279" y="16"/>
			<point x="346" y="180" type="qcurve" smooth="yes"/>
			<point x="423" y="368"/>
			<point x="523" y="580" type="qcurve"/>
			<point x="523" y="585"/>
			<point x="503" y="642"/>
			<point x="490" y="670" type="qcurve"/>
			<point x="481" y="670" type="line"/>
			<point x="333" y="301"/>
			<point x="290" y="177" type="qcurve"/>
			<point x="284" y="177" type="line"/>
			<point x="267" y="244"/>
			<point x="141" y="587"/>
			<point x="99" y="670" type="qcurve"/>
			<point x="90" y="670" type="line"/>
			<point x="74" y="645"/>
			<point x="34" y="565"/>
		</contour>
	</outline>
</glyph>
<glyph name="EightArabic" format="2">
	<advance width="567"/>
	<unicode hex="0668"/>
	<note>
		EightArabic
  </note>
	<outline>
		<contour>
			<point x="523" y="127" type="qcurve"/>
			<point x="462" y="257"/>
			<point x="342" y="578" type="qcurve"/>
			<point x="334" y="601"/>
			<point x="316" y="648"/>
			<point x="305" y="670" type="qcurve"/>
			<point x="285" y="670" type="line"/>
			<point x="271" y="655"/>
			<point x="205" y="490" type="qcurve" smooth="yes"/>
			<point x="143" y="340"/>
			<point x="68" y="176" type="qcurve" smooth="yes"/>
			<point x="28" y="90" type="line"/>
			<point x="28" y="84"/>
			<point x="53" y="15"/>
			<point x="61" y="0" type="qcurve"/>
			<point x="69" y="0" type="line"/>
			<point x="91" y="52"/>
			<point x="232" y="412"/>
			<point x="261" y="494" type="qcurve"/>
			<point x="267" y="494" type="line"/>
			<point x="284" y="428"/>
			<point x="411" y="82"/>
			<point x="452" y="0" type="qcurve"/>
			<point x="460" y="0" type="line"/>
			<point x="479" y="30"/>
			<point x="517" y="106"/>
		</contour>
	</outline>
</glyph>
<glyph name="NineArabic" format="2">
	<advance width="567"/>
	<unicode hex="0669"/>
	<note>
		NineArabic
  </note>
	<outline>
		<contour>
			<point x="338" y="339" type="qcurve"/>
			<point x="348" y="59"/>
			<point x="367" y="0" type="qcurve"/>
			<point x="379" y="-1" type="line"/>
			<point x="410" y="72"/>
			<point x="427" y="129" type="qcurve"/>
			<point x="424" y="150"/>
			<point x="419" y="191"/>
			<point x="416" y="213" type="qcurve" smooth="yes"/>
			<point x="402" y="296"/>
			<point x="400" y="376" type="qcurve" smooth="yes"/>
			<point x="394" y="509"/>
			<point x="367" y="619"/>
			<point x="315" y="670"/>
			<point x="270" y="670" type="qcurve" smooth="yes"/>
			<point x="222" y="670"/>
			<point x="143" y="597"/>
			<point x="96" y="471"/>
			<point x="96" y="412" type="qcurve" smooth="yes"/>
			<point x="96" y="349"/>
			<point x="168" y="287"/>
			<point x="227" y="287" type="qcurve" smooth="yes"/>
			<point x="299" y="287"/>
		</contour>
		<contour>
			<point x="336" y="418" type="qcurve"/>
			<point x="305" y="402"/>
			<point x="252" y="402" type="qcurve" smooth="yes"/>
			<point x="207" y="402"/>
			<point x="154" y="437"/>
			<point x="154" y="471" type="qcurve" smooth="yes"/>
			<point x="154" y="502"/>
			<point x="208" y="560"/>
			<point x="243" y="560" type="qcurve" smooth="yes"/>
			<point x="287" y="560"/>
			<point x="336" y="490"/>
		</contour>
	</outline>
</glyph>
<glyph name="DecimalPointArabic" format="2">
	<advance width="285"/>
	<unicode hex="066B"/>
	<note>
		DecimalPointArabic
  </note>
	<outline>
		<contour>
			<point x="144" y="190" type="line"/>
			<point x="137" y="187"/>
			<point x="76" y="121"/>
			<point x="54" y="91" type="qcurve"/>
			<point x="54" y="83" type="line"/>
			<point x="114" y="40"/>
			<point x="146" y="-2"/>
			<point x="146" y="-23" type="qcurve" smooth="yes"/>
			<point x="146" y="-49"/>
			<point x="117" y="-104"/>
			<point x="99" y="-133" type="qcurve"/>
			<point x="117" y="-146" type="line"/>
			<point x="173" y="-85"/>
			<point x="232" y="28"/>
			<point x="232" y="73" type="qcurve" smooth="yes"/>
			<point x="232" y="142"/>
			<point x="153" y="190" type="qcurve"/>
		</contour>
	</outline>
</glyph>
<glyph name="ThousandMarkerArabic" format="2">
	<advance width="285"/>
	<unicode hex="066C"/>
	<note>
		ThousandMarkerArabic
  </note>
	<outline>
		<contour>
			<point x="133" y="751" type="line"/>
			<point x="125" y="747"/>
			<point x="73" y="692"/>
			<point x="51" y="663" type="qcurve"/>
			<point x="51" y="655" type="line"/>
			<point x="101" y="618"/>
			<point x="134" y="580"/>
			<point x="134" y="560" type="qcurve" smooth="yes"/>
			<point x="134" y="525"/>
			<point x="91" y="461" type="qcurve"/>
			<point x="108" y="449" type="line"/>
			<point x="149" y="491"/>
			<point x="212" y="601"/>
			<point x="212" y="646" type="qcurve" smooth="yes"/>
			<point x="212" y="708"/>
			<point x="141" y="751" type="qcurve"/>
		</contour>
	</outline>
</glyph>
<glyph name="AsteriskArabic" format="2">
	<advance width="525"/>
	<unicode hex="066D"/>
	<note>
		AsteriskArabic
  </note>
	<outline>
		<contour>
			<point x="271" y="336" type="qcurve" smooth="yes"/>
			<point x="271" y="394"/>
			<point x="250" y="394" type="qcurve" smooth="yes"/>
			<point x="235" y="394"/>
			<point x="235" y="365" type="qcurve" smooth="yes"/>
			<point x="235" y="327"/>
			<point x="252" y="276"/>
			<point x="259" y="276" type="qcurve" smooth="yes"/>
			<point x="271" y="276"/>
		</contour>
		<contour>
			<point x="369" y="345" type="qcurve" smooth="yes"/>
			<point x="369" y="359"/>
			<point x="357" y="359" type="qcurve" smooth="yes"/>
			<point x="340" y="359"/>
			<point x="288" y="289"/>
			<point x="288" y="271" type="qcurve" smooth="yes"/>
			<point x="288" y="266"/>
			<point x="292" y="266" type="qcurve" smooth="yes"/>
			<point x="303" y="267"/>
			<point x="369" y="329"/>
		</contour>
		<contour>
			<point x="154" y="344" type="qcurve" smooth="yes"/>
			<point x="140" y="344"/>
			<point x="140" y="331" type="qcurve" smooth="yes"/>
			<point x="140" y="314"/>
			<point x="210" y="261"/>
			<point x="229" y="261" type="qcurve" smooth="yes"/>
			<point x="233" y="261"/>
			<point x="233" y="266" type="qcurve" smooth="yes"/>
			<point x="233" y="277"/>
			<point x="169" y="344"/>
		</contour>
		<contour>
			<point x="363" y="228" type="qcurve" smooth="yes"/>
			<point x="419" y="228"/>
			<point x="419" y="250" type="qcurve" smooth="yes"/>
			<point x="419" y="264"/>
			<point x="388" y="264" type="qcurve" smooth="yes"/>
			<point x="355" y="263"/>
			<point x="302" y="247"/>
			<point x="302" y="240" type="qcurve" smooth="yes"/>
			<point x="302" y="228"/>
		</contour>
		<contour>
			<point x="163" y="245" type="qcurve" smooth="yes"/>
			<point x="105" y="245"/>
			<point x="105" y="224" type="qcurve" smooth="yes"/>
			<point x="105" y="209"/>
			<point x="136" y="209" type="qcurve" smooth="yes"/>
			<point x="173" y="210"/>
			<point x="222" y="226"/>
			<point x="222" y="234" type="qcurve" smooth="yes"/>
			<point x="222" y="245"/>
		</contour>
		<contour>
			<point x="372" y="130" type="qcurve" smooth="yes"/>
			<point x="386" y="130"/>
			<point x="386" y="143" type="qcurve" smooth="yes"/>
			<point x="386" y="159"/>
			<point x="314" y="212"/>
			<point x="297" y="212" type="qcurve" smooth="yes"/>
			<point x="292" y="212"/>
			<point x="292" y="208" type="qcurve" smooth="yes"/>
			<point x="292" y="196"/>
			<point x="354" y="130"/>
		</contour>
		<contour>
			<point x="156" y="127" type="qcurve" smooth="yes"/>
			<point x="156" y="113"/>
			<point x="169" y="113" type="qcurve" smooth="yes"/>
			<point x="185" y="114"/>
			<point x="237" y="185"/>
			<point x="237" y="202" type="qcurve" smooth="yes"/>
			<point x="237" y="208"/>
			<point x="234" y="208" type="qcurve" smooth="yes"/>
			<point x="223" y="208"/>
			<point x="156" y="144"/>
		</contour>
		<contour>
			<point x="254" y="136" type="qcurve" smooth="yes"/>
			<point x="254" y="80"/>
			<point x="275" y="80" type="qcurve" smooth="yes"/>
			<point x="290" y="80"/>
			<point x="290" y="109" type="qcurve" smooth="yes"/>
			<point x="290" y="143"/>
			<point x="272" y="197"/>
			<point x="266" y="197" type="qcurve" smooth="yes"/>
			<point x="254" y="197"/>
		</contour>
	</outline>
</glyph>
<glyph name="AlefSuperiorNS" format="2">
	<advance width="0"/>
	<unicode hex="0670"/>
	<note>
		AlefSuperiorNS
  </note>
	<outline>
		<contour>
			<point x="-17" y="854" type="qcurve"/>
			<point x="-5" y="851" type="line"/>
			<point x="10" y="884"/>
			<point x="28" y="957"/>
			<point x="30" y="989" type="qcurve" smooth="yes"/>
			<point x="31" y="1006" type="line" smooth="yes"/>
			<point x="33" y="1050"/>
			<point x="37" y="1097"/>
			<point x="40" y="1106" type="qcurve"/>
			<point x="29" y="1110" type="line"/>
			<point x="10" y="1072"/>
			<point x="-4" y="1029"/>
			<point x="-6" y="992" type="qcurve" smooth="yes"/>
			<point x="-8" y="948" type="line" smooth="yes"/>
			<point x="-10" y="915"/>
			<point x="-15" y="862"/>
		</contour>
		<contour>
			<point x="0" y="950" type="line"/>
			<point x="0" y="950" type="line"/>
		</contour>
		<contour>
			<point x="0" y="1181" type="line"/>
			<point x="0" y="1181" type="line"/>
		</contour>
	</outline>
</glyph>
<glyph name="Gaf" format="2">
	<advance width="1159"/>
	<unicode hex="06AF"/>
	<note>
		Gaf
  </note>
	<outline>
		<contour>
			<point x="1387" y="1299" type="line"/>
			<point x="1332" y="1242" type="line"/>
			<point x="1020" y="965"/>
			<point x="924" y="863"/>
			<point x="874" y="759"/>
			<point x="848" y="660"/>
			<point x="845" y="604" type="qcurve"/>
			<point x="837" y="353" type="line" smooth="yes"/>
			<point x="835" y="317"/>
			<point x="816" y="279"/>
			<point x="787" y="257" type="qcurve" smooth="yes"/>
			<point x="639" y="149"/>
			<point x="347" y="149" type="qcurve" smooth="yes"/>
			<point x="205" y="149"/>
			<point x="112" y="202"/>
			<point x="112" y="269" type="qcurve" smooth="yes"/>
			<point x="112" y="284"/>
			<point x="113" y="301" type="qcurve"/>
			<point x="83" y="306" type="line"/>
			<point x="58" y="219"/>
			<point x="58" y="160" type="qcurve" smooth="yes"/>
			<point x="58" y="94"/>
			<point x="112" y="18"/>
			<point x="213" y="-18"/>
			<point x="315" y="-18" type="qcurve" smooth="yes"/>
			<point x="439" y="-18"/>
			<point x="659" y="38"/>
			<point x="804" y="142"/>
			<point x="896" y="347"/>
			<point x="903" y="456" type="qcurve" smooth="yes"/>
			<point x="919" y="721" type="line"/>
			<point x="924" y="763"/>
			<point x="927" y="771" type="qcurve" smooth="yes"/>
			<point x="936" y="796"/>
			<point x="971" y="832" type="qcurve" smooth="yes"/>
			<point x="1057" y="917"/>
			<point x="1170" y="1013" type="qcurve" smooth="yes"/>
			<point x="1297" y="1121"/>
			<point x="1365" y="1202" type="qcurve"/>
			<point x="1391" y="1269"/>
			<point x="1396" y="1294" type="qcurve"/>
		</contour>
		<contour>
			<point x="481" y="1051" type="line"/>
			<point x="481" y="1051" type="line"/>
		</contour>
		<contour>
			<point x="471" y="-266" type="line"/>
			<point x="471" y="-266" type="line"/>
		</contour>
		<contour>
			<point x="481" y="554" type="line"/>
			<point x="481" y="554" type="line"/>
		</contour>
		<contour>
			<point x="973" y="1007" type="qcurve"/>
			<point x="990" y="998" type="line"/>
			<point x="1012" y="1026"/>
			<point x="1192" y="1181" type="qcurve" smooth="yes"/>
			<point x="1306" y="1281"/>
			<point x="1338" y="1326" type="qcurve"/>
			<point x="1347" y="1347"/>
			<point x="1357" y="1387" type="qcurve"/>
			<point x="1348" y="1391" type="line"/>
			<point x="1321" y="1365"/>
			<point x="1268" y="1310"/>
			<point x="1051" y="1113"/>
			<point x="1003" y="1062"/>
			<point x="980" y="1026"/>
		</contour>
	</outline>
</glyph>
<glyph name="PeriodUrdu" format="2">
	<advance width="663"/>
	<unicode hex="06D4"/>
	<note>
		PeriodUrdu
  </note>
	<outline>
		<contour>
			<point x="63" y="69" type="line"/>
			<point x="95" y="81"/>
			<point x="287" y="99" type="qcurve" smooth="yes"/>
			<point x="464" y="116"/>
			<point x="508" y="126" type="qcurve" smooth="yes"/>
			<point x="539" y="134"/>
			<point x="593" y="196"/>
			<point x="604" y="243" type="qcurve"/>
			<point x="600" y="250" type="line"/>
			<point x="562" y="239"/>
			<point x="525" y="235" type="qcurve" smooth="yes"/>
			<point x="490" y="230"/>
			<point x="422" y="223"/>
			<point x="387" y="221" type="qcurve" smooth="yes"/>
			<point x="200" y="204"/>
			<point x="151" y="182" type="qcurve" smooth="yes"/>
			<point x="83" y="150"/>
			<point x="58" y="77" type="qcurve"/>
		</contour>
	</outline>
</glyph>
<glyph name="AyahEnd" format="2">
	<advance width="1724"/>
	<unicode hex="06DD"/>
	<note>
		AyahEnd
  </note>
	<outline>
		<contour>
			<point x="1161" y="1139" type="qcurve"/>
			<point x="1158" y="1160"/>
			<point x="1091" y="1216"/>
			<point x="1044" y="1244" type="qcurve"/>
			<point x="1067" y="1248"/>
			<point x="1089" y="1272"/>
			<point x="1089" y="1290" type="qcurve" smooth="yes"/>
			<point x="1089" y="1313"/>
			<point x="1053" y="1342"/>
			<point x="1029" y="1342" type="qcurve" smooth="yes"/>
			<point x="1022" y="1342"/>
			<point x="1008" y="1340"/>
			<point x="1001" y="1337" type="qcurve"/>
			<point x="1004" y="1343"/>
			<point x="1009" y="1360"/>
			<point x="1009" y="1370" type="qcurve" smooth="yes"/>
			<point x="1009" y="1400"/>
			<point x="968" y="1444"/>
			<point x="934" y="1444" type="qcurve"/>
			<point x="931" y="1498"/>
			<point x="889" y="1563"/>
			<point x="861" y="1563" type="qcurve" smooth="yes"/>
			<point x="833" y="1563"/>
			<point x="793" y="1496"/>
			<point x="789" y="1444" type="qcurve"/>
			<point x="756" y="1444"/>
			<point x="714" y="1400"/>
			<point x="714" y="1370" type="qcurve" smooth="yes"/>
			<point x="714" y="1360"/>
			<point x="720" y="1343"/>
			<point x="723" y="1337" type="qcurve"/>
			<point x="715" y="1340"/>
			<point x="701" y="1342"/>
			<point x="694" y="1342" type="qcurve" smooth="yes"/>
			<point x="670" y="1342"/>
			<point x="635" y="1313"/>
			<point x="635" y="1290" type="qcurve" smooth="yes"/>
			<point x="635" y="1272"/>
			<point x="657" y="1248"/>
			<point x="679" y="1244" type="qcurve"/>
			<point x="622" y="1210"/>
			<point x="566" y="1158"/>
			<point x="563" y="1140" type="qcurve"/>
			<point x="412" y="1057"/>
			<point x="246" y="771"/>
			<point x="246" y="597" type="qcurve" smooth="yes"/>
			<point x="246" y="428"/>
			<point x="407" y="147"/>
			<point x="693" y="-13"/>
			<point x="863" y="-13" type="qcurve" smooth="yes"/>
			<point x="1033" y="-13"/>
			<point x="1316" y="148"/>
			<point x="1478" y="431"/>
			<point x="1478" y="601" type="qcurve" smooth="yes"/>
			<point x="1478" y="768"/>
			<point x="1308" y="1059"/>
		</contour>
		<contour>
			<point x="862" y="11" type="qcurve" smooth="yes"/>
			<point x="698" y="11"/>
			<point x="424" y="165"/>
			<point x="271" y="433"/>
			<point x="271" y="597" type="qcurve" smooth="yes"/>
			<point x="271" y="766"/>
			<point x="429" y="1038"/>
			<point x="705" y="1193"/>
			<point x="858" y="1193" type="qcurve" smooth="yes"/>
			<point x="1019" y="1193"/>
			<point x="1294" y="1035"/>
			<point x="1453" y="761"/>
			<point x="1453" y="604" type="qcurve" smooth="yes"/>
			<point x="1453" y="439"/>
			<point x="1298" y="167"/>
			<point x="1026" y="11"/>
		</contour>
		<contour>
			<point x="861" y="1117" type="qcurve" smooth="yes"/>
			<point x="717" y="1117"/>
			<point x="479" y="982"/>
			<point x="345" y="744"/>
			<point x="345" y="598" type="qcurve" smooth="yes"/>
			<point x="345" y="455"/>
			<point x="480" y="222"/>
			<point x="720" y="86"/>
			<point x="862" y="86" type="qcurve" smooth="yes"/>
			<point x="1004" y="86"/>
			<point x="1245" y="222"/>
			<point x="1379" y="459"/>
			<point x="1379" y="602" type="qcurve" smooth="yes"/>
			<point x="1379" y="741"/>
			<point x="1240" y="979"/>
			<point x="1001" y="1117"/>
		</contour>
		<contour>
			<point x="862" y="111" type="qcurve" smooth="yes"/>
			<point x="729" y="111"/>
			<point x="505" y="239"/>
			<point x="379" y="462"/>
			<point x="379" y="598" type="qcurve" smooth="yes"/>
			<point x="379" y="740"/>
			<point x="508" y="968"/>
			<point x="730" y="1093"/>
			<point x="861" y="1093" type="qcurve" smooth="yes"/>
			<point x="991" y="1093"/>
			<point x="1215" y="960"/>
			<point x="1347" y="733"/>
			<point x="1347" y="602" type="qcurve" smooth="yes"/>
			<point x="1347" y="465"/>
			<point x="1220" y="240"/>
			<point x="996" y="111"/>
		</contour>
		<contour>
			<point x="804" y="1216" type="qcurve"/>
			<point x="798" y="1245"/>
			<point x="776" y="1291"/>
			<point x="763" y="1310" type="qcurve" smooth="yes"/>
			<point x="741" y="1339" type="line" smooth="yes"/>
			<point x="731" y="1352"/>
			<point x="731" y="1370" type="qcurve" smooth="yes"/>
			<point x="731" y="1391"/>
			<point x="759" y="1426"/>
			<point x="787" y="1426" type="qcurve" smooth="yes"/>
			<point x="819" y="1426"/>
			<point x="849" y="1352"/>
			<point x="854" y="1242" type="qcurve"/>
			<point x="847" y="1228"/>
			<point x="821" y="1218"/>
		</contour>
		<contour>
			<point x="600" y="1157" type="qcurve"/>
			<point x="597" y="1158" type="line"/>
			<point x="611" y="1175"/>
			<point x="677" y="1224"/>
			<point x="715" y="1247"/>
			<point x="721" y="1264" type="qcurve"/>
			<point x="719" y="1266" type="line"/>
			<point x="703" y="1259"/>
			<point x="686" y="1259" type="qcurve" smooth="yes"/>
			<point x="674" y="1259"/>
			<point x="650" y="1271"/>
			<point x="650" y="1287" type="qcurve" smooth="yes"/>
			<point x="650" y="1301"/>
			<point x="672" y="1320"/>
			<point x="692" y="1320" type="qcurve" smooth="yes"/>
			<point x="724" y="1320"/>
			<point x="773" y="1262"/>
			<point x="787" y="1214" type="qcurve"/>
			<point x="736" y="1207"/>
			<point x="635" y="1175"/>
		</contour>
		<contour>
			<point x="919" y="1216" type="qcurve"/>
			<point x="903" y="1218"/>
			<point x="876" y="1228"/>
			<point x="870" y="1242" type="qcurve"/>
			<point x="875" y="1352"/>
			<point x="904" y="1426"/>
			<point x="937" y="1426" type="qcurve" smooth="yes"/>
			<point x="964" y="1426"/>
			<point x="992" y="1391"/>
			<point x="992" y="1370" type="qcurve" smooth="yes"/>
			<point x="992" y="1352"/>
			<point x="982" y="1339" type="qcurve" smooth="yes"/>
			<point x="960" y="1310" type="line" smooth="yes"/>
			<point x="947" y="1291"/>
			<point x="925" y="1245"/>
		</contour>
		<contour>
			<point x="1127" y="1157" type="qcurve"/>
			<point x="1125" y="1156" type="line"/>
			<point x="1087" y="1175"/>
			<point x="981" y="1208"/>
			<point x="937" y="1214" type="qcurve"/>
			<point x="950" y="1262"/>
			<point x="1000" y="1320"/>
			<point x="1031" y="1320" type="qcurve" smooth="yes"/>
			<point x="1051" y="1320"/>
			<point x="1073" y="1301"/>
			<point x="1073" y="1287" type="qcurve" smooth="yes"/>
			<point x="1073" y="1271"/>
			<point x="1049" y="1259"/>
			<point x="1038" y="1259" type="qcurve" smooth="yes"/>
			<point x="1021" y="1259"/>
			<point x="1004" y="1266" type="qcurve"/>
			<point x="1003" y="1264" type="line"/>
			<point x="1008" y="1247"/>
			<point x="1047" y="1224"/>
			<point x="1114" y="1174"/>
		</contour>
		<contour>
			<point x="811" y="1440" type="qcurve"/>
			<point x="811" y="1477"/>
			<point x="841" y="1549"/>
			<point x="861" y="1549" type="qcurve" smooth="yes"/>
			<point x="881" y="1549"/>
			<point x="912" y="1473"/>
			<point x="912" y="1440" type="qcurve"/>
			<point x="893" y="1435"/>
			<point x="868" y="1396"/>
			<point x="864" y="1369" type="qcurve"/>
			<point x="859" y="1369" type="line"/>
			<point x="855" y="1396"/>
			<point x="831" y="1435"/>
		</contour>
		<contour>
			<point x="581" y="453" type="line"/>
			<point x="581" y="453" type="line"/>
		</contour>
		<contour>
			<point x="860" y="453" type="line"/>
			<point x="860" y="453" type="line"/>
		</contour>
		<contour>
			<point x="1140" y="453" type="line"/>
			<point x="1140" y="453" type="line"/>
		</contour>
		<contour>
			<point x="721" y="453" type="line"/>
			<point x="721" y="453" type="line"/>
		</contour>
		<contour>
			<point x="1000" y="453" type="line"/>
			<point x="1000" y="453" type="line"/>
		</contour>
	</outline>
</glyph>
<glyph name="k_RubElHizb" format="2">
	<advance width="1754"/>
	<unicode hex="06DE"/>
	<note>
		k_RubElHizb
  </note>
	<outline>
		<contour>
			<point x="989" y="1193" type="line"/>
			<point x="972" y="1216"/>
			<point x="918" y="1251"/>
			<point x="877" y="1251" type="qcurve" smooth="yes"/>
			<point x="838" y="1251"/>
			<point x="785" y="1217"/>
			<point x="769" y="1194" type="qcurve"/>
			<point x="701" y="1250" type="line"/>
			<point x="685" y="1171" type="line"/>
			<point x="654" y="1184"/>
			<point x="622" y="1184" type="qcurve" smooth="yes"/>
			<point x="576" y="1184"/>
			<point x="500" y="1118"/>
			<point x="493" y="1063" type="qcurve"/>
			<point x="407" y="1076" type="line"/>
			<point x="432" y="1000" type="line"/>
			<point x="381" y="997"/>
			<point x="314" y="926"/>
			<point x="310" y="874" type="qcurve" smooth="yes"/>
			<point x="310" y="864" type="line" smooth="yes"/>
			<point x="310" y="837"/>
			<point x="321" y="811" type="qcurve"/>
			<point x="240" y="780" type="line"/>
			<point x="300" y="727" type="line"/>
			<point x="276" y="710"/>
			<point x="241" y="657"/>
			<point x="241" y="615" type="qcurve" smooth="yes"/>
			<point x="241" y="577"/>
			<point x="274" y="523"/>
			<point x="297" y="508" type="qcurve"/>
			<point x="243" y="439" type="line"/>
			<point x="321" y="423" type="line"/>
			<point x="309" y="396"/>
			<point x="309" y="364" type="qcurve" smooth="yes"/>
			<point x="309" y="360" type="line" smooth="yes"/>
			<point x="310" y="311"/>
			<point x="375" y="238"/>
			<point x="429" y="231" type="qcurve"/>
			<point x="417" y="145" type="line"/>
			<point x="491" y="170" type="line"/>
			<point x="497" y="115"/>
			<point x="569" y="50"/>
			<point x="619" y="47" type="qcurve" smooth="yes"/>
			<point x="626" y="47" type="line" smooth="yes"/>
			<point x="655" y="47"/>
			<point x="681" y="59" type="qcurve"/>
			<point x="712" y="-22" type="line"/>
			<point x="766" y="38" type="line"/>
			<point x="782" y="14"/>
			<point x="836" y="-21"/>
			<point x="877" y="-21" type="qcurve" smooth="yes"/>
			<point x="915" y="-21"/>
			<point x="969" y="13"/>
			<point x="985" y="36" type="qcurve"/>
			<point x="1053" y="-20" type="line"/>
			<point x="1069" y="59" type="line"/>
			<point x="1098" y="46"/>
			<point x="1131" y="46" type="qcurve" smooth="yes"/>
			<point x="1180" y="46"/>
			<point x="1254" y="113"/>
			<point x="1261" y="168" type="qcurve"/>
			<point x="1347" y="155" type="line"/>
			<point x="1322" y="229" type="line"/>
			<point x="1376" y="235"/>
			<point x="1442" y="309"/>
			<point x="1445" y="357" type="qcurve" smooth="yes"/>
			<point x="1445" y="362" type="line" smooth="yes"/>
			<point x="1445" y="390"/>
			<point x="1434" y="419" type="qcurve"/>
			<point x="1514" y="450" type="line"/>
			<point x="1455" y="503" type="line"/>
			<point x="1479" y="521"/>
			<point x="1514" y="574"/>
			<point x="1514" y="615" type="qcurve" smooth="yes"/>
			<point x="1514" y="653"/>
			<point x="1479" y="707"/>
			<point x="1457" y="723" type="qcurve"/>
			<point x="1512" y="791" type="line"/>
			<point x="1434" y="807" type="line"/>
			<point x="1446" y="837"/>
			<point x="1446" y="871" type="qcurve" smooth="yes"/>
			<point x="1446" y="917"/>
			<point x="1379" y="992"/>
			<point x="1325" y="1000" type="qcurve"/>
			<point x="1338" y="1085" type="line"/>
			<point x="1262" y="1060" type="line"/>
			<point x="1259" y="1113"/>
			<point x="1185" y="1180"/>
			<point x="1136" y="1183" type="qcurve" smooth="yes"/>
			<point x="1130" y="1183" type="line" smooth="yes"/>
			<point x="1102" y="1183"/>
			<point x="1073" y="1171" type="qcurve"/>
			<point x="1042" y="1252" type="line"/>
		</contour>
		<contour>
			<point x="876" y="543" type="qcurve"/>
			<point x="897" y="397"/>
			<point x="958" y="200"/>
			<point x="991" y="143"/>
			<point x="991" y="111" type="qcurve" smooth="yes"/>
			<point x="991" y="65"/>
			<point x="928" y="7"/>
			<point x="877" y="7" type="qcurve" smooth="yes"/>
			<point x="818" y="7"/>
			<point x="758" y="79"/>
			<point x="758" y="139" type="qcurve" smooth="yes"/>
			<point x="758" y="210"/>
			<point x="822" y="463"/>
			<point x="857" y="547" type="qcurve"/>
			<point x="864" y="543"/>
		</contour>
		<contour>
			<point x="949" y="614" type="qcurve"/>
			<point x="1077" y="634"/>
			<point x="1279" y="690"/>
			<point x="1354" y="729"/>
			<point x="1382" y="729" type="qcurve" smooth="yes"/>
			<point x="1427" y="729"/>
			<point x="1485" y="666"/>
			<point x="1485" y="615" type="qcurve" smooth="yes"/>
			<point x="1485" y="556"/>
			<point x="1413" y="497"/>
			<point x="1354" y="497" type="qcurve" smooth="yes"/>
			<point x="1276" y="497"/>
			<point x="1026" y="562"/>
			<point x="946" y="595" type="qcurve"/>
			<point x="947" y="600"/>
			<point x="949" y="610"/>
		</contour>
		<contour>
			<point x="815" y="651" type="line"/>
			<point x="682" y="702"/>
			<point x="490" y="750"/>
			<point x="391" y="757"/>
			<point x="332" y="815"/>
			<point x="332" y="856" type="qcurve" smooth="yes"/>
			<point x="332" y="897"/>
			<point x="395" y="980"/>
			<point x="444" y="980" type="qcurve" smooth="yes"/>
			<point x="519" y="980"/>
			<point x="750" y="763"/>
			<point x="827" y="667" type="qcurve"/>
			<point x="824" y="664"/>
			<point x="821" y="660" type="qcurve"/>
		</contour>
		<contour>
			<point x="840" y="554" type="qcurve"/>
			<point x="799" y="448"/>
			<point x="742" y="233"/>
			<point x="737" y="132"/>
			<point x="678" y="70"/>
			<point x="636" y="70" type="qcurve" smooth="yes"/>
			<point x="594" y="70"/>
			<point x="512" y="133"/>
			<point x="512" y="182" type="qcurve" smooth="yes"/>
			<point x="512" y="256"/>
			<point x="726" y="489"/>
			<point x="825" y="565" type="qcurve"/>
			<point x="829" y="562"/>
			<point x="836" y="556"/>
		</contour>
		<contour>
			<point x="842" y="678" type="qcurve"/>
			<point x="780" y="756"/>
			<point x="622" y="917"/>
			<point x="512" y="991"/>
			<point x="512" y="1047" type="qcurve" smooth="yes"/>
			<point x="512" y="1094"/>
			<point x="593" y="1161"/>
			<point x="635" y="1161" type="qcurve" smooth="yes"/>
			<point x="726" y="1161"/>
			<point x="841" y="822"/>
			<point x="859" y="685" type="qcurve"/>
			<point x="852" y="682"/>
		</contour>
		<contour>
			<point x="939" y="650" type="line"/>
			<point x="1020" y="714"/>
			<point x="1180" y="872"/>
			<point x="1254" y="981"/>
			<point x="1309" y="981" type="qcurve" smooth="yes"/>
			<point x="1357" y="981"/>
			<point x="1423" y="897"/>
			<point x="1423" y="857" type="qcurve" smooth="yes"/>
			<point x="1423" y="766"/>
			<point x="1083" y="650"/>
			<point x="947" y="632" type="qcurve"/>
		</contour>
		<contour>
			<point x="724" y="604" type="line"/>
			<point x="623" y="585"/>
			<point x="464" y="534"/>
			<point x="402" y="501"/>
			<point x="373" y="501" type="qcurve" smooth="yes"/>
			<point x="331" y="501"/>
			<point x="269" y="560"/>
			<point x="269" y="615" type="qcurve" smooth="yes"/>
			<point x="269" y="673"/>
			<point x="341" y="733"/>
			<point x="401" y="733" type="qcurve" smooth="yes"/>
			<point x="457" y="733"/>
			<point x="626" y="700"/>
			<point x="731" y="664" type="qcurve"/>
			<point x="648" y="641" type="line"/>
		</contour>
		<contour>
			<point x="945" y="752" type="line"/>
			<point x="1003" y="916"/>
			<point x="1024" y="1160"/>
			<point x="1118" y="1160" type="qcurve" smooth="yes"/>
			<point x="1159" y="1160"/>
			<point x="1242" y="1098"/>
			<point x="1242" y="1048" type="qcurve" smooth="yes"/>
			<point x="1242" y="984"/>
			<point x="1081" y="793"/>
			<point x="991" y="717" type="qcurve"/>
			<point x="1026" y="811" type="line"/>
		</contour>
		<contour>
			<point x="965" y="486" type="line"/>
			<point x="1013" y="431"/>
			<point x="1128" y="314"/>
			<point x="1243" y="240"/>
			<point x="1243" y="184" type="qcurve" smooth="yes"/>
			<point x="1243" y="134"/>
			<point x="1159" y="69"/>
			<point x="1119" y="69" type="qcurve" smooth="yes"/>
			<point x="1042" y="69"/>
			<point x="938" y="303"/>
			<point x="908" y="465" type="qcurve"/>
			<point x="983" y="400" type="line"/>
		</contour>
		<contour>
			<point x="498" y="264" type="line"/>
			<point x="472" y="250"/>
			<point x="446" y="250" type="qcurve" smooth="yes"/>
			<point x="397" y="250"/>
			<point x="332" y="332"/>
			<point x="332" y="374" type="qcurve" smooth="yes"/>
			<point x="332" y="424"/>
			<point x="433" y="503"/>
			<point x="556" y="542" type="qcurve"/>
			<point x="543" y="530"/>
			<point x="525" y="502"/>
			<point x="525" y="483" type="qcurve" smooth="yes"/>
			<point x="525" y="449"/>
			<point x="578" y="402"/>
			<point x="606" y="402" type="qcurve" smooth="yes"/>
			<point x="613" y="402"/>
			<point x="615" y="402" type="qcurve"/>
			<point x="564" y="346"/>
			<point x="525" y="284"/>
			<point x="515" y="276" type="qcurve" smooth="yes"/>
		</contour>
		<contour>
			<point x="823" y="947" type="qcurve"/>
			<point x="798" y="1024"/>
			<point x="763" y="1091"/>
			<point x="763" y="1120" type="qcurve" smooth="yes"/>
			<point x="763" y="1162"/>
			<point x="822" y="1224"/>
			<point x="877" y="1224" type="qcurve" smooth="yes"/>
			<point x="935" y="1224"/>
			<point x="995" y="1151"/>
			<point x="995" y="1092" type="qcurve" smooth="yes"/>
			<point x="995" y="1055"/>
			<point x="983" y="974"/>
			<point x="974" y="929" type="qcurve"/>
			<point x="970" y="956"/>
			<point x="934" y="996"/>
			<point x="896" y="996" type="qcurve" smooth="yes"/>
			<point x="868" y="996"/>
			<point x="831" y="968"/>
		</contour>
		<contour>
			<point x="1193" y="495" type="qcurve"/>
			<point x="1262" y="479"/>
			<point x="1360" y="476"/>
			<point x="1422" y="416"/>
			<point x="1422" y="375" type="qcurve" smooth="yes"/>
			<point x="1422" y="332"/>
			<point x="1359" y="250"/>
			<point x="1310" y="250" type="qcurve" smooth="yes"/>
			<point x="1272" y="250"/>
			<point x="1172" y="307"/>
			<point x="1100" y="375" type="qcurve"/>
			<point x="1108" y="371"/>
			<point x="1127" y="369"/>
			<point x="1135" y="369" type="qcurve" smooth="yes"/>
			<point x="1163" y="369"/>
			<point x="1209" y="415"/>
			<point x="1209" y="449" type="qcurve" smooth="yes"/>
			<point x="1209" y="475"/>
		</contour>
		<contour>
			<point x="897" y="684" type="qcurve"/>
			<point x="888" y="688"/>
			<point x="878" y="688" type="qcurve"/>
			<point x="870" y="731" type="line" smooth="yes"/>
			<point x="865" y="756"/>
			<point x="859" y="783" type="qcurve" smooth="yes"/>
			<point x="848" y="836" type="line" smooth="yes"/>
			<point x="841" y="869"/>
			<point x="834" y="893"/>
			<point x="832" y="916" type="qcurve"/>
			<point x="832" y="942"/>
			<point x="864" y="976"/>
			<point x="891" y="976" type="qcurve" smooth="yes"/>
			<point x="920" y="976"/>
			<point x="956" y="932"/>
			<point x="956" y="903" type="qcurve" smooth="yes"/>
			<point x="956" y="863"/>
			<point x="899" y="689"/>
		</contour>
		<contour>
			<point x="1133" y="395" type="qcurve" smooth="yes"/>
			<point x="1097" y="395"/>
			<point x="1027" y="451"/>
			<point x="982" y="501" type="qcurve" smooth="yes"/>
			<point x="962" y="523" type="line"/>
			<point x="943" y="546" type="line" smooth="yes"/>
			<point x="934" y="556"/>
			<point x="928" y="564" type="qcurve"/>
			<point x="933" y="567"/>
			<point x="935" y="571" type="qcurve" smooth="yes"/>
			<point x="939" y="579" type="line"/>
			<point x="985" y="563" type="line" smooth="yes"/>
			<point x="1092" y="524"/>
			<point x="1191" y="503"/>
			<point x="1193" y="457" type="qcurve" smooth="yes"/>
			<point x="1193" y="430"/>
			<point x="1156" y="395"/>
		</contour>
		<contour>
			<point x="809" y="596" type="qcurve"/>
			<point x="812" y="588" type="line"/>
			<point x="813" y="583"/>
			<point x="815" y="579" type="qcurve"/>
			<point x="785" y="556"/>
			<point x="681" y="464"/>
			<point x="636" y="417"/>
			<point x="612" y="417" type="qcurve" smooth="yes"/>
			<point x="588" y="417"/>
			<point x="551" y="455"/>
			<point x="551" y="478" type="qcurve" smooth="yes"/>
			<point x="551" y="536"/>
			<point x="746" y="589"/>
		</contour>
		<contour>
			<point x="745" y="1121" type="qcurve"/>
			<point x="735" y="1132"/>
			<point x="716" y="1152"/>
			<point x="704" y="1159" type="qcurve"/>
			<point x="710" y="1225" type="line"/>
			<point x="757" y="1177" type="line"/>
			<point x="745" y="1148"/>
		</contour>
		<contour>
			<point x="1010" y="109" type="qcurve"/>
			<point x="1019" y="99"/>
			<point x="1038" y="78"/>
			<point x="1050" y="70" type="qcurve"/>
			<point x="1044" y="5" type="line"/>
			<point x="997" y="54" type="line"/>
			<point x="1010" y="78"/>
		</contour>
		<contour>
			<point x="1382" y="748" type="qcurve"/>
			<point x="1394" y="757"/>
			<point x="1414" y="776"/>
			<point x="1421" y="789" type="qcurve"/>
			<point x="1487" y="782" type="line"/>
			<point x="1439" y="735" type="line"/>
			<point x="1413" y="748"/>
		</contour>
		<contour>
			<point x="371" y="482" type="qcurve"/>
			<point x="359" y="473"/>
			<point x="340" y="455"/>
			<point x="332" y="442" type="qcurve"/>
			<point x="267" y="448" type="line"/>
			<point x="315" y="495" type="line"/>
			<point x="343" y="482"/>
		</contour>
		<contour>
			<point x="1000" y="1173" type="qcurve"/>
			<point x="1038" y="1227" type="line"/>
			<point x="1055" y="1162" type="line"/>
			<point x="1031" y="1145"/>
			<point x="1015" y="1120" type="qcurve"/>
			<point x="1013" y="1134"/>
			<point x="1006" y="1161"/>
		</contour>
		<contour>
			<point x="372" y="753" type="qcurve"/>
			<point x="358" y="751"/>
			<point x="331" y="745"/>
			<point x="318" y="737" type="qcurve"/>
			<point x="265" y="776" type="line"/>
			<point x="331" y="793" type="line"/>
			<point x="338" y="780"/>
			<point x="359" y="761"/>
		</contour>
		<contour>
			<point x="738" y="111" type="qcurve"/>
			<point x="742" y="83"/>
			<point x="754" y="57" type="qcurve"/>
			<point x="716" y="2" type="line"/>
			<point x="700" y="68" type="line"/>
			<point x="724" y="85"/>
		</contour>
		<contour>
			<point x="1382" y="477" type="qcurve"/>
			<point x="1410" y="480"/>
			<point x="1435" y="492" type="qcurve"/>
			<point x="1489" y="455" type="line"/>
			<point x="1424" y="438" type="line"/>
			<point x="1407" y="462"/>
		</contour>
		<contour>
			<point x="504" y="247" type="qcurve"/>
			<point x="499" y="234"/>
			<point x="491" y="207"/>
			<point x="491" y="192" type="qcurve"/>
			<point x="433" y="166" type="line"/>
			<point x="451" y="230" type="line"/>
			<point x="481" y="233"/>
		</contour>
		<contour>
			<point x="1246" y="243" type="qcurve"/>
			<point x="1258" y="237"/>
			<point x="1286" y="229"/>
			<point x="1300" y="229" type="qcurve"/>
			<point x="1326" y="170" type="line"/>
			<point x="1261" y="189" type="line"/>
			<point x="1259" y="218"/>
		</contour>
		<contour>
			<point x="1249" y="983" type="qcurve"/>
			<point x="1255" y="996"/>
			<point x="1261" y="1024"/>
			<point x="1263" y="1038" type="qcurve"/>
			<point x="1322" y="1064" type="line"/>
			<point x="1303" y="1000" type="line"/>
			<point x="1275" y="998"/>
		</contour>
		<contour>
			<point x="509" y="987" type="qcurve"/>
			<point x="485" y="999"/>
			<point x="455" y="1001" type="qcurve"/>
			<point x="428" y="1060" type="line"/>
			<point x="492" y="1042" type="line"/>
			<point x="494" y="1012"/>
		</contour>
		<contour>
			<point x="974" y="704" type="line"/>
			<point x="929" y="666" type="line"/>
			<point x="922" y="672"/>
			<point x="913" y="677" type="qcurve"/>
			<point x="918" y="688" type="line"/>
			<point x="935" y="729" type="line"/>
			<point x="996" y="771" type="line"/>
		</contour>
		<contour>
			<point x="753" y="655" type="line"/>
			<point x="809" y="635" type="line"/>
			<point x="806" y="625"/>
			<point x="806" y="614" type="qcurve"/>
			<point x="802" y="613"/>
			<point x="794" y="613" type="qcurve"/>
			<point x="750" y="608" type="line"/>
			<point x="692" y="636" type="line"/>
		</contour>
		<contour>
			<point x="900" y="517" type="qcurve"/>
			<point x="895" y="546" type="line"/>
			<point x="902" y="547"/>
			<point x="912" y="553" type="qcurve"/>
			<point x="919" y="543" type="line"/>
			<point x="923" y="537"/>
			<point x="928" y="531" type="qcurve" smooth="yes"/>
			<point x="938" y="518" type="line" smooth="yes"/>
			<point x="943" y="511"/>
			<point x="947" y="507" type="qcurve"/>
			<point x="958" y="442" type="line"/>
			<point x="905" y="485" type="line"/>
			<point x="903" y="499" type="line"/>
			<point x="900" y="507"/>
		</contour>
		<contour>
			<point x="877" y="564" type="qcurve" smooth="yes"/>
			<point x="856" y="564"/>
			<point x="826" y="594"/>
			<point x="826" y="615" type="qcurve" smooth="yes"/>
			<point x="826" y="636"/>
			<point x="856" y="666"/>
			<point x="877" y="666" type="qcurve" smooth="yes"/>
			<point x="898" y="666"/>
			<point x="928" y="636"/>
			<point x="928" y="615" type="qcurve" smooth="yes"/>
			<point x="928" y="594"/>
			<point x="898" y="564"/>
		</contour>
	</outline>
</glyph>
<glyph name="SukunZeroNS" format="2">
	<advance width="0"/>
	<unicode hex="06E0"/>
	<note>
		SukunZeroNS
  </note>
	<outline>
		<contour>
			<point x="87" y="968" type="qcurve" smooth="yes"/>
			<point x="87" y="1027"/>
			<point x="41" y="1092"/>
			<point x="-2" y="1092" type="qcurve" smooth="yes"/>
			<point x="-40" y="1092"/>
			<point x="-89" y="1031"/>
			<point x="-89" y="982" type="qcurve" smooth="yes"/>
			<point x="-89" y="922"/>
			<point x="-42" y="857"/>
			<point x="1" y="857" type="qcurve" smooth="yes"/>
			<point x="38" y="857"/>
			<point x="87" y="918"/>
		</contour>
		<contour>
			<point x="30" y="941" type="qcurve" smooth="yes"/>
			<point x="30" y="911"/>
			<point x="18" y="881"/>
			<point x="1" y="881" type="qcurve" smooth="yes"/>
			<point x="-32" y="881"/>
			<point x="-32" y="1008" type="qcurve" smooth="yes"/>
			<point x="-32" y="1039"/>
			<point x="-20" y="1069"/>
			<point x="-2" y="1069" type="qcurve" smooth="yes"/>
			<point x="30" y="1069"/>
		</contour>
		<contour>
			<point x="0" y="955" type="line"/>
			<point x="0" y="955" type="line"/>
		</contour>
		<contour>
			<point x="0" y="1165" type="line"/>
			<point x="0" y="1165" type="line"/>
		</contour>
	</outline>
</glyph>
<glyph name="SukunHahNS" format="2">
	<advance width="0"/>
	<unicode hex="06E1"/>
	<note>
		SukunHahNS
  </note>
	<outline>
		<contour>
			<point x="-11" y="892" type="line" smooth="yes"/>
			<point x="19" y="897"/>
			<point x="111" y="969"/>
			<point x="116" y="979" type="qcurve"/>
			<point x="112" y="994" type="line"/>
			<point x="60" y="1017"/>
			<point x="-13" y="1030"/>
			<point x="-33" y="1030" type="qcurve" smooth="yes"/>
			<point x="-53" y="1030"/>
			<point x="-84" y="996"/>
			<point x="-97" y="967" type="qcurve"/>
			<point x="-86" y="961" type="line"/>
			<point x="-81" y="966"/>
			<point x="-66" y="972"/>
			<point x="-55" y="972" type="qcurve" smooth="yes"/>
			<point x="-41" y="972"/>
			<point x="2" y="964"/>
			<point x="22" y="959" type="qcurve" smooth="yes"/>
			<point x="46" y="951" type="line"/>
			<point x="46" y="948" type="line"/>
			<point x="41" y="941"/>
			<point x="-44" y="908"/>
			<point x="-99" y="893" type="qcurve"/>
			<point x="-98" y="878" type="line"/>
			<point x="-84" y="879"/>
			<point x="-68" y="881" type="qcurve" smooth="yes"/>
			<point x="-36" y="887" type="line"/>
		</contour>
		<contour>
			<point x="-2" y="923" type="line"/>
			<point x="-2" y="923" type="line"/>
		</contour>
		<contour>
			<point x="0" y="969" type="line"/>
			<point x="0" y="969" type="line"/>
		</contour>
		<contour>
			<point x="0" y="1103" type="line"/>
			<point x="0" y="1103" type="line"/>
		</contour>
		<contour>
			<point x="0" y="881" type="line"/>
			<point x="0" y="881" type="line"/>
		</contour>
	</outline>
</glyph>
<glyph name="k_Sajdah" format="2">
	<advance width="1422"/>
	<unicode hex="06E9"/>
	<note>
		k_Sajdah
  </note>
	<outline>
		<contour>
			<point x="409" y="26" type="qcurve" smooth="yes"/>
			<point x="1013" y="26" type="line" smooth="yes"/>
			<point x="1026" y="26"/>
			<point x="1042" y="36"/>
			<point x="1042" y="52" type="qcurve" smooth="yes"/>
			<point x="1042" y="63"/>
			<point x="1030" y="83"/>
			<point x="1023" y="91" type="qcurve" smooth="yes"/>
			<point x="1008" y="108" type="line"/>
			<point x="1008" y="729" type="line"/>
			<point x="1079" y="745"/>
			<point x="1158" y="837"/>
			<point x="1158" y="906" type="qcurve" smooth="yes"/>
			<point x="1158" y="960"/>
			<point x="1092" y="1063"/>
			<point x="815" y="1246"/>
			<point x="738" y="1382"/>
			<point x="722" y="1393"/>
			<point x="711" y="1393" type="qcurve" smooth="yes"/>
			<point x="701" y="1393"/>
			<point x="684" y="1382"/>
			<point x="606" y="1246"/>
			<point x="330" y="1063"/>
			<point x="264" y="960"/>
			<point x="264" y="906" type="qcurve" smooth="yes"/>
			<point x="264" y="837"/>
			<point x="343" y="745"/>
			<point x="414" y="729" type="qcurve"/>
			<point x="414" y="108" type="line"/>
			<point x="399" y="91" type="line" smooth="yes"/>
			<point x="392" y="83"/>
			<point x="380" y="63"/>
			<point x="380" y="52" type="qcurve" smooth="yes"/>
			<point x="380" y="36"/>
			<point x="396" y="26"/>
		</contour>
		<contour>
			<point x="1002" y="62" type="line"/>
			<point x="420" y="62" type="line"/>
			<point x="449" y="95" type="line"/>
			<point x="449" y="757" type="line"/>
			<point x="383" y="765"/>
			<point x="299" y="846"/>
			<point x="299" y="906" type="qcurve" smooth="yes"/>
			<point x="299" y="956"/>
			<point x="367" y="1047"/>
			<point x="578" y="1183"/>
			<point x="682" y="1294"/>
			<point x="709" y="1358" type="qcurve"/>
			<point x="713" y="1358" type="line"/>
			<point x="740" y="1294"/>
			<point x="844" y="1183"/>
			<point x="1055" y="1047"/>
			<point x="1123" y="956"/>
			<point x="1123" y="906" type="qcurve" smooth="yes"/>
			<point x="1123" y="846"/>
			<point x="1039" y="765"/>
			<point x="973" y="757" type="qcurve"/>
			<point x="973" y="95" type="line"/>
		</contour>
		<contour>
			<point x="711" y="1304" type="qcurve"/>
			<point x="634" y="1179"/>
			<point x="395" y="1031"/>
			<point x="332" y="951"/>
			<point x="332" y="905" type="qcurve" smooth="yes"/>
			<point x="332" y="853"/>
			<point x="409" y="783"/>
			<point x="480" y="774" type="qcurve"/>
			<point x="480" y="85" type="line"/>
			<point x="942" y="85" type="line"/>
			<point x="942" y="774" type="line"/>
			<point x="1013" y="783"/>
			<point x="1091" y="853"/>
			<point x="1091" y="905" type="qcurve" smooth="yes"/>
			<point x="1091" y="951"/>
			<point x="1027" y="1031"/>
			<point x="789" y="1179"/>
		</contour>
		<contour>
			<point x="920" y="107" type="line"/>
			<point x="502" y="107" type="line"/>
			<point x="502" y="794" type="line"/>
			<point x="429" y="802"/>
			<point x="354" y="860"/>
			<point x="354" y="905" type="qcurve" smooth="yes"/>
			<point x="354" y="978"/>
			<point x="569" y="1112"/>
			<point x="674" y="1205"/>
			<point x="711" y="1268" type="qcurve"/>
			<point x="752" y="1197"/>
			<point x="871" y="1100"/>
			<point x="1069" y="976"/>
			<point x="1069" y="905" type="qcurve" smooth="yes"/>
			<point x="1069" y="860"/>
			<point x="993" y="802"/>
			<point x="920" y="794" type="qcurve"/>
		</contour>
		<contour>
			<point x="711" y="1210" type="qcurve"/>
			<point x="644" y="1125"/>
			<point x="446" y="1001"/>
			<point x="388" y="941"/>
			<point x="388" y="906" type="qcurve" smooth="yes"/>
			<point x="388" y="865"/>
			<point x="463" y="823"/>
			<point x="533" y="820" type="qcurve"/>
			<point x="533" y="138" type="line"/>
			<point x="890" y="138" type="line"/>
			<point x="890" y="820" type="line"/>
			<point x="959" y="823"/>
			<point x="1035" y="865"/>
			<point x="1035" y="906" type="qcurve" smooth="yes"/>
			<point x="1035" y="941"/>
			<point x="976" y="1001"/>
			<point x="779" y="1125"/>
		</contour>
		<contour>
			<point x="868" y="160" type="line"/>
			<point x="555" y="160" type="line"/>
			<point x="555" y="840" type="line"/>
			<point x="484" y="843"/>
			<point x="411" y="874"/>
			<point x="411" y="908" type="qcurve" smooth="yes"/>
			<point x="411" y="957"/>
			<point x="635" y="1088"/>
			<point x="711" y="1177" type="qcurve"/>
			<point x="787" y="1088"/>
			<point x="1011" y="957"/>
			<point x="1011" y="908" type="qcurve" smooth="yes"/>
			<point x="1011" y="874"/>
			<point x="938" y="843"/>
			<point x="868" y="840" type="qcurve"/>
		</contour>
	</outline>
</glyph>
<glyph name="FourUrdu" format="2">
	<advance width="567"/>
	<unicode hex="06F4"/>
	<note>
		FourUrdu
  </note>
	<outline>
		<contour>
			<point x="235" y="673" type="qcurve" smooth="yes"/>
			<point x="191" y="673"/>
			<point x="121" y="611"/>
			<point x="81" y="504"/>
			<point x="81" y="450" type="qcurve" smooth="yes"/>
			<point x="81" y="417"/>
			<point x="104" y="266" type="qcurve" smooth="yes"/>
			<point x="113" y="208"/>
			<point x="131" y="89"/>
			<point x="131" y="23" type="qcurve" smooth="yes"/>
			<point x="130" y="-3" type="line"/>
			<point x="150" y="-5" type="line"/>
			<point x="181" y="64"/>
			<point x="181" y="170" type="qcurve" smooth="yes"/>
			<point x="181" y="289"/>
			<point x="158" y="418" type="qcurve" smooth="yes"/>
			<point x="144" y="500"/>
			<point x="144" y="518" type="qcurve" smooth="yes"/>
			<point x="145" y="566"/>
			<point x="197" y="566" type="qcurve" smooth="yes"/>
			<point x="227" y="566"/>
			<point x="279" y="512"/>
			<point x="321" y="416"/>
			<point x="330" y="369" type="qcurve"/>
			<point x="344" y="369" type="line"/>
			<point x="374" y="430"/>
			<point x="444" y="516"/>
			<point x="474" y="549" type="qcurve"/>
			<point x="497" y="601"/>
			<point x="523" y="692" type="qcurve"/>
			<point x="516" y="697" type="line"/>
			<point x="454" y="635"/>
			<point x="388" y="528" type="qcurve"/>
			<point x="381" y="528" type="line"/>
			<point x="338" y="673"/>
		</contour>
	</outline>
</glyph>
<glyph name="FiveFarsi" format="2">
	<advance width="567"/>
	<unicode hex="06F5"/>
	<note>
		FiveFarsi
  </note>
	<outline>
		<contour>
			<point x="270" y="64" type="qcurve"/>
			<point x="287" y="42"/>
			<point x="332" y="32"/>
			<point x="354" y="32" type="qcurve" smooth="yes"/>
			<point x="393" y="32"/>
			<point x="459" y="101"/>
			<point x="498" y="238"/>
			<point x="498" y="306" type="qcurve" smooth="yes"/>
			<point x="498" y="384"/>
			<point x="411" y="552"/>
			<point x="305" y="663" type="qcurve"/>
			<point x="296" y="665" type="line"/>
			<point x="276" y="646"/>
			<point x="232" y="582"/>
			<point x="232" y="570" type="qcurve"/>
			<point x="233" y="562" type="line"/>
			<point x="137" y="432"/>
			<point x="62" y="239"/>
			<point x="62" y="153" type="qcurve" smooth="yes"/>
			<point x="62" y="90"/>
			<point x="117" y="17"/>
			<point x="172" y="17" type="qcurve" smooth="yes"/>
			<point x="236" y="17"/>
		</contour>
		<contour>
			<point x="272" y="503" type="qcurve"/>
			<point x="343" y="431"/>
			<point x="401" y="353"/>
			<point x="439" y="271"/>
			<point x="439" y="234" type="qcurve" smooth="yes"/>
			<point x="439" y="196"/>
			<point x="405" y="151"/>
			<point x="375" y="151" type="qcurve" smooth="yes"/>
			<point x="321" y="151"/>
			<point x="301" y="202" type="qcurve"/>
			<point x="288" y="203" type="line"/>
			<point x="249" y="142"/>
			<point x="191" y="142" type="qcurve" smooth="yes"/>
			<point x="123" y="142"/>
			<point x="123" y="228" type="qcurve" smooth="yes"/>
			<point x="123" y="283"/>
			<point x="204" y="433"/>
		</contour>
	</outline>
</glyph>
<glyph name="SevenUrdu" format="2">
	<advance width="567"/>
	<unicode hex="06F7"/>
	<note>
		SevenUrdu
  </note>
	<outline>
		<contour>
			<point x="492" y="109" type="qcurve"/>
			<point x="491" y="122" type="line"/>
			<point x="459" y="126"/>
			<point x="183" y="163"/>
			<point x="130" y="174" type="qcurve"/>
			<point x="130" y="178" type="line"/>
			<point x="144" y="208"/>
			<point x="206" y="289"/>
			<point x="339" y="451"/>
			<point x="404" y="525" type="qcurve"/>
			<point x="407" y="534"/>
			<point x="414" y="568"/>
			<point x="419" y="604"/>
			<point x="424" y="635"/>
			<point x="424" y="640" type="qcurve"/>
			<point x="416" y="642" type="line"/>
			<point x="316" y="524"/>
			<point x="183" y="353"/>
			<point x="103" y="231"/>
			<point x="57" y="135"/>
			<point x="48" y="81" type="qcurve"/>
			<point x="55" y="69" type="line"/>
			<point x="96" y="57"/>
			<point x="398" y="13"/>
			<point x="440" y="13" type="qcurve"/>
			<point x="466" y="46"/>
		</contour>
	</outline>
</glyph>
<glyph name="ShortVwlNS" format="2">
	<advance width="0"/>
	<unicode hex="08FF"/>
	<note>
		ShortVwlNS
  </note>
	<outline>
		<contour>
			<point x="-33" y="812" type="qcurve"/>
			<point x="-33" y="834" type="line"/>
			<point x="20" y="847"/>
			<point x="66" y="910"/>
			<point x="66" y="956" type="qcurve" smooth="yes"/>
			<point x="66" y="989"/>
			<point x="38" y="1030"/>
			<point x="0" y="1030" type="qcurve" smooth="yes"/>
			<point x="-13" y="1030" type="line" smooth="yes"/>
			<point x="-19" y="1030"/>
			<point x="-26" y="1029" type="qcurve"/>
			<point x="-27" y="1051" type="line"/>
			<point x="-10" y="1055"/>
			<point x="18" y="1060"/>
			<point x="31" y="1060" type="qcurve" smooth="yes"/>
			<point x="82" y="1060"/>
			<point x="131" y="1004"/>
			<point x="131" y="959" type="qcurve" smooth="yes"/>
			<point x="131" y="898"/>
			<point x="31" y="813"/>
		</contour>
		<contour>
			<point x="31" y="805" type="line"/>
			<point x="31" y="805" type="line"/>
		</contour>
		<contour>
			<point x="34" y="1112" type="line"/>
			<point x="34" y="1112" type="line"/>
		</contour>
	</outline>
</glyph>
<glyph name="uni200C" format="2">
	<advance width="0"/>
	<unicode hex="200C"/>
	<note>
		uni200C
  </note>
	<outline>
		<contour>
			<point x="32" y="1465" type="line"/>
			<point x="-32" y="1465" type="line"/>
			<point x="-32" y="161" type="line"/>
			<point x="32" y="161" type="line"/>
		</contour>
	</outline>
</glyph>
<glyph name="uni200D" format="2">
	<advance width="0"/>
	<unicode hex="200D"/>
	<note>
		uni200D
  </note>
	<outline>
		<contour>
			<point x="32" y="161" type="line"/>
			<point x="32" y="1202" type="line"/>
			<point x="149" y="1083" type="line"/>
			<point x="192" y="1126" type="line"/>
			<point x="42" y="1274" type="line"/>
			<point x="192" y="1422" type="line"/>
			<point x="149" y="1465" type="line"/>
			<point x="0" y="1315" type="line"/>
			<point x="-149" y="1465" type="line"/>
			<point x="-192" y="1422" type="line"/>
			<point x="-42" y="1274" type="line"/>
			<point x="-192" y="1126" type="line"/>
			<point x="-149" y="1083" type="line"/>
			<point x="-32" y="1202" type="line"/>
			<point x="-32" y="161" type="line"/>
		</contour>
	</outline>
</glyph>
<glyph name="uni200F" format="2">
	<advance width="0"/>
	<unicode hex="200F"/>
	<note>
		uni200F
  </note>
	<outline>
		<contour>
			<point x="31" y="161" type="line"/>
			<point x="31" y="1308" type="line"/>
			<point x="-266" y="1308" type="line"/>
			<point x="-145" y="1422" type="line"/>
			<point x="-188" y="1465" type="line"/>
			<point x="-379" y="1276" type="line"/>
			<point x="-188" y="1088" type="line"/>
			<point x="-145" y="1131" type="line"/>
			<point x="-266" y="1246" type="line"/>
			<point x="-32" y="1246" type="line"/>
			<point x="-32" y="161" type="line"/>
		</contour>
	</outline>
</glyph>
<glyph name="endash" format="2">
	<advance width="513"/>
	<unicode hex="2013"/>
	<note>
		endash
  </note>
	<outline>
		<contour>
			<point x="-3" y="265" type="line"/>
			<point x="517" y="265" type="line"/>
			<point x="517" y="309" type="line"/>
			<point x="-3" y="309" type="line"/>
		</contour>
	</outline>
</glyph>
<glyph name="emdash" format="2">
	<advance width="696"/>
	<unicode hex="2014"/>
	<note>
		emdash
  </note>
	<outline>
		<contour>
			<point x="-3" y="265" type="line"/>
			<point x="700" y="265" type="line"/>
			<point x="700" y="309" type="line"/>
			<point x="-3" y="309" type="line"/>
		</contour>
	</outline>
</glyph>
<glyph name="QuoteSingleLeftArabic" format="2">
	<advance width="307"/>
	<unicode hex="2018"/>
	<note>
		QuoteSingleLeftArabic
  </note>
	<outline>
		<contour>
			<point x="228" y="783" type="qcurve" smooth="yes"/>
			<point x="228" y="806"/>
			<point x="190" y="833" type="qcurve" smooth="yes"/>
			<point x="148" y="866"/>
			<point x="148" y="886" type="qcurve" smooth="yes"/>
			<point x="148" y="907"/>
			<point x="170" y="951"/>
			<point x="195" y="988" type="qcurve"/>
			<point x="178" y="1000" type="line"/>
			<point x="134" y="954"/>
			<point x="79" y="837"/>
			<point x="79" y="795" type="qcurve" smooth="yes"/>
			<point x="79" y="762"/>
			<point x="112" y="720"/>
			<point x="145" y="698" type="qcurve"/>
			<point x="154" y="698" type="line"/>
			<point x="185" y="718"/>
			<point x="228" y="767"/>
		</contour>
	</outline>
</glyph>
<glyph name="QuoteSingleRightArabic" format="2">
	<advance width="307"/>
	<unicode hex="2019"/>
	<note>
		QuoteSingleRightArabic
  </note>
	<outline>
		<contour>
			<point x="152" y="974" type="line"/>
			<point x="125" y="956"/>
			<point x="81" y="905"/>
			<point x="76" y="890" type="qcurve"/>
			<point x="76" y="881" type="line"/>
			<point x="129" y="834"/>
			<point x="154" y="804"/>
			<point x="154" y="782" type="qcurve" smooth="yes"/>
			<point x="154" y="762"/>
			<point x="137" y="723"/>
			<point x="112" y="683" type="qcurve"/>
			<point x="128" y="671" type="line"/>
			<point x="172" y="718"/>
			<point x="228" y="834"/>
			<point x="228" y="876" type="qcurve" smooth="yes"/>
			<point x="228" y="938"/>
			<point x="161" y="974" type="qcurve"/>
		</contour>
	</outline>
</glyph>
<glyph name="SglGuillemetLeftArabic" format="2">
	<advance width="305"/>
	<unicode hex="2039"/>
	<note>
		SglGuillemetLeftArabic
  </note>
	<outline>
		<contour>
			<point x="180" y="60" type="qcurve"/>
			<point x="189" y="62" type="line"/>
			<point x="191" y="64"/>
			<point x="219" y="133"/>
			<point x="221" y="143" type="qcurve"/>
			<point x="147" y="213"/>
			<point x="147" y="331" type="qcurve" smooth="yes"/>
			<point x="147" y="377"/>
			<point x="184" y="488"/>
			<point x="216" y="533" type="qcurve"/>
			<point x="200" y="547" type="line"/>
			<point x="145" y="487"/>
			<point x="84" y="335"/>
			<point x="84" y="266" type="qcurve" smooth="yes"/>
			<point x="84" y="200"/>
			<point x="134" y="90"/>
		</contour>
	</outline>
</glyph>
<glyph name="SglGuillemetRightArabic" format="2">
	<advance width="305"/>
	<unicode hex="203A"/>
	<note>
		SglGuillemetRightArabic
  </note>
	<outline>
		<contour>
			<point x="125" y="549" type="qcurve"/>
			<point x="116" y="547" type="line"/>
			<point x="113" y="545"/>
			<point x="86" y="476"/>
			<point x="84" y="467" type="qcurve"/>
			<point x="158" y="396"/>
			<point x="158" y="279" type="qcurve" smooth="yes"/>
			<point x="158" y="232"/>
			<point x="121" y="121"/>
			<point x="89" y="77" type="qcurve"/>
			<point x="105" y="63" type="line"/>
			<point x="160" y="121"/>
			<point x="221" y="273"/>
			<point x="221" y="343" type="qcurve" smooth="yes"/>
			<point x="221" y="408"/>
			<point x="173" y="516"/>
		</contour>
	</outline>
</glyph>
<glyph name="MinusArabic" format="2">
	<advance width="567"/>
	<unicode hex="2212"/>
	<note>
		MinusArabic
  </note>
	<outline>
		<contour>
			<point x="518" y="291" type="line"/>
			<point x="518" y="334" type="line"/>
			<point x="50" y="334" type="line"/>
			<point x="50" y="291" type="line"/>
		</contour>
	</outline>
</glyph>
<glyph name="uni25CC" format="2">
	<advance width="789"/>
	<unicode hex="25CC"/>
	<note>
		uni25CC
  </note>
	<outline>
		<contour>
			<point x="176" y="301" type="qcurve" smooth="yes"/>
			<point x="176" y="271"/>
			<point x="205" y="271" type="qcurve" smooth="yes"/>
			<point x="237" y="271"/>
			<point x="237" y="301" type="qcurve" smooth="yes"/>
			<point x="237" y="332"/>
			<point x="205" y="332" type="qcurve" smooth="yes"/>
			<point x="176" y="332"/>
		</contour>
		<contour>
			<point x="553" y="301" type="qcurve" smooth="yes"/>
			<point x="553" y="271"/>
			<point x="582" y="271" type="qcurve" smooth="yes"/>
			<point x="613" y="271"/>
			<point x="613" y="301" type="qcurve" smooth="yes"/>
			<point x="613" y="332"/>
			<point x="582" y="332" type="qcurve" smooth="yes"/>
			<point x="553" y="332"/>
		</contour>
		<contour>
			<point x="364" y="490" type="qcurve" smooth="yes"/>
			<point x="364" y="458"/>
			<point x="395" y="458" type="qcurve" smooth="yes"/>
			<point x="424" y="458"/>
			<point x="424" y="490" type="qcurve" smooth="yes"/>
			<point x="424" y="520"/>
			<point x="395" y="520" type="qcurve" smooth="yes"/>
			<point x="364" y="520"/>
		</contour>
		<contour>
			<point x="364" y="113" type="qcurve" smooth="yes"/>
			<point x="364" y="83"/>
			<point x="395" y="83" type="qcurve" smooth="yes"/>
			<point x="424" y="83"/>
			<point x="424" y="113" type="qcurve" smooth="yes"/>
			<point x="424" y="143"/>
			<point x="395" y="143" type="qcurve" smooth="yes"/>
			<point x="364" y="143"/>
		</contour>
		<contour>
			<point x="529" y="396" type="qcurve" smooth="yes"/>
			<point x="529" y="365"/>
			<point x="559" y="365" type="qcurve" smooth="yes"/>
			<point x="588" y="365"/>
			<point x="588" y="396" type="qcurve" smooth="yes"/>
			<point x="588" y="425"/>
			<point x="559" y="425" type="qcurve" smooth="yes"/>
			<point x="529" y="425"/>
		</contour>
		<contour>
			<point x="529" y="206" type="qcurve" smooth="yes"/>
			<point x="529" y="178"/>
			<point x="559" y="178" type="qcurve" smooth="yes"/>
			<point x="588" y="178"/>
			<point x="588" y="206" type="qcurve" smooth="yes"/>
			<point x="588" y="236"/>
			<point x="559" y="236" type="qcurve" smooth="yes"/>
			<point x="529" y="236"/>
		</contour>
		<contour>
			<point x="200" y="396" type="qcurve" smooth="yes"/>
			<point x="200" y="365"/>
			<point x="229" y="365" type="qcurve" smooth="yes"/>
			<point x="261" y="365"/>
			<point x="261" y="396" type="qcurve" smooth="yes"/>
			<point x="261" y="425"/>
			<point x="229" y="425" type="qcurve" smooth="yes"/>
			<point x="200" y="425"/>
		</contour>
		<contour>
			<point x="200" y="206" type="qcurve" smooth="yes"/>
			<point x="200" y="178"/>
			<point x="229" y="178" type="qcurve" smooth="yes"/>
			<point x="261" y="178"/>
			<point x="261" y="206" type="qcurve" smooth="yes"/>
			<point x="261" y="236"/>
			<point x="229" y="236" type="qcurve" smooth="yes"/>
			<point x="200" y="236"/>
		</contour>
		<contour>
			<point x="271" y="466" type="qcurve" smooth="yes"/>
			<point x="271" y="436"/>
			<point x="299" y="436" type="qcurve" smooth="yes"/>
			<point x="330" y="436"/>
			<point x="330" y="466" type="qcurve" smooth="yes"/>
			<point x="330" y="496"/>
			<point x="299" y="496" type="qcurve" smooth="yes"/>
			<point x="271" y="496"/>
		</contour>
		<contour>
			<point x="457" y="466" type="qcurve" smooth="yes"/>
			<point x="457" y="451"/>
			<point x="476" y="436"/>
			<point x="489" y="436" type="qcurve" smooth="yes"/>
			<point x="518" y="436"/>
			<point x="518" y="466" type="qcurve" smooth="yes"/>
			<point x="518" y="496"/>
			<point x="489" y="496" type="qcurve" smooth="yes"/>
			<point x="476" y="496"/>
			<point x="457" y="481"/>
		</contour>
		<contour>
			<point x="271" y="136" type="qcurve" smooth="yes"/>
			<point x="271" y="107"/>
			<point x="299" y="107" type="qcurve" smooth="yes"/>
			<point x="330" y="107"/>
			<point x="330" y="136" type="qcurve" smooth="yes"/>
			<point x="330" y="167"/>
			<point x="299" y="167" type="qcurve" smooth="yes"/>
			<point x="271" y="167"/>
		</contour>
		<contour>
			<point x="457" y="136" type="qcurve" smooth="yes"/>
			<point x="457" y="107"/>
			<point x="489" y="107" type="qcurve" smooth="yes"/>
			<point x="518" y="107"/>
			<point x="518" y="136" type="qcurve" smooth="yes"/>
			<point x="518" y="167"/>
			<point x="489" y="167" type="qcurve" smooth="yes"/>
			<point x="476" y="167"/>
			<point x="457" y="151"/>
		</contour>
		<contour>
			<point x="391" y="647" type="line"/>
			<point x="391" y="647" type="line"/>
		</contour>
		<contour>
			<point x="409" y="656" type="line"/>
			<point x="409" y="656" type="line"/>
		</contour>
		<contour>
			<point x="391" y="-56" type="line"/>
			<point x="391" y="-56" type="line"/>
		</contour>
		<contour>
			<point x="409" y="-65" type="line"/>
			<point x="409" y="-65" type="line"/>
		</contour>
		<contour>
			<point x="303" y="647" type="line"/>
			<point x="303" y="647" type="line"/>
		</contour>
		<contour>
			<point x="391" y="295" type="line"/>
			<point x="391" y="295" type="line"/>
		</contour>
		<contour>
			<point x="391" y="278" type="line"/>
			<point x="391" y="278" type="line"/>
		</contour>
	</outline>
</glyph>
<glyph name="uniFBBC" format="2">
	<advance width="246"/>
	<unicode hex="FBBC"/>
	<note>
		uniFBBC
  </note>
	<outline>
		<contour>
			<point x="88" y="-120" type="line"/>
			<point x="78" y="-116" type="line"/>
			<point x="40" y="-167" type="line"/>
			<point x="40" y="-263" type="line" smooth="yes"/>
			<point x="39" y="-304"/>
			<point x="39" y="-333" type="qcurve" smooth="yes"/>
			<point x="37" y="-383" type="line"/>
			<point x="35" y="-419" type="line"/>
			<point x="42" y="-424" type="line"/>
			<point x="84" y="-391"/>
			<point x="90" y="-330"/>
			<point x="90" y="-264" type="qcurve" smooth="yes"/>
			<point x="90" y="-200" type="line"/>
		</contour>
		<contour>
			<point x="208" y="-99" type="line"/>
			<point x="198" y="-96" type="line"/>
			<point x="159" y="-147" type="line"/>
			<point x="159" y="-243" type="line" smooth="yes"/>
			<point x="158" y="-284"/>
			<point x="158" y="-313" type="qcurve" smooth="yes"/>
			<point x="156" y="-363" type="line"/>
			<point x="155" y="-399" type="line"/>
			<point x="162" y="-403" type="line"/>
			<point x="204" y="-371"/>
			<point x="209" y="-310"/>
			<point x="209" y="-244" type="qcurve" smooth="yes"/>
			<point x="209" y="-180" type="line"/>
		</contour>
	</outline>
</glyph>
<glyph name="OrnateLeftParenthesis" format="2">
	<advance width="1272"/>
	<unicode hex="FD3E"/>
	<note>
		OrnateLeftParenthesis
  </note>
	<outline>
		<contour>
			<point x="486" y="512" type="line" smooth="yes"/>
			<point x="486" y="494"/>
			<point x="412" y="378"/>
			<point x="383" y="346"/>
			<point x="383" y="336" type="qcurve" smooth="yes"/>
			<point x="383" y="316"/>
			<point x="451" y="287"/>
			<point x="519" y="285" type="qcurve"/>
			<point x="563" y="97"/>
			<point x="743" y="-213"/>
			<point x="956" y="-389"/>
			<point x="993" y="-389" type="qcurve" smooth="yes"/>
			<point x="1000" y="-389"/>
			<point x="1009" y="-380"/>
			<point x="1009" y="-373" type="qcurve" smooth="yes"/>
			<point x="1009" y="-361"/>
			<point x="969" y="-342"/>
			<point x="871" y="-231"/>
			<point x="746" y="-22"/>
			<point x="648" y="210"/>
			<point x="635" y="291" type="qcurve"/>
			<point x="690" y="299"/>
			<point x="741" y="329"/>
			<point x="741" y="336" type="qcurve" smooth="yes"/>
			<point x="741" y="348"/>
			<point x="690" y="395"/>
			<point x="617" y="490"/>
			<point x="617" y="512" type="qcurve" smooth="yes"/>
			<point x="617" y="518" type="line"/>
			<point x="626" y="518" type="line" smooth="yes"/>
			<point x="647" y="518"/>
			<point x="735" y="458"/>
			<point x="792" y="399"/>
			<point x="809" y="399" type="qcurve" smooth="yes"/>
			<point x="823" y="399"/>
			<point x="841" y="453"/>
			<point x="841" y="512" type="qcurve"/>
			<point x="881" y="527"/>
			<point x="927" y="569"/>
			<point x="927" y="583" type="qcurve" smooth="yes"/>
			<point x="927" y="598"/>
			<point x="880" y="638"/>
			<point x="841" y="652" type="qcurve"/>
			<point x="841" y="665" type="line" smooth="yes"/>
			<point x="841" y="700"/>
			<point x="816" y="768"/>
			<point x="802" y="768" type="qcurve" smooth="yes"/>
			<point x="789" y="768"/>
			<point x="746" y="723"/>
			<point x="649" y="650"/>
			<point x="626" y="650" type="qcurve" smooth="yes"/>
			<point x="613" y="650" type="line"/>
			<point x="613" y="656" type="line" smooth="yes"/>
			<point x="613" y="678"/>
			<point x="686" y="772"/>
			<point x="737" y="820"/>
			<point x="737" y="832" type="qcurve" smooth="yes"/>
			<point x="737" y="839"/>
			<point x="685" y="869"/>
			<point x="632" y="877" type="qcurve"/>
			<point x="640" y="925"/>
			<point x="661" y="987" type="qcurve" smooth="yes"/>
			<point x="700" y="1102"/>
			<point x="834" y="1352"/>
			<point x="949" y="1495"/>
			<point x="1004" y="1530"/>
			<point x="1004" y="1535" type="qcurve" smooth="yes"/>
			<point x="1005" y="1541" type="line"/>
			<point x="1005" y="1548"/>
			<point x="997" y="1557"/>
			<point x="990" y="1557" type="qcurve" smooth="yes"/>
			<point x="952" y="1557"/>
			<point x="736" y="1379"/>
			<point x="559" y="1069"/>
			<point x="515" y="883" type="qcurve"/>
			<point x="447" y="881"/>
			<point x="380" y="852"/>
			<point x="380" y="833" type="qcurve" smooth="yes"/>
			<point x="380" y="824"/>
			<point x="396" y="804"/>
			<point x="409" y="787" type="qcurve" smooth="yes"/>
			<point x="437" y="746" type="line" smooth="yes"/>
			<point x="457" y="715"/>
			<point x="482" y="666"/>
			<point x="482" y="656" type="qcurve" smooth="yes"/>
			<point x="482" y="650" type="line"/>
			<point x="476" y="650" type="line" smooth="yes"/>
			<point x="454" y="650"/>
			<point x="360" y="719"/>
			<point x="314" y="768"/>
			<point x="301" y="768" type="qcurve" smooth="yes"/>
			<point x="286" y="768"/>
			<point x="261" y="701"/>
			<point x="261" y="665" type="qcurve" smooth="yes"/>
			<point x="261" y="652" type="line"/>
			<point x="223" y="638"/>
			<point x="176" y="598"/>
			<point x="176" y="583" type="qcurve" smooth="yes"/>
			<point x="176" y="569"/>
			<point x="222" y="527"/>
			<point x="261" y="512" type="qcurve"/>
			<point x="261" y="454"/>
			<point x="280" y="399"/>
			<point x="294" y="399" type="qcurve" smooth="yes"/>
			<point x="311" y="399"/>
			<point x="370" y="460"/>
			<point x="454" y="518"/>
			<point x="474" y="518" type="qcurve" smooth="yes"/>
			<point x="486" y="518" type="line"/>
		</contour>
		<contour>
			<point x="802" y="438" type="qcurve"/>
			<point x="776" y="461"/>
			<point x="678" y="523"/>
			<point x="655" y="530"/>
			<point x="655" y="537" type="qcurve" smooth="yes"/>
			<point x="655" y="549"/>
			<point x="702" y="566"/>
			<point x="702" y="583" type="qcurve" smooth="yes"/>
			<point x="702" y="599"/>
			<point x="655" y="617"/>
			<point x="655" y="627" type="qcurve" smooth="yes"/>
			<point x="655" y="636"/>
			<point x="681" y="647"/>
			<point x="767" y="697"/>
			<point x="799" y="728" type="qcurve"/>
			<point x="813" y="702"/>
			<point x="820" y="664"/>
			<point x="820" y="638" type="qcurve"/>
			<point x="850" y="627"/>
			<point x="877" y="600"/>
			<point x="884" y="584" type="qcurve"/>
			<point x="878" y="569"/>
			<point x="850" y="540"/>
			<point x="820" y="529" type="qcurve"/>
			<point x="819" y="496"/>
			<point x="811" y="453"/>
		</contour>
		<contour>
			<point x="602" y="859" type="qcurve"/>
			<point x="635" y="854"/>
			<point x="688" y="834"/>
			<point x="695" y="826" type="qcurve"/>
			<point x="674" y="802"/>
			<point x="611" y="709"/>
			<point x="601" y="690"/>
			<point x="594" y="690" type="qcurve" smooth="yes"/>
			<point x="582" y="690"/>
			<point x="566" y="738"/>
			<point x="551" y="738" type="qcurve" smooth="yes"/>
			<point x="530" y="738"/>
			<point x="515" y="689"/>
			<point x="503" y="689" type="qcurve" smooth="yes"/>
			<point x="500" y="689"/>
			<point x="495" y="692"/>
			<point x="493" y="696" type="qcurve"/>
			<point x="481" y="722" type="line" smooth="yes"/>
			<point x="472" y="744"/>
			<point x="435" y="810"/>
			<point x="419" y="833" type="qcurve"/>
			<point x="433" y="845"/>
			<point x="487" y="859"/>
			<point x="538" y="864" type="qcurve"/>
			<point x="586" y="1091"/>
			<point x="831" y="1463"/>
			<point x="987" y="1545" type="qcurve"/>
			<point x="990" y="1541" type="line"/>
			<point x="868" y="1462"/>
			<point x="619" y="1003"/>
		</contour>
		<contour>
			<point x="468" y="582" type="qcurve" smooth="yes"/>
			<point x="468" y="615"/>
			<point x="516" y="666"/>
			<point x="549" y="666" type="qcurve" smooth="yes"/>
			<point x="585" y="666"/>
			<point x="633" y="615"/>
			<point x="633" y="582" type="qcurve" smooth="yes"/>
			<point x="633" y="549"/>
			<point x="583" y="498"/>
			<point x="549" y="498" type="qcurve" smooth="yes"/>
			<point x="515" y="498"/>
			<point x="468" y="549"/>
		</contour>
		<contour>
			<point x="301" y="438" type="qcurve"/>
			<point x="292" y="453"/>
			<point x="283" y="496"/>
			<point x="283" y="529" type="qcurve"/>
			<point x="253" y="540"/>
			<point x="225" y="569"/>
			<point x="219" y="584" type="qcurve"/>
			<point x="226" y="600"/>
			<point x="253" y="627"/>
			<point x="283" y="638" type="qcurve"/>
			<point x="283" y="661"/>
			<point x="289" y="701"/>
			<point x="303" y="728" type="qcurve"/>
			<point x="333" y="700"/>
			<point x="421" y="647"/>
			<point x="448" y="636"/>
			<point x="448" y="627" type="qcurve" smooth="yes"/>
			<point x="448" y="617"/>
			<point x="401" y="599"/>
			<point x="401" y="583" type="qcurve" smooth="yes"/>
			<point x="401" y="566"/>
			<point x="448" y="549"/>
			<point x="448" y="537" type="qcurve" smooth="yes"/>
			<point x="448" y="530"/>
			<point x="425" y="523"/>
			<point x="327" y="461"/>
		</contour>
		<contour>
			<point x="423" y="336" type="qcurve"/>
			<point x="438" y="358"/>
			<point x="476" y="424"/>
			<point x="485" y="447" type="qcurve" smooth="yes"/>
			<point x="497" y="472" type="line" smooth="yes"/>
			<point x="499" y="477"/>
			<point x="503" y="479"/>
			<point x="507" y="479" type="qcurve" smooth="yes"/>
			<point x="519" y="479"/>
			<point x="534" y="430"/>
			<point x="555" y="430" type="qcurve" smooth="yes"/>
			<point x="569" y="430"/>
			<point x="585" y="478"/>
			<point x="598" y="478" type="qcurve" smooth="yes"/>
			<point x="604" y="478"/>
			<point x="614" y="459"/>
			<point x="678" y="367"/>
			<point x="699" y="342" type="qcurve"/>
			<point x="692" y="334"/>
			<point x="638" y="314"/>
			<point x="605" y="309" type="qcurve"/>
			<point x="622" y="163"/>
			<point x="875" y="-299"/>
			<point x="993" y="-373" type="qcurve"/>
			<point x="991" y="-377" type="line"/>
			<point x="829" y="-292"/>
			<point x="583" y="93"/>
			<point x="542" y="304" type="qcurve"/>
			<point x="490" y="309"/>
			<point x="436" y="323"/>
		</contour>
	</outline>
</glyph>
<glyph name="OrnateRightParenthesis" format="2">
	<advance width="1272"/>
	<unicode hex="FD3F"/>
	<note>
		OrnateRightParenthesis
  </note>
	<outline>
		<contour>
			<point x="787" y="656" type="line" smooth="yes"/>
			<point x="787" y="674"/>
			<point x="859" y="788"/>
			<point x="890" y="822"/>
			<point x="890" y="833" type="qcurve" smooth="yes"/>
			<point x="890" y="852"/>
			<point x="822" y="881"/>
			<point x="754" y="883" type="qcurve"/>
			<point x="710" y="1069"/>
			<point x="533" y="1379"/>
			<point x="317" y="1557"/>
			<point x="279" y="1557" type="qcurve" smooth="yes"/>
			<point x="272" y="1557"/>
			<point x="264" y="1548"/>
			<point x="264" y="1541" type="qcurve" smooth="yes"/>
			<point x="264" y="1529"/>
			<point x="301" y="1510"/>
			<point x="396" y="1408"/>
			<point x="523" y="1198"/>
			<point x="624" y="960"/>
			<point x="637" y="877" type="qcurve"/>
			<point x="583" y="869"/>
			<point x="532" y="839"/>
			<point x="532" y="832" type="qcurve" smooth="yes"/>
			<point x="532" y="820"/>
			<point x="583" y="773"/>
			<point x="656" y="679"/>
			<point x="656" y="657" type="qcurve" smooth="yes"/>
			<point x="656" y="650" type="line"/>
			<point x="646" y="650" type="line" smooth="yes"/>
			<point x="626" y="650"/>
			<point x="538" y="710"/>
			<point x="481" y="769"/>
			<point x="464" y="769" type="qcurve" smooth="yes"/>
			<point x="450" y="769"/>
			<point x="432" y="715"/>
			<point x="432" y="657" type="qcurve"/>
			<point x="391" y="641"/>
			<point x="345" y="599"/>
			<point x="345" y="585" type="qcurve" smooth="yes"/>
			<point x="345" y="570"/>
			<point x="393" y="530"/>
			<point x="432" y="516" type="qcurve"/>
			<point x="432" y="503" type="line" smooth="yes"/>
			<point x="432" y="468"/>
			<point x="456" y="400"/>
			<point x="470" y="400" type="qcurve" smooth="yes"/>
			<point x="484" y="400"/>
			<point x="526" y="446"/>
			<point x="623" y="518"/>
			<point x="646" y="518" type="qcurve" smooth="yes"/>
			<point x="659" y="518" type="line"/>
			<point x="659" y="512" type="line" smooth="yes"/>
			<point x="659" y="490"/>
			<point x="587" y="396"/>
			<point x="535" y="348"/>
			<point x="535" y="336" type="qcurve" smooth="yes"/>
			<point x="535" y="329"/>
			<point x="588" y="299"/>
			<point x="641" y="291" type="qcurve"/>
			<point x="627" y="211"/>
			<point x="534" y="-12"/>
			<point x="417" y="-215"/>
			<point x="317" y="-332"/>
			<point x="271" y="-360"/>
			<point x="267" y="-373" type="qcurve"/>
			<point x="267" y="-380"/>
			<point x="276" y="-389"/>
			<point x="283" y="-389" type="qcurve" smooth="yes"/>
			<point x="321" y="-389"/>
			<point x="534" y="-213"/>
			<point x="714" y="97"/>
			<point x="758" y="285" type="qcurve"/>
			<point x="825" y="287"/>
			<point x="893" y="316"/>
			<point x="893" y="336" type="qcurve" smooth="yes"/>
			<point x="893" y="346"/>
			<point x="858" y="386"/>
			<point x="790" y="495"/>
			<point x="790" y="512" type="qcurve" smooth="yes"/>
			<point x="790" y="518" type="line"/>
			<point x="797" y="518" type="line" smooth="yes"/>
			<point x="819" y="518"/>
			<point x="912" y="449"/>
			<point x="959" y="400"/>
			<point x="972" y="400" type="qcurve" smooth="yes"/>
			<point x="987" y="400"/>
			<point x="1012" y="468"/>
			<point x="1012" y="503" type="qcurve" smooth="yes"/>
			<point x="1012" y="516" type="line"/>
			<point x="1049" y="530"/>
			<point x="1097" y="570"/>
			<point x="1097" y="585" type="qcurve" smooth="yes"/>
			<point x="1097" y="599"/>
			<point x="1051" y="641"/>
			<point x="1012" y="657" type="qcurve"/>
			<point x="1012" y="714"/>
			<point x="992" y="769"/>
			<point x="978" y="769" type="qcurve" smooth="yes"/>
			<point x="961" y="769"/>
			<point x="903" y="708"/>
			<point x="819" y="650"/>
			<point x="799" y="650" type="qcurve" smooth="yes"/>
			<point x="787" y="650" type="line"/>
		</contour>
		<contour>
			<point x="470" y="730" type="qcurve"/>
			<point x="497" y="707"/>
			<point x="595" y="645"/>
			<point x="618" y="638"/>
			<point x="618" y="631" type="qcurve" smooth="yes"/>
			<point x="618" y="619"/>
			<point x="570" y="602"/>
			<point x="570" y="584" type="qcurve" smooth="yes"/>
			<point x="570" y="569"/>
			<point x="618" y="550"/>
			<point x="618" y="541" type="qcurve" smooth="yes"/>
			<point x="618" y="532"/>
			<point x="590" y="521"/>
			<point x="500" y="467"/>
			<point x="474" y="440" type="qcurve"/>
			<point x="459" y="466"/>
			<point x="453" y="503"/>
			<point x="453" y="530" type="qcurve"/>
			<point x="423" y="541"/>
			<point x="396" y="568"/>
			<point x="389" y="583" type="qcurve"/>
			<point x="395" y="599"/>
			<point x="423" y="628"/>
			<point x="453" y="639" type="qcurve"/>
			<point x="454" y="672"/>
			<point x="462" y="715"/>
		</contour>
		<contour>
			<point x="670" y="309" type="qcurve"/>
			<point x="638" y="314"/>
			<point x="584" y="334"/>
			<point x="578" y="342" type="qcurve"/>
			<point x="599" y="367"/>
			<point x="662" y="459"/>
			<point x="671" y="478"/>
			<point x="679" y="478" type="qcurve" smooth="yes"/>
			<point x="691" y="478"/>
			<point x="707" y="430"/>
			<point x="722" y="430" type="qcurve" smooth="yes"/>
			<point x="743" y="430"/>
			<point x="758" y="479"/>
			<point x="769" y="479" type="qcurve" smooth="yes"/>
			<point x="772" y="479"/>
			<point x="778" y="477"/>
			<point x="780" y="472" type="qcurve" smooth="yes"/>
			<point x="791" y="447" type="line" smooth="yes"/>
			<point x="801" y="424"/>
			<point x="837" y="358"/>
			<point x="854" y="336" type="qcurve"/>
			<point x="840" y="323"/>
			<point x="786" y="309"/>
			<point x="735" y="304" type="qcurve"/>
			<point x="687" y="77"/>
			<point x="442" y="-295"/>
			<point x="286" y="-377" type="qcurve"/>
			<point x="283" y="-373" type="line"/>
			<point x="401" y="-299"/>
			<point x="654" y="163"/>
		</contour>
		<contour>
			<point x="805" y="586" type="qcurve" smooth="yes"/>
			<point x="805" y="553"/>
			<point x="757" y="503"/>
			<point x="723" y="503" type="qcurve" smooth="yes"/>
			<point x="688" y="503"/>
			<point x="640" y="553"/>
			<point x="640" y="586" type="qcurve" smooth="yes"/>
			<point x="640" y="619"/>
			<point x="689" y="670"/>
			<point x="723" y="670" type="qcurve" smooth="yes"/>
			<point x="757" y="670"/>
			<point x="805" y="619"/>
		</contour>
		<contour>
			<point x="972" y="730" type="qcurve"/>
			<point x="980" y="715"/>
			<point x="990" y="672"/>
			<point x="990" y="639" type="qcurve"/>
			<point x="1020" y="628"/>
			<point x="1048" y="599"/>
			<point x="1054" y="583" type="qcurve"/>
			<point x="1047" y="568"/>
			<point x="1020" y="541"/>
			<point x="990" y="530" type="qcurve"/>
			<point x="990" y="506"/>
			<point x="983" y="466"/>
			<point x="969" y="440" type="qcurve"/>
			<point x="939" y="468"/>
			<point x="852" y="521"/>
			<point x="824" y="532"/>
			<point x="824" y="541" type="qcurve" smooth="yes"/>
			<point x="824" y="550"/>
			<point x="872" y="569"/>
			<point x="872" y="584" type="qcurve" smooth="yes"/>
			<point x="872" y="602"/>
			<point x="824" y="619"/>
			<point x="824" y="631" type="qcurve" smooth="yes"/>
			<point x="824" y="638"/>
			<point x="847" y="645"/>
			<point x="946" y="707"/>
		</contour>
		<contour>
			<point x="850" y="833" type="qcurve"/>
			<point x="834" y="810"/>
			<point x="797" y="744"/>
			<point x="788" y="722" type="qcurve" smooth="yes"/>
			<point x="776" y="696" type="line"/>
			<point x="774" y="692"/>
			<point x="769" y="689"/>
			<point x="766" y="689" type="qcurve" smooth="yes"/>
			<point x="754" y="689"/>
			<point x="739" y="738"/>
			<point x="718" y="738" type="qcurve" smooth="yes"/>
			<point x="703" y="738"/>
			<point x="688" y="690"/>
			<point x="675" y="690" type="qcurve" smooth="yes"/>
			<point x="668" y="690"/>
			<point x="658" y="709"/>
			<point x="595" y="802"/>
			<point x="574" y="826" type="qcurve"/>
			<point x="581" y="834"/>
			<point x="635" y="854"/>
			<point x="667" y="859" type="qcurve"/>
			<point x="650" y="1003"/>
			<point x="401" y="1462"/>
			<point x="279" y="1541" type="qcurve"/>
			<point x="282" y="1545" type="line"/>
			<point x="438" y="1463"/>
			<point x="683" y="1091"/>
			<point x="731" y="864" type="qcurve"/>
			<point x="782" y="859"/>
			<point x="837" y="845"/>
		</contour>
	</outline>
</glyph>
<glyph name="Mhmd" format="2">
	<advance width="1099"/>
	<unicode hex="FDF4"/>
	<note>
		Mhmd
  </note>
	<outline>
		<contour>
			<point x="516" y="213" type="qcurve" smooth="yes"/>
			<point x="516" y="250"/>
			<point x="599" y="314"/>
			<point x="737" y="377" type="qcurve" smooth="yes"/>
			<point x="838" y="422"/>
			<point x="913" y="490"/>
			<point x="935" y="534" type="qcurve"/>
			<point x="934" y="541" type="line"/>
			<point x="896" y="557"/>
			<point x="735" y="578"/>
			<point x="677" y="578" type="qcurve" smooth="yes"/>
			<point x="661" y="578"/>
			<point x="643" y="577" type="qcurve"/>
			<point x="700" y="668"/>
			<point x="881" y="734" type="qcurve" smooth="yes"/>
			<point x="933" y="751"/>
			<point x="961" y="766" type="qcurve" smooth="yes"/>
			<point x="997" y="782"/>
			<point x="1072" y="887"/>
			<point x="1072" y="921" type="qcurve" smooth="yes"/>
			<point x="1072" y="949"/>
			<point x="985" y="1007"/>
			<point x="947" y="1007" type="qcurve" smooth="yes"/>
			<point x="917" y="1007"/>
			<point x="858" y="936"/>
			<point x="824" y="870"/>
			<point x="824" y="850" type="qcurve" smooth="yes"/>
			<point x="824" y="833"/>
			<point x="842" y="811"/>
			<point x="856" y="799" type="qcurve"/>
			<point x="762" y="757"/>
			<point x="642" y="659"/>
			<point x="562" y="534"/>
			<point x="547" y="490" type="qcurve"/>
			<point x="556" y="481" type="line"/>
			<point x="579" y="481"/>
			<point x="599" y="481" type="qcurve" smooth="yes"/>
			<point x="667" y="481"/>
			<point x="783" y="468"/>
			<point x="797" y="461" type="qcurve"/>
			<point x="713" y="425" type="line" smooth="yes"/>
			<point x="613" y="383"/>
			<point x="525" y="312"/>
			<point x="467" y="219"/>
			<point x="455" y="176" type="qcurve"/>
			<point x="408" y="210"/>
			<point x="408" y="297" type="qcurve" smooth="yes"/>
			<point x="408" y="310"/>
			<point x="422" y="400" type="qcurve"/>
			<point x="392" y="404" type="line"/>
			<point x="360" y="280"/>
			<point x="304" y="149"/>
			<point x="154" y="37"/>
			<point x="56" y="-15" type="qcurve"/>
			<point x="58" y="-37" type="line"/>
			<point x="155" y="-25"/>
			<point x="239" y="-5"/>
			<point x="258" y="8" type="qcurve"/>
			<point x="317" y="73"/>
			<point x="344" y="141" type="qcurve"/>
			<point x="345" y="141" type="line"/>
			<point x="345" y="79"/>
			<point x="410" y="0"/>
			<point x="471" y="0" type="qcurve" smooth="yes"/>
			<point x="530" y="2"/>
			<point x="621" y="100"/>
			<point x="621" y="157" type="qcurve"/>
			<point x="616" y="165" type="line"/>
			<point x="610" y="171"/>
			<point x="552" y="181" type="qcurve" smooth="yes"/>
			<point x="516" y="187"/>
		</contour>
	</outline>
</glyph>
<glyph name="uniFDFA" format="2">
	<advance width="2586"/>
	<unicode hex="FDFA"/>
	<note>
		uniFDFA
  </note>
	<outline>
		<contour>
			<point x="1233" y="720" type="qcurve" smooth="yes"/>
			<point x="1227" y="709"/>
			<point x="1214" y="679"/>
			<point x="1202" y="643"/>
			<point x="1195" y="604"/>
			<point x="1195" y="586" type="qcurve" smooth="yes"/>
			<point x="1195" y="547"/>
			<point x="1255" y="504"/>
			<point x="1297" y="495" type="qcurve" smooth="yes"/>
			<point x="1320" y="490"/>
			<point x="1369" y="482"/>
			<point x="1417" y="480"/>
			<point x="1459" y="479"/>
			<point x="1475" y="479" type="qcurve" smooth="yes"/>
			<point x="1510" y="479"/>
			<point x="1582" y="481"/>
			<point x="1646" y="485"/>
			<point x="1698" y="489"/>
			<point x="1715" y="490" type="qcurve" smooth="yes"/>
			<point x="1743" y="492"/>
			<point x="1846" y="503"/>
			<point x="1977" y="521"/>
			<point x="2129" y="543"/>
			<point x="2283" y="570"/>
			<point x="2434" y="603"/>
			<point x="2498" y="622" type="qcurve"/>
			<point x="2497" y="644" type="line"/>
			<point x="2457" y="648"/>
			<point x="2335" y="655"/>
			<point x="2259" y="655" type="qcurve" smooth="yes"/>
			<point x="2195" y="655"/>
			<point x="2050" y="650"/>
			<point x="1971" y="644" type="qcurve" smooth="yes"/>
			<point x="1755" y="626" type="line" smooth="yes"/>
			<point x="1703" y="622"/>
			<point x="1593" y="618"/>
			<point x="1541" y="618" type="qcurve" smooth="yes"/>
			<point x="1479" y="618"/>
			<point x="1362" y="625"/>
			<point x="1326" y="635" type="qcurve" smooth="yes"/>
			<point x="1295" y="643"/>
			<point x="1271" y="665"/>
			<point x="1271" y="679" type="qcurve" smooth="yes"/>
			<point x="1271" y="685"/>
			<point x="1275" y="700"/>
			<point x="1277" y="704" type="qcurve"/>
			<point x="1293" y="733"/>
			<point x="1349" y="776"/>
			<point x="1387" y="796" type="qcurve"/>
			<point x="1399" y="802"/>
			<point x="1418" y="813"/>
			<point x="1438" y="823"/>
			<point x="1458" y="833"/>
			<point x="1471" y="837" type="qcurve" smooth="yes"/>
			<point x="1496" y="848"/>
			<point x="1538" y="869"/>
			<point x="1573" y="893"/>
			<point x="1602" y="923"/>
			<point x="1612" y="943" type="qcurve"/>
			<point x="1615" y="908"/>
			<point x="1628" y="846"/>
			<point x="1659" y="801"/>
			<point x="1705" y="774"/>
			<point x="1739" y="774" type="qcurve" smooth="yes"/>
			<point x="1765" y="774"/>
			<point x="1804" y="794"/>
			<point x="1838" y="827"/>
			<point x="1867" y="870"/>
			<point x="1882" y="894" type="qcurve" smooth="yes"/>
			<point x="1892" y="910"/>
			<point x="1905" y="929"/>
			<point x="1916" y="939"/>
			<point x="1924" y="943"/>
			<point x="1928" y="943" type="qcurve" smooth="yes"/>
			<point x="1936" y="943"/>
			<point x="1949" y="937"/>
			<point x="1958" y="931" type="qcurve" smooth="yes"/>
			<point x="1990" y="912"/>
			<point x="2049" y="896"/>
			<point x="2081" y="896" type="qcurve" smooth="yes"/>
			<point x="2111" y="896"/>
			<point x="2165" y="907"/>
			<point x="2195" y="919" type="qcurve" smooth="yes"/>
			<point x="2235" y="935"/>
			<point x="2295" y="977"/>
			<point x="2340" y="1021"/>
			<point x="2374" y="1068"/>
			<point x="2387" y="1089" type="qcurve" smooth="yes"/>
			<point x="2407" y="1120"/>
			<point x="2441" y="1194"/>
			<point x="2441" y="1235" type="qcurve" smooth="yes"/>
			<point x="2441" y="1263"/>
			<point x="2401" y="1299"/>
			<point x="2365" y="1299" type="qcurve" smooth="yes"/>
			<point x="2341" y="1299"/>
			<point x="2288" y="1285"/>
			<point x="2226" y="1250"/>
			<point x="2157" y="1190"/>
			<point x="2116" y="1145" type="qcurve"/>
			<point x="2107" y="1133"/>
			<point x="2081" y="1101"/>
			<point x="2054" y="1069"/>
			<point x="2029" y="1037"/>
			<point x="2021" y="1026" type="qcurve"/>
			<point x="2011" y="1030"/>
			<point x="1993" y="1038" type="qcurve" smooth="yes"/>
			<point x="1986" y="1041"/>
			<point x="1970" y="1046"/>
			<point x="1962" y="1046" type="qcurve" smooth="yes"/>
			<point x="1949" y="1046"/>
			<point x="1930" y="1036"/>
			<point x="1919" y="1023" type="qcurve" smooth="yes"/>
			<point x="1885" y="978" type="line" smooth="yes"/>
			<point x="1870" y="958"/>
			<point x="1824" y="933"/>
			<point x="1790" y="933" type="qcurve" smooth="yes"/>
			<point x="1752" y="933"/>
			<point x="1710" y="968"/>
			<point x="1688" y="1028"/>
			<point x="1681" y="1112"/>
			<point x="1681" y="1161" type="qcurve" smooth="yes"/>
			<point x="1681" y="1247"/>
			<point x="1686" y="1378"/>
			<point x="1694" y="1475"/>
			<point x="1702" y="1542"/>
			<point x="1706" y="1563" type="qcurve"/>
			<point x="1686" y="1569" type="line"/>
			<point x="1670" y="1533"/>
			<point x="1650" y="1472"/>
			<point x="1637" y="1415"/>
			<point x="1630" y="1359"/>
			<point x="1628" y="1328" type="qcurve" smooth="yes"/>
			<point x="1627" y="1320"/>
			<point x="1624" y="1273"/>
			<point x="1620" y="1212"/>
			<point x="1616" y="1140"/>
			<point x="1615" y="1107" type="qcurve" smooth="yes"/>
			<point x="1613" y="1078"/>
			<point x="1610" y="1032"/>
			<point x="1610" y="1013" type="qcurve"/>
			<point x="1608" y="1004"/>
			<point x="1598" y="988"/>
			<point x="1572" y="969"/>
			<point x="1526" y="946"/>
			<point x="1487" y="930" type="qcurve" smooth="yes"/>
			<point x="1458" y="917"/>
			<point x="1400" y="885"/>
			<point x="1346" y="848"/>
			<point x="1299" y="807"/>
			<point x="1281" y="787" type="qcurve" smooth="yes"/>
			<point x="1269" y="771"/>
			<point x="1246" y="743"/>
		</contour>
		<contour>
			<point x="2213" y="1027" type="qcurve" smooth="yes"/>
			<point x="2190" y="1021"/>
			<point x="2133" y="1009"/>
			<point x="2096" y="1009" type="qcurve" smooth="yes"/>
			<point x="2090" y="1009"/>
			<point x="2072" y="1012"/>
			<point x="2064" y="1013" type="qcurve"/>
			<point x="2077" y="1030"/>
			<point x="2099" y="1058"/>
			<point x="2111" y="1071" type="qcurve" smooth="yes"/>
			<point x="2138" y="1101"/>
			<point x="2183" y="1140"/>
			<point x="2225" y="1163"/>
			<point x="2263" y="1171"/>
			<point x="2283" y="1171" type="qcurve" smooth="yes"/>
			<point x="2292" y="1171"/>
			<point x="2315" y="1167"/>
			<point x="2336" y="1158"/>
			<point x="2351" y="1141"/>
			<point x="2351" y="1128" type="qcurve" smooth="yes"/>
			<point x="2351" y="1111"/>
			<point x="2319" y="1079"/>
			<point x="2275" y="1051"/>
			<point x="2228" y="1032"/>
		</contour>
		<contour>
			<point x="2205" y="-77" type="qcurve" smooth="yes"/>
			<point x="2195" y="-89"/>
			<point x="2169" y="-122"/>
			<point x="2146" y="-159"/>
			<point x="2128" y="-198"/>
			<point x="2125" y="-215" type="qcurve"/>
			<point x="2103" y="-206"/>
			<point x="2077" y="-165"/>
			<point x="2063" y="-107"/>
			<point x="2059" y="-35"/>
			<point x="2059" y="5" type="qcurve" smooth="yes"/>
			<point x="2059" y="91"/>
			<point x="2063" y="222"/>
			<point x="2072" y="319"/>
			<point x="2080" y="386"/>
			<point x="2084" y="407" type="qcurve"/>
			<point x="2063" y="413" type="line"/>
			<point x="2048" y="377"/>
			<point x="2028" y="316"/>
			<point x="2015" y="259"/>
			<point x="2008" y="203"/>
			<point x="2006" y="172" type="qcurve" smooth="yes"/>
			<point x="2005" y="165"/>
			<point x="2002" y="118"/>
			<point x="1998" y="56"/>
			<point x="1994" y="-16"/>
			<point x="1993" y="-48" type="qcurve" smooth="yes"/>
			<point x="1992" y="-68"/>
			<point x="1989" y="-116"/>
			<point x="1985" y="-163"/>
			<point x="1982" y="-201"/>
			<point x="1979" y="-213" type="qcurve" smooth="yes"/>
			<point x="1967" y="-272"/>
			<point x="1916" y="-348"/>
			<point x="1873" y="-348" type="qcurve" smooth="yes"/>
			<point x="1860" y="-348"/>
			<point x="1840" y="-342"/>
			<point x="1831" y="-337" type="qcurve" smooth="yes"/>
			<point x="1822" y="-333"/>
			<point x="1803" y="-328"/>
			<point x="1795" y="-328" type="qcurve" smooth="yes"/>
			<point x="1782" y="-328"/>
			<point x="1763" y="-339"/>
			<point x="1753" y="-354" type="qcurve" smooth="yes"/>
			<point x="1747" y="-362"/>
			<point x="1732" y="-382"/>
			<point x="1721" y="-396" type="qcurve" smooth="yes"/>
			<point x="1705" y="-417"/>
			<point x="1668" y="-439"/>
			<point x="1633" y="-439" type="qcurve" smooth="yes"/>
			<point x="1621" y="-439"/>
			<point x="1593" y="-436"/>
			<point x="1583" y="-434" type="qcurve" smooth="yes"/>
			<point x="1558" y="-429"/>
			<point x="1532" y="-429" type="qcurve" smooth="yes"/>
			<point x="1474" y="-429"/>
			<point x="1363" y="-529"/>
			<point x="1317" y="-646" type="qcurve"/>
			<point x="1338" y="-656" type="line"/>
			<point x="1354" y="-634"/>
			<point x="1381" y="-604"/>
			<point x="1408" y="-587"/>
			<point x="1436" y="-580"/>
			<point x="1452" y="-580" type="qcurve" smooth="yes"/>
			<point x="1461" y="-580"/>
			<point x="1489" y="-586"/>
			<point x="1501" y="-590" type="qcurve" smooth="yes"/>
			<point x="1514" y="-593"/>
			<point x="1536" y="-598"/>
			<point x="1548" y="-598" type="qcurve" smooth="yes"/>
			<point x="1565" y="-598"/>
			<point x="1601" y="-591"/>
			<point x="1618" y="-582" type="qcurve" smooth="yes"/>
			<point x="1647" y="-567"/>
			<point x="1694" y="-512"/>
			<point x="1716" y="-481" type="qcurve" smooth="yes"/>
			<point x="1727" y="-465"/>
			<point x="1740" y="-446"/>
			<point x="1749" y="-435"/>
			<point x="1756" y="-431"/>
			<point x="1761" y="-431" type="qcurve" smooth="yes"/>
			<point x="1767" y="-431"/>
			<point x="1779" y="-436"/>
			<point x="1789" y="-441" type="qcurve" smooth="yes"/>
			<point x="1801" y="-447"/>
			<point x="1822" y="-455"/>
			<point x="1839" y="-455" type="qcurve" smooth="yes"/>
			<point x="1866" y="-455"/>
			<point x="1914" y="-438"/>
			<point x="1956" y="-399"/>
			<point x="1991" y="-336"/>
			<point x="2005" y="-291" type="qcurve"/>
			<point x="2017" y="-332"/>
			<point x="2069" y="-381"/>
			<point x="2117" y="-381" type="qcurve" smooth="yes"/>
			<point x="2179" y="-381"/>
			<point x="2295" y="-335"/>
			<point x="2392" y="-260"/>
			<point x="2463" y="-166"/>
			<point x="2481" y="-118" type="qcurve"/>
			<point x="2463" y="-107" type="line"/>
			<point x="2437" y="-146"/>
			<point x="2369" y="-193"/>
			<point x="2324" y="-206" type="qcurve"/>
			<point x="2319" y="-206" type="line" smooth="yes"/>
			<point x="2305" y="-206"/>
			<point x="2275" y="-198"/>
			<point x="2250" y="-182"/>
			<point x="2234" y="-156"/>
			<point x="2234" y="-137" type="qcurve" smooth="yes"/>
			<point x="2234" y="-122"/>
			<point x="2249" y="-92"/>
			<point x="2262" y="-81" type="qcurve" smooth="yes"/>
			<point x="2280" y="-66"/>
			<point x="2324" y="-51"/>
			<point x="2347" y="-51" type="qcurve" smooth="yes"/>
			<point x="2364" y="-51"/>
			<point x="2397" y="-62"/>
			<point x="2411" y="-74" type="qcurve"/>
			<point x="2419" y="-75" type="line"/>
			<point x="2436" y="-66"/>
			<point x="2448" y="-33"/>
			<point x="2448" y="-20" type="qcurve" smooth="yes"/>
			<point x="2448" y="-4"/>
			<point x="2436" y="18"/>
			<point x="2416" y="32"/>
			<point x="2392" y="39"/>
			<point x="2379" y="39" type="qcurve" smooth="yes"/>
			<point x="2354" y="39"/>
			<point x="2309" y="20"/>
			<point x="2267" y="-11"/>
			<point x="2226" y="-53"/>
		</contour>
		<contour>
			<point x="786" y="177" type="qcurve" smooth="yes"/>
			<point x="781" y="93" type="line" smooth="yes"/>
			<point x="780" y="62"/>
			<point x="759" y="24"/>
			<point x="745" y="11" type="qcurve" smooth="yes"/>
			<point x="735" y="1"/>
			<point x="703" y="-22"/>
			<point x="669" y="-46"/>
			<point x="636" y="-67"/>
			<point x="625" y="-75" type="qcurve" smooth="yes"/>
			<point x="598" y="-93"/>
			<point x="564" y="-123"/>
			<point x="547" y="-143" type="qcurve" smooth="yes"/>
			<point x="534" y="-158"/>
			<point x="511" y="-188"/>
			<point x="499" y="-211" type="qcurve"/>
			<point x="494" y="-218"/>
			<point x="482" y="-243"/>
			<point x="470" y="-270"/>
			<point x="460" y="-295"/>
			<point x="458" y="-302" type="qcurve"/>
			<point x="400" y="-331"/>
			<point x="313" y="-386"/>
			<point x="244" y="-450"/>
			<point x="190" y="-531"/>
			<point x="164" y="-585" type="qcurve" smooth="yes"/>
			<point x="135" y="-644"/>
			<point x="104" y="-780"/>
			<point x="90" y="-931"/>
			<point x="88" y="-1094"/>
			<point x="88" y="-1180" type="qcurve" smooth="yes"/>
			<point x="88" y="-1229"/>
			<point x="89" y="-1335"/>
			<point x="90" y="-1382" type="qcurve"/>
			<point x="125" y="-1382" type="line"/>
			<point x="129" y="-1344"/>
			<point x="136" y="-1232"/>
			<point x="143" y="-1111"/>
			<point x="149" y="-992"/>
			<point x="153" y="-947" type="qcurve" smooth="yes"/>
			<point x="160" y="-848"/>
			<point x="174" y="-728"/>
			<point x="188" y="-654"/>
			<point x="206" y="-611"/>
			<point x="216" y="-590" type="qcurve" smooth="yes"/>
			<point x="238" y="-545"/>
			<point x="321" y="-483"/>
			<point x="419" y="-440"/>
			<point x="526" y="-414"/>
			<point x="574" y="-405" type="qcurve" smooth="yes"/>
			<point x="588" y="-402"/>
			<point x="601" y="-396"/>
			<point x="605" y="-394" type="qcurve" smooth="yes"/>
			<point x="622" y="-383"/>
			<point x="656" y="-336"/>
			<point x="682" y="-284"/>
			<point x="699" y="-235"/>
			<point x="699" y="-221" type="qcurve" smooth="yes"/>
			<point x="699" y="-196"/>
			<point x="660" y="-180" type="qcurve" smooth="yes"/>
			<point x="645" y="-174"/>
			<point x="614" y="-165"/>
			<point x="600" y="-161" type="qcurve"/>
			<point x="616" y="-148"/>
			<point x="635" y="-136" type="qcurve" smooth="yes"/>
			<point x="692" y="-101"/>
			<point x="759" y="-49"/>
			<point x="778" y="-17" type="qcurve"/>
			<point x="779" y="-58"/>
			<point x="790" y="-132"/>
			<point x="819" y="-188"/>
			<point x="868" y="-222"/>
			<point x="907" y="-222" type="qcurve" smooth="yes"/>
			<point x="933" y="-222"/>
			<point x="972" y="-201"/>
			<point x="1005" y="-169"/>
			<point x="1035" y="-125"/>
			<point x="1049" y="-102" type="qcurve" smooth="yes"/>
			<point x="1060" y="-86"/>
			<point x="1073" y="-67"/>
			<point x="1083" y="-56"/>
			<point x="1092" y="-53"/>
			<point x="1096" y="-53" type="qcurve" smooth="yes"/>
			<point x="1101" y="-53"/>
			<point x="1114" y="-58"/>
			<point x="1123" y="-63" type="qcurve" smooth="yes"/>
			<point x="1136" y="-69"/>
			<point x="1157" y="-77"/>
			<point x="1174" y="-77" type="qcurve" smooth="yes"/>
			<point x="1229" y="-77"/>
			<point x="1272" y="-3" type="qcurve"/>
			<point x="1291" y="-9"/>
			<point x="1308" y="-9" type="qcurve" smooth="yes"/>
			<point x="1338" y="-9"/>
			<point x="1386" y="22"/>
			<point x="1422" y="75"/>
			<point x="1448" y="143"/>
			<point x="1457" y="182" type="qcurve"/>
			<point x="1427" y="188" type="line"/>
			<point x="1423" y="174"/>
			<point x="1412" y="143"/>
			<point x="1395" y="118"/>
			<point x="1372" y="101"/>
			<point x="1357" y="101" type="qcurve" smooth="yes"/>
			<point x="1347" y="101"/>
			<point x="1325" y="105"/>
			<point x="1311" y="112" type="qcurve"/>
			<point x="1301" y="110" type="line"/>
			<point x="1288" y="87"/>
			<point x="1266" y="56"/>
			<point x="1245" y="38"/>
			<point x="1222" y="30"/>
			<point x="1208" y="30" type="qcurve" smooth="yes"/>
			<point x="1194" y="30"/>
			<point x="1175" y="36"/>
			<point x="1166" y="41" type="qcurve" smooth="yes"/>
			<point x="1157" y="45"/>
			<point x="1137" y="50"/>
			<point x="1129" y="50" type="qcurve" smooth="yes"/>
			<point x="1116" y="50"/>
			<point x="1098" y="41"/>
			<point x="1087" y="27" type="qcurve" smooth="yes"/>
			<point x="1053" y="-18" type="line" smooth="yes"/>
			<point x="1037" y="-38"/>
			<point x="991" y="-63"/>
			<point x="957" y="-63" type="qcurve" smooth="yes"/>
			<point x="920" y="-63"/>
			<point x="878" y="-28"/>
			<point x="855" y="33"/>
			<point x="849" y="116"/>
			<point x="849" y="165" type="qcurve" smooth="yes"/>
			<point x="849" y="251"/>
			<point x="854" y="382"/>
			<point x="861" y="479"/>
			<point x="869" y="546"/>
			<point x="874" y="567" type="qcurve"/>
			<point x="854" y="573" type="line"/>
			<point x="837" y="537"/>
			<point x="818" y="477"/>
			<point x="805" y="419"/>
			<point x="798" y="363"/>
			<point x="795" y="332" type="qcurve" smooth="yes"/>
			<point x="794" y="324"/>
			<point x="792" y="280"/>
			<point x="789" y="230"/>
			<point x="786" y="186"/>
		</contour>
		<contour>
			<point x="1046" y="807" type="qcurve"/>
			<point x="1068" y="802" type="line"/>
			<point x="1097" y="869"/>
			<point x="1134" y="1014"/>
			<point x="1137" y="1078" type="qcurve" smooth="yes"/>
			<point x="1148" y="1272" type="line" smooth="yes"/>
			<point x="1150" y="1315"/>
			<point x="1155" y="1404"/>
			<point x="1162" y="1483"/>
			<point x="1171" y="1545"/>
			<point x="1178" y="1562" type="qcurve"/>
			<point x="1157" y="1570" type="line"/>
			<point x="1126" y="1502"/>
			<point x="1095" y="1416"/>
			<point x="1088" y="1386" type="qcurve" smooth="yes"/>
			<point x="1081" y="1356"/>
			<point x="1075" y="1281"/>
			<point x="1073" y="1245" type="qcurve" smooth="yes"/>
			<point x="1063" y="996" type="line" smooth="yes"/>
			<point x="1062" y="963"/>
			<point x="1057" y="902"/>
			<point x="1052" y="852"/>
			<point x="1048" y="815"/>
		</contour>
		<contour>
			<point x="779" y="811" type="qcurve" smooth="yes"/>
			<point x="739" y="811"/>
			<point x="703" y="860"/>
			<point x="703" y="903" type="qcurve" smooth="yes"/>
			<point x="703" y="908"/>
			<point x="703" y="917"/>
			<point x="704" y="923" type="qcurve"/>
			<point x="680" y="926" type="line"/>
			<point x="660" y="849"/>
			<point x="594" y="777"/>
			<point x="546" y="777" type="qcurve" smooth="yes"/>
			<point x="512" y="777"/>
			<point x="469" y="820"/>
			<point x="469" y="862" type="qcurve" smooth="yes"/>
			<point x="469" y="877"/>
			<point x="472" y="893" type="qcurve"/>
			<point x="455" y="899" type="line"/>
			<point x="445" y="886"/>
			<point x="406" y="841"/>
			<point x="356" y="787"/>
			<point x="299" y="725"/>
			<point x="242" y="666"/>
			<point x="188" y="612"/>
			<point x="167" y="591" type="qcurve"/>
			<point x="183" y="575" type="line"/>
			<point x="204" y="589"/>
			<point x="253" y="626"/>
			<point x="304" y="666"/>
			<point x="352" y="705"/>
			<point x="372" y="723" type="qcurve"/>
			<point x="380" y="675"/>
			<point x="447" y="619"/>
			<point x="506" y="619" type="qcurve" smooth="yes"/>
			<point x="556" y="619"/>
			<point x="626" y="665"/>
			<point x="645" y="695" type="qcurve"/>
			<point x="662" y="670"/>
			<point x="708" y="652"/>
			<point x="733" y="652" type="qcurve" smooth="yes"/>
			<point x="779" y="652"/>
			<point x="851" y="713"/>
			<point x="874" y="757" type="qcurve" smooth="yes"/>
			<point x="890" y="788"/>
			<point x="910" y="851"/>
			<point x="921" y="923"/>
			<point x="928" y="1005"/>
			<point x="932" y="1056" type="qcurve" smooth="yes"/>
			<point x="934" y="1089"/>
			<point x="939" y="1135"/>
			<point x="944" y="1152" type="qcurve"/>
			<point x="925" y="1160" type="line"/>
			<point x="891" y="1102"/>
			<point x="867" y="1004"/>
			<point x="867" y="965" type="qcurve" smooth="yes"/>
			<point x="867" y="960"/>
			<point x="867" y="941"/>
			<point x="866" y="917"/>
			<point x="865" y="893"/>
			<point x="864" y="884" type="qcurve" smooth="yes"/>
			<point x="859" y="853"/>
			<point x="815" y="811"/>
		</contour>
		<contour>
			<point x="575" y="1121" type="qcurve" smooth="yes"/>
			<point x="575" y="1105"/>
			<point x="591" y="1079"/>
			<point x="612" y="1079" type="qcurve" smooth="yes"/>
			<point x="635" y="1079"/>
			<point x="667" y="1111"/>
			<point x="679" y="1140" type="qcurve"/>
			<point x="684" y="1136"/>
			<point x="698" y="1132"/>
			<point x="704" y="1132" type="qcurve" smooth="yes"/>
			<point x="744" y="1132"/>
			<point x="782" y="1195"/>
			<point x="782" y="1241" type="qcurve" smooth="yes"/>
			<point x="782" y="1251" type="line"/>
			<point x="765" y="1249" type="line"/>
			<point x="759" y="1210"/>
			<point x="742" y="1183"/>
			<point x="725" y="1183" type="qcurve" smooth="yes"/>
			<point x="717" y="1183"/>
			<point x="699" y="1191"/>
			<point x="693" y="1201" type="qcurve"/>
			<point x="678" y="1198" type="line"/>
			<point x="668" y="1159"/>
			<point x="644" y="1129"/>
			<point x="624" y="1129" type="qcurve" smooth="yes"/>
			<point x="613" y="1129"/>
			<point x="600" y="1143"/>
			<point x="597" y="1159" type="qcurve"/>
			<point x="597" y="1164" type="line"/>
			<point x="583" y="1162" type="line"/>
			<point x="575" y="1145"/>
		</contour>
		<contour>
			<point x="1229" y="-413" type="qcurve" smooth="yes"/>
			<point x="1229" y="-386"/>
			<point x="1224" y="-327"/>
			<point x="1205" y="-278"/>
			<point x="1170" y="-246"/>
			<point x="1142" y="-246" type="qcurve" smooth="yes"/>
			<point x="1097" y="-246"/>
			<point x="1074" y="-293" type="qcurve" smooth="yes"/>
			<point x="1042" y="-359" type="line" smooth="yes"/>
			<point x="1030" y="-382"/>
			<point x="1021" y="-419"/>
			<point x="1021" y="-433" type="qcurve" smooth="yes"/>
			<point x="1021" y="-452"/>
			<point x="1038" y="-481"/>
			<point x="1063" y="-500"/>
			<point x="1094" y="-510"/>
			<point x="1108" y="-510" type="qcurve" smooth="yes"/>
			<point x="1126" y="-510"/>
			<point x="1161" y="-496"/>
			<point x="1175" y="-486" type="qcurve"/>
			<point x="1177" y="-488"/>
			<point x="1178" y="-492"/>
			<point x="1178" y="-494" type="qcurve" smooth="yes"/>
			<point x="1178" y="-503"/>
			<point x="1155" y="-543"/>
			<point x="1135" y="-565" type="qcurve" smooth="yes"/>
			<point x="1115" y="-586"/>
			<point x="1058" y="-635"/>
			<point x="995" y="-682"/>
			<point x="931" y="-725"/>
			<point x="904" y="-741" type="qcurve"/>
			<point x="910" y="-763" type="line"/>
			<point x="937" y="-756"/>
			<point x="1004" y="-734"/>
			<point x="1070" y="-708"/>
			<point x="1124" y="-684"/>
			<point x="1137" y="-675" type="qcurve"/>
			<point x="1182" y="-622"/>
			<point x="1229" y="-482"/>
		</contour>
		<contour>
			<point x="1617" y="-787" type="line"/>
			<point x="1626" y="-793"/>
			<point x="1649" y="-813"/>
			<point x="1672" y="-835"/>
			<point x="1694" y="-855"/>
			<point x="1700" y="-861" type="qcurve"/>
			<point x="1708" y="-861" type="line"/>
			<point x="1734" y="-843"/>
			<point x="1777" y="-803"/>
			<point x="1787" y="-785" type="qcurve"/>
			<point x="1804" y="-800"/>
			<point x="1839" y="-833"/>
			<point x="1850" y="-843" type="qcurve"/>
			<point x="1859" y="-843" type="line"/>
			<point x="1891" y="-820"/>
			<point x="1939" y="-768"/>
			<point x="1939" y="-748" type="qcurve" smooth="yes"/>
			<point x="1939" y="-727"/>
			<point x="1899" y="-688"/>
			<point x="1861" y="-664" type="qcurve"/>
			<point x="1852" y="-664" type="line"/>
			<point x="1848" y="-666"/>
			<point x="1832" y="-681"/>
			<point x="1813" y="-701"/>
			<point x="1791" y="-726"/>
			<point x="1781" y="-737" type="qcurve"/>
			<point x="1771" y="-725"/>
			<point x="1738" y="-698"/>
			<point x="1713" y="-682" type="qcurve"/>
			<point x="1704" y="-682" type="line"/>
			<point x="1700" y="-685"/>
			<point x="1678" y="-706"/>
			<point x="1652" y="-734"/>
			<point x="1626" y="-765"/>
			<point x="1617" y="-778" type="qcurve"/>
		</contour>
		<contour>
			<point x="412" y="209" type="qcurve" smooth="yes"/>
			<point x="392" y="209"/>
			<point x="362" y="189"/>
			<point x="341" y="156"/>
			<point x="331" y="115"/>
			<point x="331" y="96" type="qcurve" smooth="yes"/>
			<point x="331" y="63"/>
			<point x="367" y="23"/>
			<point x="397" y="23" type="qcurve" smooth="yes"/>
			<point x="436" y="23"/>
			<point x="480" y="75"/>
			<point x="480" y="115" type="qcurve" smooth="yes"/>
			<point x="480" y="133"/>
			<point x="469" y="167"/>
			<point x="452" y="193"/>
			<point x="426" y="209"/>
		</contour>
		<contour>
			<point x="452" y="118" type="qcurve" smooth="yes"/>
			<point x="452" y="98"/>
			<point x="423" y="73"/>
			<point x="403" y="73" type="qcurve" smooth="yes"/>
			<point x="377" y="73"/>
			<point x="360" y="97"/>
			<point x="360" y="111" type="qcurve" smooth="yes"/>
			<point x="360" y="129"/>
			<point x="387" y="156"/>
			<point x="405" y="156" type="qcurve" smooth="yes"/>
			<point x="424" y="156"/>
			<point x="452" y="134"/>
		</contour>
		<contour>
			<point x="1694" y="-118" type="qcurve" smooth="yes"/>
			<point x="1706" y="-113"/>
			<point x="1743" y="-90"/>
			<point x="1778" y="-63"/>
			<point x="1805" y="-39"/>
			<point x="1808" y="-33" type="qcurve"/>
			<point x="1804" y="-19" type="line"/>
			<point x="1751" y="4"/>
			<point x="1679" y="18"/>
			<point x="1659" y="18" type="qcurve" smooth="yes"/>
			<point x="1654" y="18"/>
			<point x="1639" y="14"/>
			<point x="1623" y="1"/>
			<point x="1604" y="-24"/>
			<point x="1595" y="-46" type="qcurve"/>
			<point x="1606" y="-51" type="line"/>
			<point x="1611" y="-46"/>
			<point x="1626" y="-41"/>
			<point x="1637" y="-41" type="qcurve" smooth="yes"/>
			<point x="1647" y="-41"/>
			<point x="1672" y="-44"/>
			<point x="1701" y="-50"/>
			<point x="1727" y="-58"/>
			<point x="1738" y="-62" type="qcurve"/>
			<point x="1738" y="-64" type="line"/>
			<point x="1734" y="-68"/>
			<point x="1708" y="-81"/>
			<point x="1668" y="-97"/>
			<point x="1619" y="-112"/>
			<point x="1593" y="-120" type="qcurve"/>
			<point x="1594" y="-134" type="line"/>
			<point x="1607" y="-134"/>
			<point x="1641" y="-128"/>
			<point x="1671" y="-123"/>
			<point x="1692" y="-119"/>
		</contour>
		<contour>
			<point x="2042" y="1482" type="qcurve"/>
			<point x="2021" y="1468"/>
			<point x="1992" y="1439"/>
			<point x="1984" y="1412" type="qcurve"/>
			<point x="1992" y="1406" type="line"/>
			<point x="2000" y="1415"/>
			<point x="2027" y="1433"/>
			<point x="2044" y="1442" type="qcurve" smooth="yes"/>
			<point x="2183" y="1518" type="line" smooth="yes"/>
			<point x="2201" y="1527"/>
			<point x="2228" y="1557"/>
			<point x="2239" y="1584" type="qcurve"/>
			<point x="2230" y="1590" type="line"/>
			<point x="2223" y="1584"/>
			<point x="2192" y="1567"/>
			<point x="2180" y="1560" type="qcurve" smooth="yes"/>
			<point x="2164" y="1551"/>
			<point x="2125" y="1530"/>
			<point x="2085" y="1508"/>
			<point x="2052" y="1488"/>
		</contour>
		<contour>
			<point x="1350" y="1101" type="qcurve"/>
			<point x="1361" y="1099" type="line"/>
			<point x="1376" y="1132"/>
			<point x="1394" y="1205"/>
			<point x="1396" y="1237" type="qcurve" smooth="yes"/>
			<point x="1398" y="1277" type="line" smooth="yes"/>
			<point x="1399" y="1299"/>
			<point x="1402" y="1343"/>
			<point x="1405" y="1382"/>
			<point x="1410" y="1414"/>
			<point x="1413" y="1422" type="qcurve"/>
			<point x="1403" y="1426" type="line"/>
			<point x="1387" y="1395"/>
			<point x="1372" y="1349"/>
			<point x="1369" y="1334" type="qcurve" smooth="yes"/>
			<point x="1364" y="1319"/>
			<point x="1362" y="1281"/>
			<point x="1361" y="1263" type="qcurve" smooth="yes"/>
			<point x="1359" y="1196" type="line" smooth="yes"/>
			<point x="1357" y="1163"/>
			<point x="1352" y="1110"/>
		</contour>
		<contour>
			<point x="1092" y="271" type="qcurve" smooth="yes"/>
			<point x="1071" y="257"/>
			<point x="1042" y="229"/>
			<point x="1035" y="200" type="qcurve"/>
			<point x="1042" y="195" type="line"/>
			<point x="1050" y="204"/>
			<point x="1078" y="222"/>
			<point x="1095" y="231" type="qcurve" smooth="yes"/>
			<point x="1234" y="307" type="line" smooth="yes"/>
			<point x="1251" y="316"/>
			<point x="1279" y="345"/>
			<point x="1290" y="374" type="qcurve"/>
			<point x="1281" y="379" type="line"/>
			<point x="1273" y="374"/>
			<point x="1243" y="356"/>
			<point x="1230" y="349" type="qcurve" smooth="yes"/>
			<point x="1215" y="340"/>
			<point x="1176" y="319"/>
			<point x="1136" y="297"/>
			<point x="1103" y="277"/>
		</contour>
		<contour>
			<point x="2269" y="339" type="qcurve" smooth="yes"/>
			<point x="2248" y="325"/>
			<point x="2218" y="297"/>
			<point x="2211" y="269" type="qcurve"/>
			<point x="2218" y="264" type="line"/>
			<point x="2226" y="272"/>
			<point x="2253" y="290"/>
			<point x="2271" y="300" type="qcurve" smooth="yes"/>
			<point x="2410" y="375" type="line" smooth="yes"/>
			<point x="2428" y="385"/>
			<point x="2455" y="414"/>
			<point x="2465" y="442" type="qcurve"/>
			<point x="2457" y="447" type="line"/>
			<point x="2450" y="442"/>
			<point x="2419" y="424"/>
			<point x="2406" y="417" type="qcurve" smooth="yes"/>
			<point x="2391" y="409"/>
			<point x="2352" y="388"/>
			<point x="2313" y="366"/>
			<point x="2279" y="345"/>
		</contour>
		<contour>
			<point x="670" y="1271" type="qcurve"/>
			<point x="682" y="1268" type="line"/>
			<point x="697" y="1302"/>
			<point x="715" y="1375"/>
			<point x="717" y="1406" type="qcurve" smooth="yes"/>
			<point x="718" y="1424" type="line" smooth="yes"/>
			<point x="720" y="1468"/>
			<point x="724" y="1514"/>
			<point x="727" y="1524" type="qcurve"/>
			<point x="716" y="1527" type="line"/>
			<point x="707" y="1509"/>
			<point x="693" y="1480"/>
			<point x="686" y="1454"/>
			<point x="682" y="1426"/>
			<point x="681" y="1410" type="qcurve" smooth="yes"/>
			<point x="679" y="1366" type="line" smooth="yes"/>
			<point x="678" y="1333"/>
			<point x="672" y="1280"/>
		</contour>
		<contour>
			<point x="1568" y="1674" type="qcurve" smooth="yes"/>
			<point x="1568" y="1659"/>
			<point x="1584" y="1632"/>
			<point x="1605" y="1632" type="qcurve" smooth="yes"/>
			<point x="1628" y="1632"/>
			<point x="1660" y="1665"/>
			<point x="1672" y="1694" type="qcurve"/>
			<point x="1677" y="1690"/>
			<point x="1691" y="1686"/>
			<point x="1697" y="1686" type="qcurve" smooth="yes"/>
			<point x="1737" y="1686"/>
			<point x="1775" y="1749"/>
			<point x="1775" y="1795" type="qcurve" smooth="yes"/>
			<point x="1775" y="1805" type="line"/>
			<point x="1758" y="1803" type="line"/>
			<point x="1752" y="1764"/>
			<point x="1735" y="1737"/>
			<point x="1718" y="1737" type="qcurve" smooth="yes"/>
			<point x="1710" y="1737"/>
			<point x="1692" y="1745"/>
			<point x="1687" y="1754" type="qcurve"/>
			<point x="1671" y="1751" type="line"/>
			<point x="1661" y="1713"/>
			<point x="1637" y="1683"/>
			<point x="1617" y="1683" type="qcurve" smooth="yes"/>
			<point x="1606" y="1683"/>
			<point x="1593" y="1696"/>
			<point x="1590" y="1713" type="qcurve"/>
			<point x="1590" y="1717" type="line"/>
			<point x="1577" y="1716" type="line"/>
			<point x="1568" y="1698"/>
		</contour>
		<contour>
			<point x="1229" y="-960" type="qcurve"/>
			<point x="1208" y="-975"/>
			<point x="1180" y="-1003"/>
			<point x="1172" y="-1031" type="qcurve"/>
			<point x="1180" y="-1036" type="line"/>
			<point x="1188" y="-1027"/>
			<point x="1215" y="-1010"/>
			<point x="1232" y="-1000" type="qcurve" smooth="yes"/>
			<point x="1371" y="-925" type="line" smooth="yes"/>
			<point x="1389" y="-915"/>
			<point x="1416" y="-886"/>
			<point x="1426" y="-858" type="qcurve"/>
			<point x="1417" y="-853" type="line"/>
			<point x="1411" y="-858"/>
			<point x="1380" y="-875"/>
			<point x="1368" y="-882" type="qcurve" smooth="yes"/>
			<point x="1352" y="-891"/>
			<point x="1313" y="-912"/>
			<point x="1273" y="-934"/>
			<point x="1240" y="-955"/>
		</contour>
	</outline>
</glyph>
